<svg data-v-423bf9ae="" xmlns="http://www.w3.org/2000/svg" viewBox="0 0 514.6430586802375 60" class="font"><!----><!----><!----><g data-v-423bf9ae="" id="5ba05bd6-fe37-44b8-a143-966e508923ab" fill="white" transform="matrix(6.007272243499756,0,0,6.007272243499756,-4.205085754394531,-22.34705352783203)"><path d="M0.70 5.57L0.70 3.72L7.41 3.72Q7.41 4.16 7.28 4.50Q7.15 4.84 6.94 5.08Q6.73 5.32 6.46 5.45Q6.19 5.57 5.88 5.57L5.88 5.57L4.76 5.57L4.76 13.52L2.87 13.52L2.87 5.57L0.70 5.57ZM10.88 6.10L10.88 6.10Q11.98 6.10 12.84 6.64Q13.71 7.17 14.20 7.99Q14.69 8.82 14.72 9.83Q14.76 10.84 14.21 11.80L14.21 11.80Q13.75 12.60 13.01 13.08Q12.26 13.55 11.42 13.67Q10.58 13.79 9.74 13.53Q8.89 13.27 8.22 12.60L8.22 12.60Q7.46 11.83 7.21 10.82Q6.96 9.81 7.25 8.81L7.25 8.81Q7.38 8.40 7.67 8.13Q7.95 7.87 8.32 7.74Q8.68 7.62 9.07 7.63Q9.46 7.64 9.80 7.79Q10.14 7.94 10.37 8.21Q10.60 8.48 10.64 8.88L10.64 8.88Q10.43 8.72 10.14 8.71Q9.84 8.71 9.57 8.84Q9.30 8.97 9.11 9.25Q8.92 9.52 8.92 9.93L8.92 9.93Q8.92 10.63 9.21 11.09Q9.51 11.55 9.95 11.78Q10.39 12.01 10.90 12.01Q11.41 12.01 11.85 11.77Q12.29 11.54 12.59 11.07Q12.88 10.60 12.88 9.90L12.88 9.90Q12.88 9.35 12.68 8.93Q12.49 8.51 12.16 8.24Q11.83 7.97 11.40 7.86Q10.96 7.76 10.47 7.85L10.47 7.85Q10.26 7.60 9.96 7.46Q9.66 7.31 9.31 7.26Q8.96 7.21 8.61 7.27Q8.26 7.34 7.95 7.52L7.95 7.52Q8.51 6.85 9.25 6.48Q10.00 6.10 10.88 6.10ZM21.25 13.52L21.25 12.73Q20.72 13.24 20.10 13.48Q19.47 13.72 18.84 13.70Q18.21 13.68 17.62 13.41Q17.02 13.15 16.57 12.65Q16.11 12.15 15.84 11.46Q15.57 10.77 15.57 9.88L15.57 9.88Q15.57 9.04 15.86 8.33Q16.16 7.62 16.65 7.11Q17.15 6.61 17.79 6.34Q18.42 6.06 19.11 6.09L19.11 6.09Q19.78 6.12 20.19 6.39Q20.59 6.66 20.78 7.03Q20.97 7.39 20.98 7.76Q20.99 8.13 20.86 8.36L20.86 8.36Q20.62 8.01 20.19 7.89Q19.75 7.77 19.35 7.77L19.35 7.77Q18.70 7.77 18.27 8.09Q17.84 8.40 17.61 8.88Q17.39 9.35 17.38 9.91Q17.37 10.46 17.59 10.93Q17.81 11.41 18.25 11.73Q18.69 12.04 19.35 12.04L19.35 12.04Q19.91 12.04 20.27 11.79Q20.64 11.54 20.85 11.14Q21.07 10.74 21.16 10.24Q21.25 9.74 21.25 9.25L21.25 9.25L21.25 7.04L21.25 6.27L23.07 6.27L23.07 13.52L21.25 13.52ZM28.07 8.50L28.07 8.50Q27.96 8.23 27.76 8.07Q27.57 7.91 27.33 7.83Q27.10 7.74 26.89 7.74Q26.67 7.73 26.53 7.78L26.53 7.78Q26.28 7.87 26.20 8.07Q26.12 8.27 26.28 8.46L26.28 8.46Q26.40 8.60 26.68 8.73Q26.95 8.86 27.29 9.02Q27.62 9.18 27.98 9.39Q28.34 9.59 28.63 9.87Q28.92 10.15 29.11 10.53Q29.30 10.91 29.30 11.42L29.30 11.42Q29.30 12.03 29.04 12.48Q28.77 12.94 28.33 13.22Q27.89 13.50 27.33 13.60Q26.78 13.71 26.21 13.62Q25.65 13.54 25.12 13.24Q24.58 12.94 24.19 12.42L24.19 12.42L25.31 11.21Q25.66 11.63 26.05 11.82Q26.43 12.00 26.76 12.02Q27.09 12.04 27.31 11.92Q27.54 11.80 27.59 11.60Q27.64 11.40 27.47 11.15Q27.30 10.91 26.82 10.67L26.82 10.67Q26.38 10.44 25.95 10.21Q25.52 9.97 25.19 9.67Q24.86 9.38 24.66 9.02Q24.46 8.65 24.46 8.16L24.46 8.16Q24.46 7.66 24.67 7.27Q24.88 6.87 25.23 6.61Q25.58 6.34 26.03 6.22Q26.47 6.09 26.95 6.10L26.95 6.10Q27.76 6.15 28.19 6.46Q28.62 6.78 28.72 7.18Q28.83 7.57 28.65 7.95Q28.48 8.33 28.07 8.50ZM31.18 6.33L31.18 5.15Q31.18 4.76 31.32 4.49Q31.47 4.21 31.72 4.05Q31.96 3.88 32.28 3.80Q32.61 3.72 32.94 3.72L32.94 3.72L32.94 6.33L34.57 6.33Q34.57 6.61 34.52 6.87Q34.47 7.14 34.33 7.36Q34.19 7.57 33.95 7.71Q33.71 7.84 33.33 7.84L33.33 7.84L32.94 7.84L32.94 11.80Q32.94 12.03 33.11 12.12Q33.28 12.21 33.50 12.20Q33.73 12.19 33.95 12.10Q34.17 12.00 34.27 11.83L34.27 11.83Q34.45 12.29 34.29 12.65Q34.13 13.01 33.79 13.22Q33.45 13.44 32.99 13.50Q32.54 13.57 32.14 13.43Q31.74 13.30 31.46 12.96Q31.18 12.61 31.18 12.03L31.18 12.03L31.18 7.84L30.28 7.84L30.28 6.33L31.18 6.33ZM40.63 10.72L40.63 10.72Q39.87 10.92 39.25 10.86Q38.63 10.81 38.23 10.56Q37.83 10.32 37.70 9.91Q37.56 9.49 37.77 8.97L37.77 8.97Q38.21 9.34 38.78 9.37Q39.35 9.41 39.89 9.35L39.89 9.35Q40.33 9.31 40.56 9.16Q40.80 9.00 40.85 8.80Q40.91 8.60 40.81 8.37Q40.71 8.15 40.49 7.97Q40.28 7.78 39.96 7.67Q39.65 7.56 39.27 7.57L39.27 7.57Q38.86 7.60 38.50 7.77Q38.14 7.94 37.86 8.23Q37.58 8.53 37.41 8.92Q37.24 9.31 37.23 9.79L37.23 9.79Q37.21 10.18 37.32 10.56Q37.42 10.93 37.63 11.25Q37.84 11.56 38.14 11.78Q38.43 12.00 38.81 12.05L38.81 12.05Q39.34 12.15 39.90 11.98Q40.46 11.82 40.89 11.37L40.89 11.37L42.36 12.08Q41.79 12.94 41.01 13.31Q40.22 13.68 39.21 13.68L39.21 13.68Q38.28 13.68 37.57 13.35Q36.86 13.02 36.39 12.47Q35.92 11.93 35.69 11.24Q35.46 10.54 35.48 9.82Q35.49 9.10 35.76 8.41Q36.02 7.71 36.53 7.18L36.53 7.18Q37.09 6.58 37.83 6.33Q38.58 6.08 39.37 6.08L39.37 6.08Q40.24 6.08 40.87 6.37Q41.50 6.66 41.89 7.12Q42.28 7.57 42.41 8.13Q42.53 8.68 42.38 9.20Q42.24 9.72 41.80 10.13Q41.37 10.54 40.63 10.72ZM48.92 13.51L48.92 12.74Q48.40 13.24 47.79 13.48Q47.18 13.71 46.56 13.69Q45.95 13.66 45.37 13.41Q44.80 13.15 44.36 12.66Q43.92 12.18 43.65 11.51Q43.39 10.84 43.39 9.98L43.39 9.98Q43.39 9.16 43.67 8.47Q43.96 7.78 44.44 7.29Q44.93 6.79 45.54 6.52Q46.16 6.26 46.83 6.29L46.83 6.29Q47.53 6.31 47.93 6.58Q48.33 6.85 48.50 7.20Q48.68 7.55 48.67 7.90Q48.66 8.26 48.54 8.48L48.54 8.48Q48.30 8.15 47.87 8.03Q47.45 7.91 47.07 7.91L47.07 7.91Q46.44 7.91 46.01 8.22Q45.58 8.53 45.37 8.99Q45.15 9.45 45.15 9.99Q45.15 10.53 45.36 10.99Q45.57 11.45 45.99 11.76Q46.41 12.07 47.05 12.07L47.05 12.07Q47.60 12.07 47.96 11.82Q48.31 11.58 48.52 11.19Q48.73 10.79 48.82 10.31Q48.92 9.83 48.92 9.35L48.92 9.35L48.92 3.74Q49.74 3.77 50.21 4.19Q50.68 4.61 50.68 5.17L50.68 5.17L50.68 13.51L48.92 13.51ZM55.58 5.57L55.58 3.72L62.29 3.72Q62.29 4.16 62.16 4.50Q62.03 4.84 61.82 5.08Q61.61 5.32 61.34 5.45Q61.07 5.57 60.76 5.57L60.76 5.57L59.64 5.57L59.64 13.52L57.75 13.52L57.75 5.57L55.58 5.57ZM65.76 6.10L65.76 6.10Q66.86 6.10 67.72 6.64Q68.59 7.17 69.08 7.99Q69.57 8.82 69.60 9.83Q69.64 10.84 69.09 11.80L69.09 11.80Q68.63 12.60 67.89 13.08Q67.14 13.55 66.30 13.67Q65.46 13.79 64.62 13.53Q63.77 13.27 63.10 12.60L63.10 12.60Q62.34 11.83 62.09 10.82Q61.84 9.81 62.13 8.81L62.13 8.81Q62.26 8.40 62.54 8.13Q62.83 7.87 63.20 7.74Q63.56 7.62 63.95 7.63Q64.34 7.64 64.68 7.79Q65.02 7.94 65.25 8.21Q65.48 8.48 65.52 8.88L65.52 8.88Q65.31 8.72 65.02 8.71Q64.72 8.71 64.45 8.84Q64.18 8.97 63.99 9.25Q63.80 9.52 63.80 9.93L63.80 9.93Q63.80 10.63 64.09 11.09Q64.39 11.55 64.83 11.78Q65.27 12.01 65.78 12.01Q66.29 12.01 66.73 11.77Q67.17 11.54 67.47 11.07Q67.76 10.60 67.76 9.90L67.76 9.90Q67.76 9.35 67.56 8.93Q67.37 8.51 67.04 8.24Q66.71 7.97 66.28 7.86Q65.84 7.76 65.35 7.85L65.35 7.85Q65.14 7.60 64.84 7.46Q64.54 7.31 64.19 7.26Q63.84 7.21 63.49 7.27Q63.14 7.34 62.83 7.52L62.83 7.52Q63.39 6.85 64.13 6.48Q64.88 6.10 65.76 6.10ZM76.13 13.52L76.13 12.73Q75.60 13.24 74.98 13.48Q74.35 13.72 73.72 13.70Q73.09 13.68 72.50 13.41Q71.90 13.15 71.45 12.65Q70.99 12.15 70.72 11.46Q70.45 10.77 70.45 9.88L70.45 9.88Q70.45 9.04 70.74 8.33Q71.04 7.62 71.53 7.11Q72.03 6.61 72.67 6.34Q73.30 6.06 73.99 6.09L73.99 6.09Q74.66 6.12 75.07 6.39Q75.47 6.66 75.66 7.03Q75.85 7.39 75.86 7.76Q75.87 8.13 75.74 8.36L75.74 8.36Q75.50 8.01 75.07 7.89Q74.63 7.77 74.23 7.77L74.23 7.77Q73.58 7.77 73.15 8.09Q72.72 8.40 72.49 8.88Q72.27 9.35 72.26 9.91Q72.25 10.46 72.47 10.93Q72.69 11.41 73.13 11.73Q73.57 12.04 74.23 12.04L74.23 12.04Q74.79 12.04 75.15 11.79Q75.52 11.54 75.73 11.14Q75.95 10.74 76.04 10.24Q76.13 9.74 76.13 9.25L76.13 9.25L76.13 7.04L76.13 6.27L77.95 6.27L77.95 13.52L76.13 13.52ZM84.60 13.51L84.60 12.74Q84.08 13.24 83.47 13.48Q82.87 13.71 82.25 13.69Q81.63 13.66 81.06 13.41Q80.49 13.15 80.04 12.66Q79.60 12.18 79.34 11.51Q79.07 10.84 79.07 9.98L79.07 9.98Q79.07 9.16 79.36 8.47Q79.65 7.78 80.13 7.29Q80.61 6.79 81.23 6.52Q81.84 6.26 82.52 6.29L82.52 6.29Q83.22 6.31 83.61 6.58Q84.01 6.85 84.19 7.20Q84.36 7.55 84.36 7.90Q84.35 8.26 84.22 8.48L84.22 8.48Q83.99 8.15 83.56 8.03Q83.13 7.91 82.75 7.91L82.75 7.91Q82.12 7.91 81.70 8.22Q81.27 8.53 81.05 8.99Q80.84 9.45 80.84 9.99Q80.84 10.53 81.05 10.99Q81.26 11.45 81.68 11.76Q82.10 12.07 82.74 12.07L82.74 12.07Q83.29 12.07 83.64 11.82Q84.00 11.58 84.21 11.19Q84.42 10.79 84.51 10.31Q84.60 9.83 84.60 9.35L84.60 9.35L84.60 3.74Q85.43 3.77 85.90 4.19Q86.37 4.61 86.37 5.17L86.37 5.17L86.37 13.51L84.60 13.51Z"></path></g><!----><!----></svg>