<svg data-v-423bf9ae="" xmlns="http://www.w3.org/2000/svg" viewBox="0 0 3441.997188149144 3049" class="iconAboveSlogan"><!----><!----><!----><g data-v-423bf9ae="" id="09c4fcfd-23b2-41db-b062-1cd2a7b29637" fill="black" transform="matrix(6.007272243499756,0,0,6.007272243499756,1459.4720458984375,2931.10400390625)"><path d="M0.70 5.57L0.70 3.72L7.41 3.72Q7.41 4.16 7.28 4.50Q7.15 4.84 6.94 5.08Q6.73 5.32 6.46 5.45Q6.19 5.57 5.88 5.57L5.88 5.57L4.76 5.57L4.76 13.52L2.87 13.52L2.87 5.57L0.70 5.57ZM10.88 6.10L10.88 6.10Q11.98 6.10 12.84 6.64Q13.71 7.17 14.20 7.99Q14.69 8.82 14.72 9.83Q14.76 10.84 14.21 11.80L14.21 11.80Q13.75 12.60 13.01 13.08Q12.26 13.55 11.42 13.67Q10.58 13.79 9.74 13.53Q8.89 13.27 8.22 12.60L8.22 12.60Q7.46 11.83 7.21 10.82Q6.96 9.81 7.25 8.81L7.25 8.81Q7.38 8.40 7.67 8.13Q7.95 7.87 8.32 7.74Q8.68 7.62 9.07 7.63Q9.46 7.64 9.80 7.79Q10.14 7.94 10.37 8.21Q10.60 8.48 10.64 8.88L10.64 8.88Q10.43 8.72 10.14 8.71Q9.84 8.71 9.57 8.84Q9.30 8.97 9.11 9.25Q8.92 9.52 8.92 9.93L8.92 9.93Q8.92 10.63 9.21 11.09Q9.51 11.55 9.95 11.78Q10.39 12.01 10.90 12.01Q11.41 12.01 11.85 11.77Q12.29 11.54 12.59 11.07Q12.88 10.60 12.88 9.90L12.88 9.90Q12.88 9.35 12.68 8.93Q12.49 8.51 12.16 8.24Q11.83 7.97 11.40 7.86Q10.96 7.76 10.47 7.85L10.47 7.85Q10.26 7.60 9.96 7.46Q9.66 7.31 9.31 7.26Q8.96 7.21 8.61 7.27Q8.26 7.34 7.95 7.52L7.95 7.52Q8.51 6.85 9.25 6.48Q10.00 6.10 10.88 6.10ZM21.25 13.52L21.25 12.73Q20.72 13.24 20.10 13.48Q19.47 13.72 18.84 13.70Q18.21 13.68 17.62 13.41Q17.02 13.15 16.57 12.65Q16.11 12.15 15.84 11.46Q15.57 10.77 15.57 9.88L15.57 9.88Q15.57 9.04 15.86 8.33Q16.16 7.62 16.65 7.11Q17.15 6.61 17.79 6.34Q18.42 6.06 19.11 6.09L19.11 6.09Q19.78 6.12 20.19 6.39Q20.59 6.66 20.78 7.03Q20.97 7.39 20.98 7.76Q20.99 8.13 20.86 8.36L20.86 8.36Q20.62 8.01 20.19 7.89Q19.75 7.77 19.35 7.77L19.35 7.77Q18.70 7.77 18.27 8.09Q17.84 8.40 17.61 8.88Q17.39 9.35 17.38 9.91Q17.37 10.46 17.59 10.93Q17.81 11.41 18.25 11.73Q18.69 12.04 19.35 12.04L19.35 12.04Q19.91 12.04 20.27 11.79Q20.64 11.54 20.85 11.14Q21.07 10.74 21.16 10.24Q21.25 9.74 21.25 9.25L21.25 9.25L21.25 7.04L21.25 6.27L23.07 6.27L23.07 13.52L21.25 13.52ZM28.07 8.50L28.07 8.50Q27.96 8.23 27.76 8.07Q27.57 7.91 27.33 7.83Q27.10 7.74 26.89 7.74Q26.67 7.73 26.53 7.78L26.53 7.78Q26.28 7.87 26.20 8.07Q26.12 8.27 26.28 8.46L26.28 8.46Q26.40 8.60 26.68 8.73Q26.95 8.86 27.29 9.02Q27.62 9.18 27.98 9.39Q28.34 9.59 28.63 9.87Q28.92 10.15 29.11 10.53Q29.30 10.91 29.30 11.42L29.30 11.42Q29.30 12.03 29.04 12.48Q28.77 12.94 28.33 13.22Q27.89 13.50 27.33 13.60Q26.78 13.71 26.21 13.62Q25.65 13.54 25.12 13.24Q24.58 12.94 24.19 12.42L24.19 12.42L25.31 11.21Q25.66 11.63 26.05 11.82Q26.43 12.00 26.76 12.02Q27.09 12.04 27.31 11.92Q27.54 11.80 27.59 11.60Q27.64 11.40 27.47 11.15Q27.30 10.91 26.82 10.67L26.82 10.67Q26.38 10.44 25.95 10.21Q25.52 9.97 25.19 9.67Q24.86 9.38 24.66 9.02Q24.46 8.65 24.46 8.16L24.46 8.16Q24.46 7.66 24.67 7.27Q24.88 6.87 25.23 6.61Q25.58 6.34 26.03 6.22Q26.47 6.09 26.95 6.10L26.95 6.10Q27.76 6.15 28.19 6.46Q28.62 6.78 28.72 7.18Q28.83 7.57 28.65 7.95Q28.48 8.33 28.07 8.50ZM31.18 6.33L31.18 5.15Q31.18 4.76 31.32 4.49Q31.47 4.21 31.72 4.05Q31.96 3.88 32.28 3.80Q32.61 3.72 32.94 3.72L32.94 3.72L32.94 6.33L34.57 6.33Q34.57 6.61 34.52 6.87Q34.47 7.14 34.33 7.36Q34.19 7.57 33.95 7.71Q33.71 7.84 33.33 7.84L33.33 7.84L32.94 7.84L32.94 11.80Q32.94 12.03 33.11 12.12Q33.28 12.21 33.50 12.20Q33.73 12.19 33.95 12.10Q34.17 12.00 34.27 11.83L34.27 11.83Q34.45 12.29 34.29 12.65Q34.13 13.01 33.79 13.22Q33.45 13.44 32.99 13.50Q32.54 13.57 32.14 13.43Q31.74 13.30 31.46 12.96Q31.18 12.61 31.18 12.03L31.18 12.03L31.18 7.84L30.28 7.84L30.28 6.33L31.18 6.33ZM40.63 10.72L40.63 10.72Q39.87 10.92 39.25 10.86Q38.63 10.81 38.23 10.56Q37.83 10.32 37.70 9.91Q37.56 9.49 37.77 8.97L37.77 8.97Q38.21 9.34 38.78 9.37Q39.35 9.41 39.89 9.35L39.89 9.35Q40.33 9.31 40.56 9.16Q40.80 9.00 40.85 8.80Q40.91 8.60 40.81 8.37Q40.71 8.15 40.49 7.97Q40.28 7.78 39.96 7.67Q39.65 7.56 39.27 7.57L39.27 7.57Q38.86 7.60 38.50 7.77Q38.14 7.94 37.86 8.23Q37.58 8.53 37.41 8.92Q37.24 9.31 37.23 9.79L37.23 9.79Q37.21 10.18 37.32 10.56Q37.42 10.93 37.63 11.25Q37.84 11.56 38.14 11.78Q38.43 12.00 38.81 12.05L38.81 12.05Q39.34 12.15 39.90 11.98Q40.46 11.82 40.89 11.37L40.89 11.37L42.36 12.08Q41.79 12.94 41.01 13.31Q40.22 13.68 39.21 13.68L39.21 13.68Q38.28 13.68 37.57 13.35Q36.86 13.02 36.39 12.47Q35.92 11.93 35.69 11.24Q35.46 10.54 35.48 9.82Q35.49 9.10 35.76 8.41Q36.02 7.71 36.53 7.18L36.53 7.18Q37.09 6.58 37.83 6.33Q38.58 6.08 39.37 6.08L39.37 6.08Q40.24 6.08 40.87 6.37Q41.50 6.66 41.89 7.12Q42.28 7.57 42.41 8.13Q42.53 8.68 42.38 9.20Q42.24 9.72 41.80 10.13Q41.37 10.54 40.63 10.72ZM48.92 13.51L48.92 12.74Q48.40 13.24 47.79 13.48Q47.18 13.71 46.56 13.69Q45.95 13.66 45.37 13.41Q44.80 13.15 44.36 12.66Q43.92 12.18 43.65 11.51Q43.39 10.84 43.39 9.98L43.39 9.98Q43.39 9.16 43.67 8.47Q43.96 7.78 44.44 7.29Q44.93 6.79 45.54 6.52Q46.16 6.26 46.83 6.29L46.83 6.29Q47.53 6.31 47.93 6.58Q48.33 6.85 48.50 7.20Q48.68 7.55 48.67 7.90Q48.66 8.26 48.54 8.48L48.54 8.48Q48.30 8.15 47.87 8.03Q47.45 7.91 47.07 7.91L47.07 7.91Q46.44 7.91 46.01 8.22Q45.58 8.53 45.37 8.99Q45.15 9.45 45.15 9.99Q45.15 10.53 45.36 10.99Q45.57 11.45 45.99 11.76Q46.41 12.07 47.05 12.07L47.05 12.07Q47.60 12.07 47.96 11.82Q48.31 11.58 48.52 11.19Q48.73 10.79 48.82 10.31Q48.92 9.83 48.92 9.35L48.92 9.35L48.92 3.74Q49.74 3.77 50.21 4.19Q50.68 4.61 50.68 5.17L50.68 5.17L50.68 13.51L48.92 13.51ZM55.58 5.57L55.58 3.72L62.29 3.72Q62.29 4.16 62.16 4.50Q62.03 4.84 61.82 5.08Q61.61 5.32 61.34 5.45Q61.07 5.57 60.76 5.57L60.76 5.57L59.64 5.57L59.64 13.52L57.75 13.52L57.75 5.57L55.58 5.57ZM65.76 6.10L65.76 6.10Q66.86 6.10 67.72 6.64Q68.59 7.17 69.08 7.99Q69.57 8.82 69.60 9.83Q69.64 10.84 69.09 11.80L69.09 11.80Q68.63 12.60 67.89 13.08Q67.14 13.55 66.30 13.67Q65.46 13.79 64.62 13.53Q63.77 13.27 63.10 12.60L63.10 12.60Q62.34 11.83 62.09 10.82Q61.84 9.81 62.13 8.81L62.13 8.81Q62.26 8.40 62.54 8.13Q62.83 7.87 63.20 7.74Q63.56 7.62 63.95 7.63Q64.34 7.64 64.68 7.79Q65.02 7.94 65.25 8.21Q65.48 8.48 65.52 8.88L65.52 8.88Q65.31 8.72 65.02 8.71Q64.72 8.71 64.45 8.84Q64.18 8.97 63.99 9.25Q63.80 9.52 63.80 9.93L63.80 9.93Q63.80 10.63 64.09 11.09Q64.39 11.55 64.83 11.78Q65.27 12.01 65.78 12.01Q66.29 12.01 66.73 11.77Q67.17 11.54 67.47 11.07Q67.76 10.60 67.76 9.90L67.76 9.90Q67.76 9.35 67.56 8.93Q67.37 8.51 67.04 8.24Q66.71 7.97 66.28 7.86Q65.84 7.76 65.35 7.85L65.35 7.85Q65.14 7.60 64.84 7.46Q64.54 7.31 64.19 7.26Q63.84 7.21 63.49 7.27Q63.14 7.34 62.83 7.52L62.83 7.52Q63.39 6.85 64.13 6.48Q64.88 6.10 65.76 6.10ZM76.13 13.52L76.13 12.73Q75.60 13.24 74.98 13.48Q74.35 13.72 73.72 13.70Q73.09 13.68 72.50 13.41Q71.90 13.15 71.45 12.65Q70.99 12.15 70.72 11.46Q70.45 10.77 70.45 9.88L70.45 9.88Q70.45 9.04 70.74 8.33Q71.04 7.62 71.53 7.11Q72.03 6.61 72.67 6.34Q73.30 6.06 73.99 6.09L73.99 6.09Q74.66 6.12 75.07 6.39Q75.47 6.66 75.66 7.03Q75.85 7.39 75.86 7.76Q75.87 8.13 75.74 8.36L75.74 8.36Q75.50 8.01 75.07 7.89Q74.63 7.77 74.23 7.77L74.23 7.77Q73.58 7.77 73.15 8.09Q72.72 8.40 72.49 8.88Q72.27 9.35 72.26 9.91Q72.25 10.46 72.47 10.93Q72.69 11.41 73.13 11.73Q73.57 12.04 74.23 12.04L74.23 12.04Q74.79 12.04 75.15 11.79Q75.52 11.54 75.73 11.14Q75.95 10.74 76.04 10.24Q76.13 9.74 76.13 9.25L76.13 9.25L76.13 7.04L76.13 6.27L77.95 6.27L77.95 13.52L76.13 13.52ZM84.60 13.51L84.60 12.74Q84.08 13.24 83.47 13.48Q82.87 13.71 82.25 13.69Q81.63 13.66 81.06 13.41Q80.49 13.15 80.04 12.66Q79.60 12.18 79.34 11.51Q79.07 10.84 79.07 9.98L79.07 9.98Q79.07 9.16 79.36 8.47Q79.65 7.78 80.13 7.29Q80.61 6.79 81.23 6.52Q81.84 6.26 82.52 6.29L82.52 6.29Q83.22 6.31 83.61 6.58Q84.01 6.85 84.19 7.20Q84.36 7.55 84.36 7.90Q84.35 8.26 84.22 8.48L84.22 8.48Q83.99 8.15 83.56 8.03Q83.13 7.91 82.75 7.91L82.75 7.91Q82.12 7.91 81.70 8.22Q81.27 8.53 81.05 8.99Q80.84 9.45 80.84 9.99Q80.84 10.53 81.05 10.99Q81.26 11.45 81.68 11.76Q82.10 12.07 82.74 12.07L82.74 12.07Q83.29 12.07 83.64 11.82Q84.00 11.58 84.21 11.19Q84.42 10.79 84.51 10.31Q84.60 9.83 84.60 9.35L84.60 9.35L84.60 3.74Q85.43 3.77 85.90 4.19Q86.37 4.61 86.37 5.17L86.37 5.17L86.37 13.51L84.60 13.51Z"></path></g><!----><g data-v-423bf9ae="" id="18de8a2b-2aa3-4fa0-8b86-effad2013daf" transform="matrix(5.715914726257324,0,0,5.715914726257324,-267.12896728515625,-567.4052734375)" stroke="none" fill="black"><path d="M420 99.6c-5.2 1-12.7 3.8-19 7-5.8 2.9-7.7 3.3-17.5 3.9-14.8.9-27.3 3-37.3 6.4-7.6 2.6-8.5 2.8-12.1 1.5-7.1-2.4-16.3-3.5-34.6-4.1l-18-.5-5.5-3.3c-9.3-5.6-18.5-7.8-29.8-7.3-11.7.6-19 3.1-25.5 8.9-6.8 6-10.1 13.3-10.3 23.3-.1 4.5-.9 10.8-1.8 14.1-.8 3.3-1.6 9-1.6 12.8 0 5.7-.5 7.8-3.4 13.5-1.9 3.7-4.4 9.7-5.5 13.2-1.2 3.6-3.2 8.1-4.5 10-7.3 11.1-11.9 24.6-12 35 0 4.1.6 8.5 1.3 9.8 1 1.9.6 3.9-2.4 13.5-5.1 15.5-10 35.3-12.5 49.3-1.1 6.6-2.2 13.1-2.6 14.5-.5 2.5-1.1 2.8-10.2 4.4-38.9 7-75.3 30.9-89.4 58.9-5.5 11-6.1 14.2-6 36.7 0 17.8.3 21.7 2.1 28.3 3.6 13 9.2 22.6 19.5 33.4 7.8 8.1 13.5 12.3 24.9 18.2 5.1 2.6 9.2 5.4 9.2 6.1 0 .8-2.4 2.2-5.5 3.3-4.5 1.5-10 2-29.5 2.6-24.4.8-27.8 1.3-31.5 5-4.9 4.9-.7 13.5 6.8 13.4 2-.1 8.4-.2 14.2-.3 9.4-.3 11.5 0 20.2 2.9 5.4 1.7 9.8 3.6 9.8 4.3-.1 1.8-3.7 9.4-6.1 12.8-1.2 1.7-3.9 4.1-6 5.5-3.3 2-3.9 3-3.9 5.8 0 5.7 4.5 8.5 11.6 7.1 2.7-.5 5.2-2.3 10.2-7.7 7.6-7.9 10.7-9.8 16.3-10.1 5.3-.2 7.8 2.4 8.6 9 .4 4.1.2 5.8-1.3 8.2-2.9 4.4-14.1 12.9-18.8 14.1-8.5 2.2-10.6 3.2-12.7 5.8-4.3 5.6.5 13.2 8.4 13.2 3.1 0 6.9-1.3 14.2-5 6-3 12.3-5.4 15.8-6 9.2-1.5 39.1-2.3 52.9-1.5l12.7.7 6.8 5.2c4.7 3.6 7.7 6.8 9.7 10.5 3.2 6 7.6 8.6 12.9 7.6 3.8-.8 6-2.2 7.5-5.2 1.9-3.6 1.4-5.1-3.3-10.2-7.5-8-9.5-15.8-5.2-19.9 2.7-2.5 7.8-4.8 14.1-6.2 4.9-1.1 21.5.7 33.1 3.5 7.9 1.9 22.8 1.9 29.3 0 8.7-2.6 11.8-9.2 6.5-13.5-2.5-2-3.6-2.2-10.5-1.6-6.8.5-8.9.2-17-2.4-5.1-1.7-13-3.8-17.6-4.7-10-2.1-10.3-3.5-1.8-7.8 7.6-3.9 10.2-7.1 8.5-10.8-2.1-4.7-6.4-5.2-17.8-2.3-12.7 3.3-26.2 3.6-31.9.7-3.3-1.7-14.2-12.1-14.2-13.6 0-.3 1.8-4 3.9-8.3l3.9-7.8 19.9-3.7c10.9-2.1 20.6-3.7 21.6-3.7 1.1 0 3.2.9 4.8 2.1 4.5 3.2 20.8 10.6 29.5 13.5 28 9.1 67.9 13.3 91.6 9.5 19-3 40.7-9.8 60.2-18.9l9.8-4.6 11 1.6c6 .8 11 1.7 11.2 1.9.2.2.6 2.6 1 5.4.5 4.8.4 5.2-3.2 9-8.5 9.2-10.3 10.2-19.4 11-7.1.6-9.5.4-15.2-1.4-12.5-3.9-19.6-2.3-19.6 4.1 0 2.4 4.8 7.8 6.9 7.8.5 0 2 .9 3.5 2.1 3.7 2.9 2 4.5-5.7 5.4-3.4.4-12 2.7-19.2 5.1-11.8 4-13.8 4.4-21.5 4.2-9.6-.2-12.6.9-13.6 4.9-.9 3.5 1.2 7.2 5.6 9.7 5.5 3.3 21.2 2.7 41.4-1.4 18.4-3.7 26.7-3.8 35.3-.1 7.6 3.3 9.7 6 8.9 11.1-.8 5.2-3.7 10.9-7.8 15.5-4 4.7-4.2 8.9-.4 12.2 3.2 2.8 9 3.1 12.5.7 1.3-.9 3.4-4.1 4.7-7 1.6-3.6 4.8-7.7 10-12.8 6.8-6.6 8.5-7.7 14.3-9.3 4.7-1.3 10.1-1.8 18.6-1.8 11.4 0 12.4.2 19.7 3.3 6.6 2.9 8.8 4.5 14.5 10.8 9.8 10.8 17.3 12.8 21.9 5.9 2.4-3.6.7-8.6-5-15.3-8.6-10.1-9.6-20.7-2.4-26.7 6-5.1 14.4-2.2 22.3 7.8 5 6.2 8.9 8.7 13.8 8.7 4.2 0 8.7-3.5 8.7-6.8 0-2.4-3.5-6.9-5.9-7.7-1.9-.6-6.6-10-7.7-15.3-.7-3.4-1.8-2.8 13.1-6.7 9.2-2.4 11-2.6 22.7-2 12.7.7 12.7.7 15.2-1.8 5.2-5.2 2.5-12.4-5.5-14.7-1.9-.6-12.2-1-22.9-1-10.7-.1-21.4-.5-23.7-.9-4.2-.8-9.9-3.8-9-4.7.3-.3 3.5-1.2 7.1-1.9 10.2-2.2 17.9-6.7 27.8-16.6 7.2-7.2 9.3-10.1 13.1-18 4.3-9 7.7-20.6 7.7-26.6 0-1.6 1.2-5.1 2.7-7.8 2.2-4.2 2.7-6.3 2.7-13 .1-7.2-.2-8.5-2.9-13-1.7-2.9-3.6-8.4-4.6-13-3.1-15.1-9.2-27.1-19.4-38.3-10.9-12-27.6-22.7-44.8-28.7-7.3-2.6-8.2-3.3-16.1-11.9-7.8-8.6-8.4-9.5-9.5-15.6-6.5-34.9-18.3-69.1-33.4-97-12.1-22.4-29.4-46-38.3-52.1-2.4-1.6-5-4.2-5.8-5.7-2.9-5.7-6.3-17.9-6.3-22.9-.1-10.2-9.3-21.3-20.8-24.9-5-1.6-19.7-2.7-24.5-1.8zm21.7 8.9c6.1 1.8 12.2 6.1 14.6 10.4l1.9 3.2-4.4-2.3c-3.5-1.9-5.9-2.3-12.9-2.3-7.8 0-9.1.3-16.1 3.7-6.3 3.2-9.2 5.5-18.1 14.9l-10.6 11.2-5.6-.5-5.6-.5 3.7 3.1c2 1.6 5.6 5.6 7.9 8.7l4.3 5.8.4-5.2c.3-2.9 1.2-6.8 2.1-8.7l1.5-3.5.1 6.2c.1 6.6 2.8 15.2 5.7 18.4 2.3 2.6 1 3.5-2.1 1.5-3.8-2.5-3-.3 1.2 3.4 8.5 7.5 22.9 11.5 32.3 9 6.6-1.7 13.5-6.5 17-11.7 3.3-5.1 3.8-5 1.6.1-1.9 4.6-8.2 11.4-12.7 13.6-9.1 4.7-20.6 4.5-29.6-.5-5.2-2.9-5.5-1.8-.8 2.4 5 4.3 9.3 5.9 20.9 7.6 13.4 2 18.4 3.8 25.6 9.1 3.3 2.4 6 4.1 6 3.8 0-.3-2.2-3.4-4.9-6.8-7.5-9.4-7.9-10.8-4.8-15.3 1.4-2.1 3.7-5.2 5.1-6.8l2.5-3 .1 3.6c0 2 .9 6.7 2.1 10.5 1.9 6 2.9 7.5 9.4 13.7 11 10.4 13.7 19.2 7.3 24-9.4 7-25.2 12-43.9 13.7-19.4 1.8-44.4-.7-87-8.6l-18.7-3.4-21.3 4.4c-37.5 7.8-59.4 10.3-80.3 9.2-20-1-33.2-4.2-36-8.7-1.6-2.8 1.3-7.7 7-12 6.9-5.3 10.3-12.9 10.4-23.2 0-2 .3-3.7.8-3.7.4.1 2.9 3 5.7 6.5 7.3 9.6 9.2 9.8 25.5 3.5 6.7-2.6 9.6-4.4 13.7-8.6 2.9-2.9 5.3-5.8 5.3-6.3 0-.6-2.4.2-5.2 1.8-16.4 9.2-33.2 7.3-42.4-4.8-4.8-6.2-4.2-7.5 1.1-2.5 5.9 5.7 15.9 9 24.3 7.9 8.3-1 15.4-4 20.6-8.7 5.2-4.5 5.4-5.8.7-3.4-4.4 2.3-4.4 2.1-.6-2.9 3.6-4.8 4.9-9.1 5-16.8 0-2.6.3-4.7.6-4.7 1.3 0 3.3 5.8 3.8 11.1l.6 5.6 9.5-9c5.2-4.9 8.5-8.4 7.3-7.8-1.2.6-4.1 1.1-6.4 1.1-5.4 0-10.3-3.3-16-10.6-6.4-8.3-17.1-17.8-23.5-21-7.3-3.6-19.7-4.6-25.7-2l-3.8 1.5 1.8-3c7.6-13 30.6-17.4 47.8-9.3 13.1 6.3 25.2 24.2 23.1 34.5-.6 3.1-.5 3.1 1.7 1.7 7.1-4.7 10.6-16.3 7.3-24.2-.9-2.1-1.6-4-1.6-4.2 0-.9 13.2-.3 21.1 1 9.9 1.6 12.5 2.7 15.6 6.4 1.7 2 2.6 2.4 3.6 1.7.8-.6 3.3-2.4 5.6-4.2 5.3-4 18.8-7.4 32.3-8.1l9.7-.5-1 3.7c-.9 3.3-.5 8.7.8 10.9.3.5 1.5-1.3 2.8-4 4-8.6 15.9-17.4 28.5-20.9 6.3-1.7 18.7-1.7 24.7.1zm3.8 21.4l4 1.8-4.6.7c-8.4 1.3-18.5 7-26.5 15l-7.4 7.4v-3.7c0-9 5.5-17.6 13.5-21.2 5.3-2.5 15.6-2.5 21 0zm-195 6.8c8.5 4.3 12.9 9.8 14.5 18.3 1.1 5.8.4 8.5-1.4 5.1-2-3.6-10.7-10.2-18.6-14-6.7-3.2-8.3-3.6-15.7-3.6-7.9 0-8.1-.1-6.5-1.9 5.5-6 19.4-8 27.7-3.9zm199 2.3c1.7.7 1.7.9.3.9-2.9.1-12.7 4.9-18.9 9.1-3.2 2.2-6.1 4-6.5 4-.7 0 2.7-5 7.3-10.8 3.4-4.1 3.5-4.2 9.6-4.1 3.4 0 7.1.4 8.2.9zm-205.4 12.7c9 9.6 9 9.7-.7 4.8-4.9-2.4-11.4-5.1-14.4-5.9-6.6-1.7-3.9-3.2 6-3.5 4.2-.1 4.9.3 9.1 4.6zm203.9 9.7c-3.9 6.5-5.1 7-12.5 5.6-3.6-.7-6.4-1.5-6.1-1.7.4-.5 18.4-7 19.8-7.2.4 0-.2 1.4-1.2 3.3zm-210 9.1c8.3 2.2 8.4 2.3 5.5 3.4-1.6.7-5.1 1.5-7.6 1.8-4.3.5-4.7.4-7.6-3.3-4.7-6.1-4.8-6.6-1.6-5.3 1.5.6 6.6 2.2 11.3 3.4zm186.9 1.9c7.5 2.2 16.9 2 23.3-.4 2.8-1.1 5.3-1.8 5.5-1.6.2.2-1.4 1.9-3.6 3.8-6.4 5.4-14.8 7.1-23.4 4.7-3.9-1.1-11-6.7-12.9-10.2-1-2-1-2 2.3.1 1.9 1.1 5.8 2.7 8.8 3.6zm56.5 1.3c3.9 7.9 6.2 23.2 3.6 24.8-5.4 3.4-12.7-14.5-10.6-25.9 1-5.3 3.9-4.9 7 1.1zM235 181.1c7.3 1.4 18.2.7 23.6-1.6l3.9-1.6-3.8 3.9c-3.8 3.9-11.3 7.2-16.1 7.2-6.8 0-19.1-6.2-21.6-10.9-1-2-1-2 3.4-.1 2.5 1 7.2 2.4 10.6 3.1zm-24.3 10.6c5.1 7.8-1.1 28.8-6.4 21.7-2.1-2.8-1.4-18.1 1-21.7 2.2-3.4 3.2-3.4 5.4 0zm291.7 11.8c4.8 7.9 5.1 8.6 3.9 8.4-2.2-.4-3.3.3-3.3 2 0 2.4 2.6 3.4 4.2 1.7 1-1.1 1.9-.3 4.5 4.5 3.2 5.7 7.4 15.1 8.7 19.6.6 1.8.4 2.2-.8 1.7-.9-.3-1.6-.2-1.6.2.1 1.6 3 4.8 3.7 4.1.4-.4 1.5 1.4 2.5 4 2 5.2 2.3 7.8.7 5-.5-.9-1.7-1.7-2.4-1.7-1.9 0-1.9.4 0 4 1.7 3.3 3.5 4 3.5 1.3 0-2.3.9-1.2 1.9 2.5.8 2.6.7 3-.7 2.4-1.5-.5-1.5-.3.1 2.1 1.7 2.7 3 9.7 1.7 9.7-.4 0-1.7-2.3-3-5.1-2.9-6-11.1-13.9-14.6-13.9-1.3 0-2.4.4-2.4 1 0 .5-.4 1-.8 1-1.2 0-3.4-7.4-2.3-7.8.5-.2.3-1.5-.5-3-2.2-4.2-1.8-6.9 1.1-7.6 1.4-.4 2.8-1.3 3.2-2.1.7-2-1.4-4.5-3.8-4.5-2 0-2.5-1.2-3.4-9.5-.6-5.4-3.8-21.4-5.1-25.8-1-3.4.5-1.6 5 5.8zm-301.5 14.3c.1 4.2-1.7 7.8-6.3 12.1-2.9 2.8-3.6 4.2-3.6 7.4 0 2.1.5 4.8 1.1 5.9.8 1.4.8 1.8 0 1.4-1.7-1.1-3.2-8.4-2.5-12.4 1-5.4 4.3-14.1 7.2-18.7 2.6-4 2.6-4 3.3-1.5.4 1.4.7 4 .8 5.8zM356 241.5c20.3 3.5 31.7 5.2 45 6.5 6.3.6 15.1 1.5 19.5 1.9 4.6.5-13.8.6-43 .3-38.7-.3-58.8 0-83.2 1.2-53.2 2.6-67.1 2.1-82.6-3-6.8-2.2-5.4-2.7 2.9-.8 9.8 2.1 37.1 2.9 54.9 1.5 15.5-1.2 37-4.5 56-8.6 6.1-1.3 12.1-2.1 13.5-1.9 1.4.2 9 1.5 17 2.9zm125.5 4.5c-14.2 14.5-43.1 18.8-103.5 15-26.2-1.6-53-.9-77.5 1.9-25.1 2.8-57.9 4.3-69.1 3.1-20.1-2.3-35.4-11.4-35.4-21.2v-2.9l5.7 4.1c3.2 2.3 8.6 4.9 12.3 6 12.7 3.7 38.6 4.9 62 2.9 6.3-.6 48.9-1.4 94.5-1.8 81.1-.8 83.2-.8 91.5-3 4.7-1.2 11.7-3.7 15.5-5.5 3.9-1.8 7.2-3.1 7.4-2.9.3.2-1.3 2.1-3.4 4.3zm-280.9 22.8c10.5 13.1 24.9 23.5 49.3 35.7 13 6.5 28 12.9 28.7 12.2.2-.2-2-1.7-4.8-3.2-11.8-6.4-31.4-20-47-32.7-10.7-8.7-12.4-10.5-8.7-9.4 6.8 2 29 5.6 40.6 6.6 13.3 1.1 26.3.6 55.8-2.1 6.6-.6 21.9-1.1 34-1.2l22-.1 18.6 11.1c33.4 19.9 35.2 21.5 8.7 7.8-18.3-9.4-29.8-14.8-29.8-14.1 0 .3 8.7 5.7 19.3 12.2 10.5 6.4 20 12.4 21 13.4 1 .9-7-2.8-17.8-8.2-10.7-5.4-19.5-9.6-19.5-9.3 0 .5 7.4 5.4 24 15.8l9.5 5.9 6.6-.6c33.8-3.1 63.2-15.4 81-33.7l6.7-6.8 4.6 5.6c2.6 3.1 4.5 5.7 4.3 5.9-.1.2-2.1-.3-4.2-1-5.4-1.8-11.2-2.8-10-1.8.6.5 7.1 5.4 14.5 10.9 27.4 20.5 49.9 43.5 58.4 60 3.8 7.2 6.4 21.3 7.4 39.6 1.5 26-.4 49.8-5.9 76.5-2.2 10.2-2.2 10.3-6 12.3-4.2 2.1-6.9 6.2-6.9 10.6 0 1.7-.8 3.3-2 4.1-1.1.7-2 2.3-2 3.7 0 2 .6 2.7 3 3.1 1.7.4 3 .8 3 1.1 0 .5-3.6 7.3-4.9 9.2-.8 1.2-1.2 1.2-2.5.2-2-1.7-6.6-1-8 1.1-1.4 2.3.3 4 3.8 4 2.3 0 2.5.3 1.4 1.7-3.7 4.7-9.3 8-13.6 8.1-1.8 0-4.6.9-6.1 2.1-4.2 3.1-14.6 3.8-20.8 1.4-6.3-2.4-13.5-9.4-16.4-15.8-2.2-4.7-2.4-6.5-2.3-19.7 0-21.9 5.4-47.9 15.5-74.8 8.5-22.6 19-41.4 30.5-54.1 2.5-2.8 4.1-5.1 3.6-5.1-1.8 0-12.7 8.7-18.4 14.7-6.7 7.2-13.6 17.5-18.5 28.1-2 4.2-3.8 7.9-4 8.1-.2.2-4.2-1.5-8.9-3.9-15.8-7.7-26.1-20.4-31.3-38l-1.9-6.5-.1 6.7-.1 6.8h-3.5c-1.9 0-6.9.5-11.1 1.1-10 1.5-7.8 2.8 6.1 3.6 5.8.3 10.5 1 10.5 1.5 0 2.2 5.7 15.1 10.8 24.1 5.4 9.7 5.5 9.9 5 16.5-.4 5.1-1.4 8.5-4.2 14-2 4-4.4 7.6-5.4 7.9-2.7 1.1-4.2 3-3.6 4.6.5 1.5-9.2 12.9-12.6 14.7-1.2.7-2.6.1-5.3-2.1-4.5-3.7-4.7-3.1-.7 1.5l3.1 3.4-3.2 2.3-3.1 2.2 1.1-2.1c1-1.9.9-2.2-.9-2.2-2.4 0-3.9 2.8-2 4 .9.5.6 1.2-1.1 2.4-3 2.1-3.6 2-4.4-.3-.4-1.3-1.7-2-4.1-2.3-2.6-.3-3.3-.1-2.9 1 .3.7.5 2.2.5 3.3 0 1.3.7 1.9 2.3 1.9 2 0 2 .2-.8 2-3.9 2.6-4.1 2.5-5.4-1-.6-2-1.7-3-3-3-1.1 0-3.8-2.1-6.2-4.8-3.9-4.3-3.6-3.1.8 3.3.7 1.1 1.3 3 1.3 4.2 0 1.8.7 2.5 3 2.9 1.7.4 3 1 3 1.4 0 1.1-6 3.1-7.1 2.4-1.4-.8-9.9-13.1-9.9-14.2 0-.6-.7-1.8-1.6-2.6-1.2-1.2-2-1.3-3.5-.6-3.6 2-1.3 5.8 2.6 4.4.8-.4 1.5-.2 1.5.3s1.8 4 4.1 7.7c2.2 3.7 3.9 6.9 3.7 7.2-.3.2-1.8.6-3.4 1-2.7.5-3.3-.1-9.5-8.3-3.6-4.9-7.2-9.9-7.8-11.2-.7-1.2-1.5-2-1.8-1.7-.3.3 1.6 4 4.2 8.2 3.8 6.1 4.5 7.8 3.4 8.5-.8.5-1.8.9-2.2.9-.5 0-.7.6-.5 1.2.3.7 2.1 1.5 4.2 1.8 4.3.6 4.7 2.2.9 3.2-3.4.9-4.2.2-10.9-9.9-5.3-7.9-8-11.1-6.8-8 .3.8.1 1.8-.5 2.2-2 1.2-1.2 3.5 1.2 3.5 1.8 0 3 1.2 5.1 5 1.5 2.7 3.1 5.2 3.6 5.5.6.4 1 1.3 1 2.1 0 1.1-.9 1.4-3.2 1.2-2.6-.2-3.7-1-5-3.6-.9-1.9-2.3-3.9-3.1-4.5-.8-.7-2.9-3.3-4.6-6-4-5.9-5.1-6.2-1.7-.3l2.5 4.3-2.3-.4c-1.3-.3-3 .2-4 1.2-2 2-2 2-7.7-6.8-4.5-6.8-4.7-5.8-.4 1.9 2 3.7 3.4 6.9 3.1 7.1-.3.3.3 1.3 1.3 2.2 1.1.9 2.7 2.8 3.6 4.3l1.7 2.8h-3c-2.7 0-3.5-.7-6.4-5.6-3.6-6-8.2-11.9-7.2-9.3.3 1.1-.2 1.8-1.5 2.2-1.2.3-2.1 1.2-2.1 2.1 0 1.5.5 1.8 4.3 2 .9.1 2.9 2 4.3 4.3l2.5 4.3h-4c-3.5 0-4.4-.5-7.3-4.3-1.9-2.3-4.2-5.4-5.1-6.9-1.6-2.6-1.6-2.7 1-3 3.1-.4 5.3-3.2 3.7-4.8-.6-.6-3.1-1.2-5.5-1.4-2.5-.1-5-.5-5.6-.9-1.3-.8-3.7 1.8-2.8 3.3.3.5 1.2 1 1.8 1 1 0 10.7 14 10.7 15.5 0 .3-1.1.5-2.4.5-3.2 0-6.9-4.6-6.2-7.6.4-1.5-.3-3.1-2.4-5.2-1.6-1.7-3.8-4.9-5-7.1-1.1-2.3-2.2-4.1-2.5-4.1-.7 0 1.6 6 2.6 6.6 2 1.2.7 2.4-2.5 2.4-4.1 0-5.7-1.8-13.1-14.8-2.6-4.5-4.9-8.2-5.2-8.2-.3 0 2.3 5.2 5.7 11.6 5.6 10.6 6 11.8 4.6 13.3-.9 1-1.6 2.3-1.6 3.1 0 1.8-2.5-.4-5.1-4.6-1.7-2.7-1.8-3.8-.9-4.9 1.6-1.9.5-3.3-4-5.1-3.2-1.3-5-3.3-10-11-3.3-5.2-6-9.8-6-10.2 0-.4 1-.8 2.1-.9 3.3-.3 4.5-1.9 2.9-3.9-1.1-1.2-2.4-1.4-5.2-1-2.4.4-3.8.2-3.8-.4 0-.7-.6-.7-2 0-2.4 1.3-1.6 3.4 1 2.7 1.1-.3 2.1.2 2.5 1.2.3.9 3.3 6.2 6.7 11.9 6.1 10.3 6.1 10.3 3.9 11.8-4.2 3-1.3 7.4 4.9 7.4 3.5 0 4.2.5 7 4.6 1.8 2.5 3 4.7 2.7 5-.8.8-5.8-1.6-5.2-2.5.9-1.5-1.4-2.4-2.9-1.2-.7.6-2 .9-2.8.6-1.7-.7-14.4-21.9-23.7-39.5-3.3-6.3-6.1-11.1-6.1-10.6 0 1.5 12.6 26.9 18.8 37.6 3.3 5.8 5.9 10.6 5.8 10.8-.2.1-2.4-.7-5-1.8-5.7-2.6-7.3-5-18.3-27-4.5-9.1-8.3-16.2-8.3-15.8 0 .3 1.6 4.4 3.5 8.9s3.4 8.3 3.2 8.4c-.1.1-1.7-.4-3.5-1.2-2.5-1-4-2.8-6.4-7.7-2.3-4.6-3.9-6.6-5.6-7.1-5.4-1.3-8.6 2.5-3.8 4.6 1.7.8 2.9.8 4.5 0 1.9-1.1 2.3-.7 4.6 4.1 2.9 6.1 2.9 5.8 1.1 5.8-.7 0-2 .7-2.7 1.6-1.1 1.4-1 1.9 1 3.5 1.3 1.1 3.6 1.9 5.2 1.9 1.8 0 3.4.8 4.4 2.2 1.5 2.2 1.4 2.3-.9 2.6-5.7.7-18.9-15-22.2-26.4l-1.6-5.5 4.5-10.2c5.2-11.7 6.7-16.6 6.7-22 0-2.1.4-4.6 1-5.6 1.8-3.4 10.5-6.2 22.4-7.1 6.1-.5 12.2-1.3 13.6-1.8 2.5-.9 2.5-.9-1-1.7-1.9-.5-9.6-.7-17-.7-12.6.2-13.9.4-19.1 2.9l-5.6 2.8-.6-8c-.3-4.4-1.5-10.7-2.6-14l-2.1-6 .5 6.1c.7 8.1-1 22.6-3.5 30-2.7 7.6-7.9 15.5-14.9 22.3-5.4 5.1-14.3 11.1-16.8 11.1-.6 0-4.1-5.5-7.8-12.3-7.9-14.5-17.9-28.7-26.4-37.7l-6.2-6.5 3.9 6c6.3 9.6 15 24.1 17.8 29.8l2.6 5.2-8.3-8.3c-4.5-4.5-8.6-8.2-9-8.2-.5 0 2.1 4.2 5.7 9.2 7.7 10.9 16.4 26 19.4 33.8 6.7 17.1 9.5 38.2 7.1 52.5-4.2 24.7-25.2 40.5-52.2 39.3-15.1-.7-23-5.9-26.5-17.3-3.9-13-4.6-22.9-4.1-53 .6-30.2 1.4-40.9 4.8-61 3.2-19.5 7.7-31 16.9-43.5 5.3-7 23.3-25.2 37.3-37.5 4.8-4.2 8.7-7.8 8.7-8.1 0-.7-11.4 4.6-15.2 7.2-2.1 1.3-3.8 2.2-3.8 1.8 0-.3 2.5-3.9 5.6-8 3.4-4.5 8.8-10 13.5-13.6 4.4-3.4 7.8-6.2 7.7-6.3-1.2-1-14 2.1-18.8 4.5-3.3 1.7-6 2.8-6 2.5 0-.3.7-1.7 1.6-3 1-1.5 1.4-3.6 1.1-5.1-.4-2.5 2.4-15 5.9-25.6l1.6-4.8 3.3 2.6c1.9 1.4 5.1 4.6 7.1 7.2zm314.8-4.8c.6 0 1.7-.5 2.2-1 .7-.7 1.7 1.1 3.2 5.2 1.1 3.4 2 6.4 1.8 6.6-.6.6-14.6-13.5-14.6-14.7 0-.7 1.4-.1 3.1 1.3 1.7 1.4 3.6 2.6 4.3 2.6zm-117.5 19.9c8.6 4.8 17.1 9.6 18.9 10.5 1.9 1 3.2 2 2.9 2.2-.2.3-10.5-4.5-22.7-10.6-19.3-9.5-21.8-11-18.5-11 2.9 0 7.3 2 19.4 8.9zm12.8-.2c22.1 12.3 20.7 12.7-2.7.7-11.6-6-15.4-8.3-12.8-7.9 2 .3 9 3.5 15.5 7.2zm-259.8 54.5c-.7 1.3-3.1 4.5-5.4 7.3-5.7 6.8-9.8 13.1-12.3 18.8-1.3 2.8-2.6 4.6-3.2 4.2-1.5-.9-4 1.3-4 3.6 0 1 .6 2.2 1.4 2.6 1.2.7.8 3.3-2 15.8-6.7 29.5-12.7 53-13.7 54.4-.9 1-3 1.2-8.8.8-14.5-1-25.7-8.6-31.7-21.5-2.3-5-2.7-6.9-2.6-15.2 0-10.8 1.9-16.8 8.3-26.6 12-18.7 36.3-35.6 62.1-43.4 12.1-3.7 13.5-3.8 11.9-.8zm433.6 9.9c13 4.8 26.1 16.1 35.4 30.4 8.5 13 11.1 25.2 9.6 44.8-.6 9.2-.8 9.7-3.3 10.9-3.1 1.5-4.1 5.8-1.8 7.7 1.3 1.1 1.3 1.8-.1 6.4-.8 2.9-2.3 6.1-3.3 7.2-1 1.1-2 2.8-2.2 3.9-.2 1.1-1.7 2.3-3.8 3-3.9 1.2-4.9 3.6-3 7.1 1.1 2 .9 2.8-1.6 6-1.6 2-4.1 4.3-5.6 5.1-2.9 1.5-8.2 1.9-7.4.5.3-.4 0-2.1-.6-3.8-1.4-3.8-.3-8.7 1.8-7.9 2.7 1 5.6-1.3 5.2-4.2-.3-2.3-.7-2.7-3.2-2.5-2.6.2-2.8 0-2.2-2.5 2.8-12.8 3.1-45.6.6-61-2.7-16.3-11.5-39.4-18.5-48.6-1.9-2.5-3.1-4.6-2.5-4.6.5 0 3.4.9 6.5 2.1zM70.2 435.7c7.9 10.5 22.2 20.5 34.8 24.4l5.5 1.7.8 9.8c.4 5.5.8 11.5.8 13.4.1 1.9.6 4.1 1.1 4.8 2.4 2.9-.7 2.3-8.4-1.6-4.6-2.3-10.9-6.2-14-8.6C84 474.2 77 465.7 77 462.8c0-1.1-.8-2.2-1.9-2.5-2.3-.6-6.4-9.4-8.5-18.3-1.5-6.4-2.1-12-1.1-12 .2 0 2.4 2.6 4.7 5.7zm213.7 35.5c.1.4-1.5-.2-3.4-1.3-3.2-1.9-3.3-2.2-1.9-3.7 1.5-1.5 1.4-1.8-.8-3.6-3.4-2.8-5.1-6.2-4.2-8.8.6-1.9 1.5-.6 5.5 7.2 2.6 5.2 4.8 9.8 4.8 10.2zm93.1 15.6c2.3 2.8 1.4 4.2-2.7 4.2-1.9 0-8.3-6.2-8.3-8.1 0-.3 1.3-.4 3-.1 2.2.3 3.2 0 3.7-1.3.6-1.6.7-1.6 1.5.4.4 1.3 1.7 3.5 2.8 4.9zm-53.5-2.7l4 1.9-3.5-.5c-1.9-.3-4.1-1.2-5-2-1.9-2-.4-1.8 4.5.6zm12.5 3c0 1-3.1 1.2-5.4.3-2.3-.9-2-2.2.7-2.6 2.3-.4 4.7.8 4.7 2.3zm154.1 33.8c13 10.1 36.5 13 53.3 6.5 1.7-.7 1.9-.4 1.2 3.2-1.7 9.7-2.3 22.9-1.4 32.2.3 3.5 1 4.6 3.5 6.2 1.7 1 4.9 4.9 7.2 8.7 2.4 4.1 5.6 7.9 8.1 9.6 4.2 2.9 5.3 5.7 2.3 5.7-3.1 0-8.1-3.7-15.4-11.4-4.7-4.9-9-8.4-12.5-10-3.7-1.8-5.8-3.5-6.5-5.3-.6-1.6-2-4.7-3-7.1-2.3-5.1-2.4-9.6-.4-18.1.9-3.5 1.4-6.6 1.1-6.8-.8-.9-5.7 8.5-9.7 18.7-2.2 5.8-4.6 11.1-5.3 11.7-.6.7-6.3 2.2-12.6 3.3-10.8 1.9-11.7 2.2-14 5.3-1.3 1.7-5.2 5.9-8.7 9.2-3.9 3.7-7.6 8.5-9.7 12.5-3.3 6.4-5.7 8.3-7.9 6.1-.7-.7-.6-1.6.6-2.9 1-1 3.1-4.7 4.8-8.2 1.7-3.5 4.5-8.4 6.2-10.9 1.7-2.6 3.3-6.1 3.4-7.9.1-1.8 1.2-4.6 2.3-6.3 2.2-3 9.9-9.1 15.5-12.3 2.6-1.5 2.7-1.6.5-1-1.4.4-6.3 1.8-10.9 3-4.7 1.3-8.6 2.2-8.9 2-.4-.4 2.7-3.3 10.8-10.3 1.9-1.7 6.2-4.9 9.5-7.3 3.6-2.5 5-3.9 3.5-3.5-3.9 1.1-14.6 7.1-20.4 11.5-2.8 2.2-7.4 4.9-10.1 6.1-4.5 2-5.8 2.1-18.4 1.4-13-.6-13.8-.6-16.4 1.5-1.5 1.2-7.9 3.5-14.4 5.2-9.7 2.5-13.7 3-22.3 3-10.4-.1-16-1.2-16-3.2 0-.8 2.6-.9 8.3-.5 8.6.7 9.2.6 24.3-4.9 3.9-1.4 10.2-3 14-3.5 8.1-1.2 20.5-5.2 28.4-9.1 6.6-3.3 19.4-12.4 26.9-19.1 3-2.7 5.8-4.9 6.2-4.9.3 0 1.7.8 3 1.9zm-388.6 1.2c.5.5 2.1.9 3.6.9 4.5 0 4.1 2.4-.7 4.4-4.4 1.8-4.5 1.8-16.7-.9-10.9-2.5-13.4-2.7-23.4-2.1-9.7.6-11.3.5-11.3-.8 0-.9 1-1.8 2.3-2 1.2-.3 3.1-.7 4.2-1 3.4-.8 40.9.5 42 1.5zm539.3 0c1.2.5 2.2 1.5 2.2 2.4 0 1.3-1.6 1.4-11.8.9-10-.6-13.2-.4-22 1.6-5.7 1.2-11.8 2-13.5 1.6-7.5-1.3-9.8-1.9-10.4-2.9-.4-.6 0-.8 1-.4 1.1.4 2 0 2.6-1.2.8-1.4 2.4-1.8 7.3-2 3.5-.1 9.9-.6 14.3-1 8.7-1 26.6-.4 30.3 1zm-198.1 10.1l11.3 3.1-3.1 1.9-3.1 1.9-7.2-3.4c-3.9-1.9-7.9-3.7-8.8-4-1.8-.6-2.5-2.7-1-2.7.4 0 5.8 1.4 11.9 3.2zm-323.3 1.9c1.2 5.9.7 7.4-2.6 9.3-1.8 1.1-7.6 6.1-12.9 11.2-6.1 5.9-10.4 9.4-11.8 9.4-2.9 0-2.6-1.2.8-3.8 1.6-1.2 5-5.6 7.6-9.9 4-6.6 15.6-19.2 17.6-19.3.4 0 .9 1.4 1.3 3.1zm84.3-1.9c.4.7.6 2.1.5 3.1-.4 2.2 2.5 3.3 5 1.8 1.6-1 3.1-.4 10.3 3.9 17.4 10.5 38.7 19 47.6 19 1.5 0 7.4 1.6 13 3.5 8.9 3 11.6 3.5 19.6 3.5 5.1 0 9.3.4 9.3.9 0 1.5-8.5 3.1-16 3.1-9.2 0-27.7-3.6-31.2-6.1-5-3.5-7.2-3.8-17-2.7-7.9.9-10.4.8-15.7-.6-6.1-1.6-8.2-2.8-26.1-15.2-11.1-7.8-10.9-7 1.8 5.1 6.7 6.4 12.2 12 12.2 12.5 0 .7-15.2-2.8-19.2-4.5-3.3-1.3-1.8.2 3.7 3.9 8.2 5.4 13.3 10.9 14.1 15.1.7 4 11.8 21.3 15.6 24.5 2 1.7 2.1 2.1.8 3-3.6 2.4-5.4 1.3-10.7-6.5-2.2-3.3-6.2-7.5-8.9-9.4-2.7-1.9-6.3-4.7-8.1-6.4-3-2.8-3.7-3-17.6-4.1-8.4-.7-15.1-1.7-16-2.4-1.9-1.6-3.2-7.1-4.7-19.2-1.8-15-2.2-15.5-3.6-4.8-2.5 18.8-4.5 22.2-15.2 26.1-3.7 1.4-8.3 2.8-10.2 3.1-2 .3-6.5 2.3-10.2 4.5-7.8 4.5-21 9.2-22.8 8.1-2.3-1.4-.2-3.9 3.7-4.5 6.5-1 10.5-3 18.7-8.9 4.4-3.1 9.8-6.2 12.1-6.8 4-1.1 4.1-1.3 3.2-3.7-.7-2-.4-5 1.2-11.9 1.2-5.1 2.5-12.3 2.8-15.8.6-6.5.6-6.6 3.2-5.9 1.4.4 7.9.9 14.3 1.2 13 .6 21.8-.9 31.8-5.2 6.5-2.7 7.6-2.9 8.7-1.3zm372.3 1.3c.7 1.7 1.7 2.5 3.4 2.5 3.9 0 7.7 4.1 13.1 14 2.7 5.1 6 9.9 7.2 10.7 2.9 1.9 2.9 3.3.2 3.3-1.4 0-5.9-3.6-12.3-9.9-5.6-5.4-11.6-10.6-13.3-11.5-3.6-1.8-3.9-3.2-2.1-8.3 1.4-3.9 2.5-4.2 3.8-.8zm-317.9 8.6c-10.1 4.9-10.6 5.1-14.3 3.8-4.2-1.4-5-2.9-1.5-3 1.2 0 6.3-1.3 11.2-2.9 5-1.6 10.4-2.9 12-2.9 2.3 0 .7 1.1-7.4 5z"></path><path d="M424.5 109c-.3.5.1 1 .9 1 .9 0 1.6-.5 1.6-1 0-.6-.4-1-.9-1-.6 0-1.3.4-1.6 1zM418.5 110.1c-1 1.5.1 2.3 2 1.5.9-.3 1.3-1 1-1.6-.8-1.3-2.2-1.3-3 .1zM412 114.1c0 .5.5.7 1 .4.6-.3 1-.8 1-1.1 0-.2-.4-.4-1-.4-.5 0-1 .5-1 1.1zM256.5 115c-.3.5-.1 1 .4 1 .6 0 1.1-.5 1.1-1 0-.6-.2-1-.4-1-.3 0-.8.4-1.1 1zM408.5 115.9c-.6 1.1.9 2.3 1.9 1.4.9-.9.7-2.3-.3-2.3-.6 0-1.2.4-1.6.9zM263 121.4c0 1.4 2.9 3.1 3.8 2.1.6-.6-1.8-3.5-2.9-3.5-.5 0-.9.6-.9 1.4zM303.6 127.6c-1 2.6-.7 3.4 1.2 3.4 2.6 0 3.3-1 2.1-3.1-1.2-2.3-2.5-2.4-3.3-.3zM268 130c0 .5.7 1 1.6 1 .8 0 1.2-.5.9-1-.3-.6-1-1-1.6-1-.5 0-.9.4-.9 1zM311 131c0 .5.5 1 1 1 .6 0 1-.5 1-1 0-.6-.4-1-1-1-.5 0-1 .4-1 1zM271.2 133.2c.6 1.8 2.8 2.1 2.8.4 0-.9-.7-1.6-1.6-1.6-.9 0-1.4.5-1.2 1.2zM325 135c0 .5.5 1 1 1 .6 0 1-.5 1-1 0-.6-.4-1-1-1-.5 0-1 .4-1 1zM311 138c0 .5.5 1 1 1 .6 0 1-.5 1-1 0-.6-.4-1-1-1-.5 0-1 .4-1 1zM322.5 142c.4.6 1.1.8 1.6.5 1.4-.9 1.1-1.5-.7-1.5-.8 0-1.2.5-.9 1zM338 142c0 .5.5 1 1.1 1 .5 0 .7-.5.4-1-.3-.6-.8-1-1.1-1-.2 0-.4.4-.4 1zM369.5 165.4c-9.7 4.5-16.6 15.1-15 22.9.6 2.8 5.1 11.7 5.9 11.7.1 0 .1-2.4-.2-5.3-.5-6.8 2.1-10 9.7-11.6 2.9-.6 6.1-1.6 7.2-2.1 2.3-1.3 2.5-4.9.4-7.6-2-2.6-1.9-4.7.6-7.8l2-2.6h-2.8c-1.5 0-5 1.1-7.8 2.4zm3.3 11.3c.2.8-.5 1.3-1.7 1.3s-2.1-.6-2.1-1.6c0-1.8 3.1-1.5 3.8.3zM298.7 169.6c1.6 2.5 1.6 2.8 0 5.6-3.3 5.8-2 8 5.7 9.8 2.6.6 6 1.7 7.6 2.5 3.2 1.7 5.4 6.4 4.5 9.7-.5 2.1-.4 2 1.9-.7 4.8-5.6 2.8-15.1-4.6-22.5-3.8-3.8-10.1-6.9-14.1-7-2.7 0-2.7 0-1 2.6zm9 9c.5 1.5-2 2.4-3.7 1.4-.7-.4-.9-1.3-.5-1.9.8-1.4 3.7-1.1 4.2.5zM406.2 205.7c.4 2.1 3.3 2.5 3.3.3 0-.8-.8-1.6-1.8-1.8-1.4-.3-1.8.1-1.5 1.5zM390.3 209.7c-2.1.7-1.5 3.3.7 3.3 1.1 0 2-.6 2-1.4 0-1.8-1.1-2.5-2.7-1.9zM440 211c0 .5.5 1 1 1 .6 0 1-.5 1-1 0-.6-.4-1-1-1-.5 0-1 .4-1 1zM417 212c0 .5.9 1 2 1s2-.5 2-1c0-.6-.9-1-2-1s-2 .4-2 1zM409.6 212.9c-.4.5-.2 1.2.3 1.5.5.4 1.2.2 1.5-.3.4-.5.2-1.2-.3-1.5-.5-.4-1.2-.2-1.5.3zM399.4 216.1c-1 1.7 1.3 3.6 2.7 2.2 1.2-1.2.4-3.3-1.1-3.3-.5 0-1.2.5-1.6 1.1zM446 219c0 .5.5 1 1 1 .6 0 1-.5 1-1 0-.6-.4-1-1-1-.5 0-1 .4-1 1zM276.5 220c-.8 1.3.4 3.2 1.6 2.5 1.2-.8 1.2-3.5 0-3.5-.6 0-1.3.4-1.6 1zM432.1 223c-1.6.9-.6 3 1.5 3 1.5 0 2-2.5.6-3.4-.4-.2-1.4-.1-2.1.4zM234 224.5c0 .8.7 1.5 1.5 1.5s1.5-.7 1.5-1.5-.7-1.5-1.5-1.5-1.5.7-1.5 1.5zM461 224c0 .5.5 1 1 1 .6 0 1-.5 1-1 0-.6-.4-1-1-1-.5 0-1 .4-1 1zM257 225.5c0 .9.5 1.5 1.1 1.3.6-.2 1.1-.8 1.1-1.3s-.5-1.1-1.1-1.3c-.6-.2-1.1.4-1.1 1.3zM441 225c0 .5.5 1 1 1 .6 0 1-.5 1-1 0-.6-.4-1-1-1-.5 0-1 .4-1 1zM419.7 225.6c-.9 1 .2 2.4 1.9 2.4.8 0 1.4-.7 1.4-1.5 0-1.5-2.1-2.1-3.3-.9zM263.6 227.7c-1.2 1.2-.6 3.3.9 3.3.8 0 1.5-.6 1.5-1.4 0-1.7-1.4-2.8-2.4-1.9zM441.6 228.7c-1.1 1.1-.6 2.3.9 2.3.8 0 1.5-.4 1.5-.9 0-1.3-1.6-2.2-2.4-1.4zM452.5 231c.3.5.8 1 1.1 1 .2 0 .4-.5.4-1 0-.6-.5-1-1.1-1-.5 0-.7.4-.4 1zM505 225.6c0 1.8 2.4 4.4 4 4.4 3.1 0 2.4-2.7-1-3.9-1.6-.5-3-.8-3-.5zM513 233.3c0 2.2 2.6 5.1 3.9 4.3.7-.5.8-1.3.1-2.5-1.2-2.3-4-3.5-4-1.8zM507.9 244.6c-1.1 1.4-1 1.8.6 3 2.3 1.7 3.9 1.4 4.3-.9.5-2.4-3.3-4-4.9-2.1zM515 246.3c0 1.9 2.1 3.7 4.2 3.7s2.4-2 .6-3.8c-1.6-1.6-4.8-1.5-4.8.1zM196.7 278.6c-.9 1 .4 3.4 1.9 3.4.8 0 1.4-.9 1.4-2 0-1.9-1.9-2.7-3.3-1.4zM305.1 289.2c2.1 1.8 7.3 2.4 10.3 1.2 3.4-1.3 1.3-2.2-5.5-2.6-6.8-.3-7-.3-4.8 1.4zM372.5 294.8c2.7 2.8 22.3 14.2 24.5 14.2 1.4 0 2-.4 1.5-.8-1.6-1.4-27.1-14.5-26-13.4zM497.7 297.4c-.3.8.1 2 .9 2.7 1.2 1 1.8.9 3.1-.3.8-.9 1.2-2.1.9-2.7-1-1.6-4.3-1.4-4.9.3zM208.7 301.7c-1.2 1.1-.8 2.3.8 2.3.8 0 1.5-.7 1.5-1.5 0-1.6-1.2-2-2.3-.8zM324.1 305.3c3.1 2.5 6.5 3.1 9.9 1.7 6.2-2.6 5.2-3.5-3.6-3.5-8.3 0-8.4 0-6.3 1.8zM377 303.4c0 .7 7.2 4.7 7.7 4.2.3-.2-1.3-1.4-3.6-2.6-2.3-1.1-4.1-1.9-4.1-1.6zM509.9 308.9c-2.1 1.6-2.2 2.2-1.1 4.5.8 1.7 1.9 2.6 3.6 2.6 4.7 0 6.1-5 2-7.7-1.9-1.2-2.4-1.1-4.5.6zM479 311.6c-1.1 1.2-1 1.8.4 3.2 1.6 1.6 1.8 1.6 3.1-.2 1.1-1.4 1.2-2.3.4-3.3-1.5-1.7-2.4-1.6-3.9.3zM234.3 316.7c-1.6.6-1.7 3.9-.3 4.8 1.3.8 4-1.3 4-3 0-1.5-1.9-2.4-3.7-1.8zM530.5 324.1c-1 1.5.3 2.5 1.6 1.2.7-.7.7-1.3.1-1.7-.6-.3-1.4-.1-1.7.5zM469.2 326.1c.2.6.8 1 1.3 1s1.1-.4 1.3-1c.2-.6-.4-1.1-1.3-1.1s-1.5.5-1.3 1.1zM486.1 328.5c-6 6.9-3 17.5 5 17.5 9.7 0 15.2-11.8 8.7-18.7-1.6-1.7-3.3-2.3-6.4-2.3-3.6 0-4.7.5-7.3 3.5zM204.9 328.7c-6.3 5.3-7.2 13.1-2.1 18.5 5 5.4 15.1 2.7 18.7-4.8 5.3-11.2-7.2-21.5-16.6-13.7zM249.7 330.4c-.7 1.9 1.8 4 3.9 3.2.8-.3 1.4-1.4 1.2-2.3-.4-2.2-4.3-2.9-5.1-.9zM182.5 333c-.7 1.2.2 3 1.6 3 .5 0 .9-.9.9-2 0-2.1-1.5-2.7-2.5-1zM536.7 334.1c-2.9 1.7-4.9 7.3-3.7 10.4 2.1 5.4 9.8 5.8 12.5.5 2-3.9 1.9-6.2-.6-9.4-2.1-2.7-5.1-3.3-8.2-1.5zM456.4 335.4c-1 2.6.4 4.8 2.8 4.4 1.7-.2 2.3-1 2.3-2.8 0-1.8-.6-2.6-2.3-2.8-1.3-.2-2.5.3-2.8 1.2zM242.5 340c-.3.5-.1 1 .4 1 .6 0 1.1-.5 1.1-1 0-.6-.2-1-.4-1-.3 0-.8.4-1.1 1zM347.1 341.2c2.7 2.3 6.8 2.3 9.7 0 2.1-1.7 2-1.7-4.8-1.7-6.9 0-7 0-4.9 1.7zM518.4 342.5c-.4.9-.2 2.1.4 2.7 1.5 1.5 4.4.1 4-1.9-.4-2.3-3.6-2.9-4.4-.8zM173.7 345.8c-2.2 2.4-2.1 5.5.1 7.5 2.4 2.2 4.5 2.1 6.5-.1 2.1-2.3 2.2-5.6.1-7.6-2.1-2.1-4.7-2-6.7.2zM467.6 349.7c-1.1 1.1-.6 2.3.9 2.3.8 0 1.5-.4 1.5-.9 0-1.3-1.6-2.2-2.4-1.4zM506.4 354.4c-1.1 2.8.1 5.1 2.5 5.1 2.8 0 4.7-2.5 3.8-4.9-.8-2-5.6-2.1-6.3-.2zM560.5 356c-.8 2.6.6 4.3 3.1 3.8 1.3-.2 1.9-1.2 1.9-2.8 0-3.4-4-4.1-5-1zM230.4 358.4c-.3.8-.4 2.5-.2 3.8.2 1.8.9 2.3 3.2 2.3 3.6 0 5.6-2.7 4-5.3-1.4-2.2-6.2-2.8-7-.8zM471.6 363.6c-1.9 1.8-2 2.8-.6 5.5 1.9 3.5 8 1.8 8-2.2 0-2.1-2.6-4.9-4.5-4.9-.7 0-2.1.7-2.9 1.6zM536 366.9c-1.2 2.3-.5 4.7 1.6 5.5 2.1.8 4.2-.3 4.9-2.5 1.4-4.2-4.4-6.8-6.5-3zM554.2 367.2c-1.9 1.9-1.5 6.6.7 7.8 1.1.5 2.4 1 3 1 1.8 0 4.1-3.1 4.1-5.5 0-3.7-5.2-5.9-7.8-3.3zM493 372c-1.1 1.1-2 2.6-2 3.3 0 2.4 3.1 5.7 5.5 5.7 5.2 0 7.4-6.5 3.3-9.4-3-2.1-4.4-2-6.8.4zM189 374.5c-1.5 1.9-.4 5.2 2.1 6 3.8 1.2 6.5-3.5 3.7-6.3-1.6-1.6-4.3-1.5-5.8.3zM389.5 379.6c-4.4.8-9.5 1.6-11.2 1.9-4.7.8-4 2.5 1 2.5 4.8 0 17.3-3.2 19-4.9 1.3-1.3 1.6-1.3-8.8.5zM144.4 380.4c-.9 2.4.4 4.8 2.3 4.4 1.2-.2 1.8-1.2 1.8-2.8 0-2.9-3.2-4.1-4.1-1.6zM206 379.7c-4.1 1.5-5.4 7.8-2.2 10.6 2.5 2.3 5.8 2.1 8.2-.3 4.7-4.7.2-12.5-6-10.3zM328 388.1c8.3 4 14.6 4.3 21.3.9 5.6-2.8 6.1-4.2 1-2.8-3.5 1-20.2.5-26.3-.7-1.4-.3.4.9 4 2.6zM565.4 386.1c-.3.6-.1 1.6.5 2.2.9.9 1.4.8 2.1-.3.9-1.5.4-3-1-3-.5 0-1.2.5-1.6 1.1zM154.1 389.6c-2.4 3-2.6 4.6-1 7.7 1.6 2.9 2.8 3.7 6.2 3.7 5.6 0 8.6-6.8 5.1-11.8-2.2-3.2-7.6-3-10.3.4zM172.5 388.4c-1.6 1.2-1.8 1.8-.9 3.3 1.4 2.3 3.4 2.3 4.8.1.8-1.4.7-2.1-.5-3.3-1.3-1.3-1.7-1.3-3.4-.1zM530.5 390.5c-5 4.9-1.8 13.5 4.9 13.5 3.9 0 7.6-4.1 7.6-8.5 0-7-7.5-10.1-12.5-5zM224.5 390c-1.1 1.7.5 3.2 2.1 1.9.7-.6 1.1-1.5.8-2-.7-1.2-2.1-1.1-2.9.1zM559.7 405.8c-3.8 3.9-4.5 8.4-1.8 11.1 2.6 2.6 3.7 2.6 7.7.2 4.3-2.6 6.2-8.2 4-11.6-2.3-3.4-6.5-3.3-9.9.3zM139 406.1c-1 1.7-.9 2.4.4 3.7 1.2 1.3 1.8 1.3 3.1.2 2-1.7 1.6-5.4-.7-5.8-.9-.2-2.2.6-2.8 1.9zM513.2 412.3c-5.8 6.2 1.3 14.1 7.9 8.9 2.5-2.1 3-7.1.9-9.6-1.9-2.3-6.3-2-8.8.7zM274.3 412.2c.2.7 1 1.3 1.7 1.3s1.5-.6 1.8-1.3c.2-.7-.5-1.2-1.8-1.2s-2 .5-1.7 1.2zM459.5 412c-1.1 1.7.5 3.2 2.1 1.9.7-.6 1.1-1.5.8-2-.7-1.2-2.1-1.1-2.9.1zM155.5 414.7c-1.8 1.8-1.6 3.2.8 4.7 2.1 1.3 5.1-1.3 4.2-3.6-1-2.4-3.2-2.9-5-1.1zM542 419.5c-1.4 1.6-.5 3.5 1.6 3.5 1.5 0 2-3.5.5-4.4-.5-.3-1.4.1-2.1.9zM279.3 421.7c-2.2.8-1.4 3.9 1.2 5.1 2.6 1.2 6.7.3 7.9-1.7 1.4-2.3-5.5-4.9-9.1-3.4zM173.6 423.9c-3.2 3.6.3 8.3 4.5 6.1 2.1-1.2 2.5-5 .7-6.8-1.7-1.7-3.2-1.5-5.2.7zM452.4 425.4c-1.1 2.8.4 4.8 3.3 4.4 2.2-.2 2.8-.8 2.8-2.8 0-2-.6-2.6-2.8-2.8-1.8-.2-2.9.2-3.3 1.2zM250.7 427.5c-.4.8-.3 1.6.1 1.9 1.3.8 3.5-1.1 2.8-2.3-1-1.5-2.3-1.4-2.9.4zM262.3 427.6c-.4 1.1.1 2.2 1.2 3 2.4 1.8 3.6 1.8 6 0 1.6-1.2 1.7-1.6.6-3-1.8-2.1-7-2.1-7.8 0zM132.3 430.6c-.7 1.9 1.1 3.9 2.6 3 1.6-1 1.3-3.3-.4-4-.9-.3-1.8.1-2.2 1zM144.5 432c-3.7 4.1 2.4 9.7 6.3 5.8 1.8-1.8 1.4-5.6-.7-6.8-2.7-1.4-3.5-1.3-5.6 1zM258.6 432.3c.3 1 .9 1.5 1.2 1.2.3-.3 0-1.1-.7-1.8-1-.9-1.1-.8-.5.6zM313.2 433.2c.2 1.5 1 2.3 2.3 2.3 3 0 2.7-3.9-.3-4.3-2-.3-2.3 0-2 2zM557.5 432.2c-4.4 2.5-4.9 7.8-.9 10.5 2.4 1.5 2.9 1.5 5.3.2 1.4-.8 3-2.7 3.6-4.3.8-2.5.6-3.1-1.8-5.2-3.2-2.7-3.4-2.8-6.2-1.2zM507.4 434.5c-.8 2.1.2 4.5 1.9 4.5 2 0 4-2.7 3.3-4.5-.7-1.9-4.5-2-5.2 0zM533.1 436c-1.9 1.1-.9 4.5 1.4 4.5 1.3 0 2.1-.8 2.3-2.1.3-2.3-1.7-3.7-3.7-2.4zM196.7 438.7c-1.2 1.1-.8 5 .7 6.2 3 2.5 7.1-2.4 4.6-5.4-1.3-1.6-4.2-2-5.3-.8zM167.2 441.6c-4.2 2.9-1.8 10.4 3.5 10.4 4.9 0 7.2-7.6 3.1-10.4-1.2-.9-2.7-1.6-3.3-1.6-.6 0-2.1.7-3.3 1.6zM315 441.6c0 .8.5 1.2 1 .9.6-.3 1-1 1-1.6 0-.5-.4-.9-1-.9-.5 0-1 .7-1 1.6zM448 441.5c-1.4 1.7-.5 3.5 1.9 3.5 2.6 0 4.4-2.3 2.9-3.8-1.6-1.6-3.3-1.5-4.8.3zM540.5 446.5c-5.7 5.6-1.4 14.3 5.6 11.5 3.4-1.5 6.3-6.2 5.4-9-1.7-5.3-7-6.6-11-2.5zM521.5 446c-.3.5-.1 1 .4 1 .6 0 1.1-.5 1.1-1 0-.6-.2-1-.4-1-.3 0-.8.4-1.1 1zM334.3 447.6c-.6 1.7 1.4 3.6 3.2 3.1.6-.2 1.1-1.3 1.3-2.5.3-1.7-.2-2.2-1.8-2.2-1.1 0-2.3.7-2.7 1.6zM504 447.5c-2.6 3.2 1.3 8.1 4.8 5.9 3.4-2.2 2.2-7.4-1.8-7.4-1 0-2.3.7-3 1.5zM437.5 450c-.3.5-.1 1 .4 1 .6 0 1.1-.5 1.1-1 0-.6-.2-1-.4-1-.3 0-.8.4-1.1 1zM408 451.5c0 .8.7 1.5 1.5 1.5s1.5-.7 1.5-1.5-.7-1.5-1.5-1.5-1.5.7-1.5 1.5zM446 454.5c-.7.9-1 1.8-.7 2.1 1 1 4.7-.7 4.7-2.2 0-1.9-2.4-1.8-4 .1zM184.5 456.6c-2.6 2.6-1.6 8.5 1.7 10.3 2.5 1.4 2.9 1.4 5.5-.5 3.4-2.5 4.2-6.8 1.7-9.5-2.1-2.3-6.7-2.5-8.9-.3zM421.5 455.9c-.8 1.5.3 3.1 2.1 3.1.9 0 1.4-.7 1.2-1.7-.4-2-2.4-2.8-3.3-1.4zM561.6 456.6c-.4 1-.2 2.2.3 2.7 1.4 1.4 4.3 0 3.9-2-.4-2.4-3.4-2.8-4.2-.7zM381.2 458.2c.5 1.5 2.8 1.8 2.9.3 0-.6-.7-1.2-1.7-1.3-1-.3-1.5.1-1.2 1zM429 458.4c0 1 .9 1.6 2.1 1.6 2.4 0 2.1-2.3-.4-2.8-1-.2-1.7.3-1.7 1.2zM139 461c-1.7 1.7-1.8 2.4-1 4.1 1.7 3.1 4.1 3.5 6.1 1 3.4-4.2-1.4-8.8-5.1-5.1zM305.6 459.9c-.4.5-.2 1.2.3 1.5.5.4 1.2.2 1.5-.3.4-.5.2-1.2-.3-1.5-.5-.4-1.2-.2-1.5.3zM352 461c-1.2.7-1.3 1.3-.4 2.7 1.2 1.9 4 1.9 6.2 0 1.1-.9 1.1-1.3-.4-2.4-2.1-1.5-3.4-1.6-5.4-.3zM412.7 460.6c-1.4 1.4-.7 3.5 1.1 3.2.9-.2 1.7-1 1.7-1.7 0-1.6-1.8-2.5-2.8-1.5zM514.5 462.4c-3 4.6 1.7 10.2 6.5 7.6 2.5-1.3 3.5-5.2 2-7.9-1.5-3-6.5-2.8-8.5.3zM363.2 462.3c-1 1.1-.9 1.7.2 2.6 2.3 1.9 6.1 1 6.1-1.4 0-2.5-4.6-3.3-6.3-1.2zM547.7 464.1c-2 2.7-1.1 4.9 1.8 4.9 3.1 0 5.2-2.7 3.8-4.8-1.5-2.5-3.9-2.6-5.6-.1zM155.6 467.1c-1.7 1.3-2.6 3-2.6 4.9 0 2.9 3.8 7 6.5 7 2.1 0 5.4-3.3 6.1-6.2.4-2.1 0-3.3-2-5.2-3.1-3.1-4.5-3.2-8-.5zM498.4 468.5c-.8 1.9.3 3.5 2.6 3.5 1.9 0 3-1.7 2.3-3.8-.6-1.7-4.2-1.5-4.9.3zM552.1 470.4c-2.6 3.1 1.4 7.1 4.5 4.5 2.1-1.7 1.4-5.3-1.2-5.7-1.1-.2-2.6.4-3.3 1.2zM199.4 476.4c-.9 2.4.4 4.8 2.3 4.4 2.4-.4 2.4-5.2 0-5.6-.9-.2-2 .4-2.3 1.2zM136.7 476.6c-1.4 1.4-.7 3.5 1.1 3.2.9-.2 1.7-1 1.7-1.7 0-1.6-1.8-2.5-2.8-1.5zM540 481c-1.1 1.1-2 2.4-2 2.9 0 1.4 3 4.1 4.5 4.1 1.8 0 4.5-2.7 4.5-4.5 0-1.5-2.7-4.5-4.1-4.5-.5 0-1.8.9-2.9 2zM174.2 481.9c-.8.5-1.2 2.1-1 3.7.2 2.4.8 2.9 3.5 3.2 2.8.3 3.3-.1 3.9-2.3 1-4.2-2.7-7-6.4-4.6zM510 487c0 .5.5 1 1 1 .6 0 1-.5 1-1 0-.6-.4-1-1-1-.5 0-1 .4-1 1zM143.2 494.6c-4.2 2.9-1.7 10.4 3.5 10.4 2 0 5.3-3.8 5.3-6s-3.3-6-5.3-6c-.7 0-2.3.7-3.5 1.6zM197.7 495.8c-2.1 2.3-2.2 6.5-.3 8.1 2.4 2 6.9.9 8.5-2.1 3.3-5.8-3.8-10.9-8.2-6zM184.1 498.9c-1.6 2.8 1.4 5.1 3.6 2.8 1.3-1.3 1.4-1.9.3-3.1-1.7-2.1-2.7-2-3.9.3zM518.9 498.8c-2.5 2.1-3 7.1-.9 9.6 1.7 2.2 7.3 2 9.3-.2 2.5-2.7 2.2-7.8-.5-9.6-2.9-2.1-5.1-2-7.9.2zM502.2 499.3c-.7.8-.7 1.8-.2 2.7.8 1.3 1.1 1.3 2.6-.2.9-.9 1.3-2.1 1-2.7-.9-1.5-2.1-1.4-3.4.2zM543.4 501.5c-.7 1.8.3 3.5 2.1 3.5 1.5 0 2.8-2.7 1.9-4.1-.8-1.4-3.4-1.1-4 .6zM194.3 507.7c-1.7.6-1.6 4 .1 4.6 1.7.7 2.6-.1 2.6-2.4 0-2.1-1-2.8-2.7-2.2zM141.7 513.7c-.4.3-.7 1.5-.7 2.5 0 2.8 3.4 1.9 3.8-1 .3-2.1-1.6-3.1-3.1-1.5zM188.7 513.6c-1.4 1.4-.7 3.5 1.1 3.2.9-.2 1.7-1 1.7-1.7 0-1.6-1.8-2.5-2.8-1.5zM166.6 515.3c-3.8 2.7.2 9.5 4.2 7.1 2.1-1.4 2.8-5 1.2-7-1.5-1.7-3.1-1.8-5.4-.1zM510.5 516c-.3.5-.1 1 .4 1 .6 0 1.1-.5 1.1-1 0-.6-.2-1-.4-1-.3 0-.8.4-1.1 1zM534 516c0 .5.5 1 1 1 .6 0 1-.5 1-1 0-.6-.4-1-1-1-.5 0-1 .4-1 1zM516.2 266.1c.2.7 1 1.5 1.7 1.7.8.3 1.2-.1.9-.9-.2-.7-1-1.5-1.7-1.7-.8-.3-1.2.1-.9.9zM125 363c0 2.3 2.5 2.7 3.3.6.7-1.6-.1-2.6-2-2.6-.7 0-1.3.9-1.3 2zM96.7 368.6c-1.6 1.6-.6 3.5 1.6 3.2 1.2-.2 2.2-1 2.2-1.8 0-1.6-2.6-2.5-3.8-1.4zM113.5 377.9c-1.1 3.6 1.7 6.7 4.9 5.5 3.8-1.4 2.2-7.4-1.9-7.4-1.4 0-2.6.7-3 1.9zM107.6 383.6c-1 .9-1.5 2.3-1.2 3.1.3.8.6 1.7.6 1.9 0 .2 1.1.4 2.5.4 2.9 0 4.3-2.5 2.8-4.8-1.4-2.3-2.9-2.5-4.7-.6zM76.2 396.5c-5.2 4.4-4.8 11.5.7 11.5 5.8 0 9.9-10.4 5.2-13-2.6-1.3-2.5-1.4-5.9 1.5zM92.3 395.6c-.8 2.1 1.3 4.2 2.8 2.7 1.3-1.3.5-4.3-1.1-4.3-.6 0-1.3.7-1.7 1.6zM106.7 398.6c-1.3 1.3-.7 4.2 1 4.8 2.1.8 3.6-.6 3.1-3-.3-1.9-2.9-3-4.1-1.8zM85.4 412.5c-.9 2.3.3 4.5 2.5 4.5 2.3 0 3.5-2.8 2-4.6-1.5-1.8-3.8-1.8-4.5.1zM89 421.5c-3.1 3.3-3.1 8.2-.1 10.7 3 2.4 4.4 2.3 7.7-.6 3.1-2.6 3.8-8.2 1.5-11-2-2.4-6.4-2-9.1.9zM108.9 422.1c-2.8 2.8-2.3 8.3.9 8.7 4.6.7 7.8-5.4 4.6-8.9-2.2-2.4-2.9-2.4-5.5.2zM614.4 392.3c-.6 1.7.2 3.7 1.6 3.7 1.5 0 1.9-2.9.5-4-1.2-1-1.6-.9-2.1.3zM614.2 412.2c-2 2-1.4 5.6.9 6.3 3.2 1.1 6.5-2.5 5-5.4-1.3-2.3-4-2.8-5.9-.9zM618.6 425.9c-1 1.6.6 4.2 2.3 3.9.9-.2 1.7-1.3 1.9-2.6.3-1.6-.2-2.2-1.7-2.2-1.1 0-2.2.4-2.5.9zM609.2 434.2c-2.9 2.9.3 8.2 3.6 6.1 2.5-1.5 2.2-6.7-.3-7.1-1.1-.1-2.6.3-3.3 1zM614.7 448.3c-3.7 2.1-5.5 5.5-4.2 7.6 1.3 2.1 6 1.1 9.3-2 3.4-3.2 3.9-4.8 2-6.7-1.6-1.6-2.7-1.5-7.1 1.1zM602 473c-2.5 2.5-1.6 5 2 5 3.3 0 4.9-3.2 3-5.5-1.6-2-2.6-1.9-5 .5zM71.2 443.2c.2 1.2 1 2.3 1.8 2.3 2.2 0 1.9-3.9-.3-4.3-1.5-.3-1.8.1-1.5 2zM80.7 452.7c-1.1 1-.8 4.1.4 4.9.6.3 1.8-.1 2.7-.9 1.3-1.3 1.3-1.9.2-3.1-1.4-1.7-2.3-2-3.3-.9zM81 465.5c0 1.8 2.4 3 3.9 2.1 1.6-1 .1-3.6-2-3.6-1 0-1.9.7-1.9 1.5zM91.7 466.7c-1.5 1.5-.5 4.1 2.4 6.2 3.5 2.6 5.8 1.7 4.1-1.5-.6-1.1-1.3-2.7-1.6-3.7-.5-1.7-3.6-2.3-4.9-1zM104.3 476.6c-.3.8.2 2.3 1.1 3.2 1.4 1.5 1.8 1.5 3.1.1.9-.9 1.3-2.3.9-3.2-.8-2.1-4.3-2.2-5.1-.1zM502.5 547.8c-2.8 2.7-6.3 7.3-7.9 10.3l-2.8 5.4 3.7-3.5c4.1-4 13.9-17 12.7-17-.4 0-3 2.2-5.7 4.8zM178.5 540.9c-.7 1.2 1.2 2.4 2.5 1.6 1.1-.7.4-2.5-1-2.5-.5 0-1.1.4-1.5.9zM182.1 554.5c5 9.3 13.8 20.5 16.1 20.5 1.6 0-9.6-16.8-14.4-21.5l-5-5 3.3 6z"></path></g><!----><g data-v-423bf9ae="" id="adb63689-e875-41a8-a71b-ee8b447676f9" fill="black" transform="matrix(1.8156182765960693,0,0,1.8156182765960693,1527.0872802734375,3043.5673828125)"><path d="M7.95 3.22L7.95 2.21L1.13 2.21L1.13 11.48L7.95 11.48L7.95 10.47L2.18 10.47L2.18 7.35L7.34 7.35L7.34 6.33L2.18 6.33L2.18 3.22ZM19.17 4.37C17.12 4.37 15.78 5.98 15.78 7.98C15.78 9.98 17.12 11.59 19.17 11.59C20.33 11.59 21.15 11.12 21.67 10.36L21.67 11.48L22.72 11.48L22.72 4.48L21.67 4.48L21.67 5.61C21.15 4.86 20.33 4.37 19.17 4.37ZM19.31 10.64C17.75 10.64 16.83 9.42 16.83 7.98C16.83 6.54 17.75 5.32 19.31 5.32C20.86 5.32 21.73 6.54 21.73 7.98C21.73 9.42 20.86 10.64 19.31 10.64ZM33.98 4.37C32.17 4.37 31.23 5.11 31.23 6.37C31.23 8.93 35.90 7.84 35.90 9.59C35.90 10.54 34.68 10.70 34.10 10.70C32.75 10.70 32.21 10.00 32.14 9.28L31.05 9.28C31.12 10.51 32.14 11.59 34.09 11.59C35.83 11.59 36.95 10.85 36.95 9.49C36.95 6.86 32.28 7.95 32.28 6.27C32.28 5.59 32.86 5.26 33.95 5.26C35.13 5.26 35.57 5.75 35.66 6.36L36.72 6.36C36.60 5.33 35.83 4.37 33.98 4.37ZM47.10 11.48L47.10 5.40L48.71 5.40L48.71 4.48L47.10 4.48L47.10 1.97L46.05 1.97L46.05 4.48L44.62 4.48L44.62 5.40L46.05 5.40L46.05 11.48ZM71.04 10.57C68.78 10.57 67.52 8.93 67.52 6.85C67.52 4.76 68.78 3.12 71.04 3.12C72.56 3.12 73.57 3.85 74.05 4.98L75.15 4.98C74.56 3.29 73.05 2.10 70.95 2.10C68.17 2.10 66.47 4.21 66.47 6.85C66.47 9.48 68.17 11.59 70.95 11.59C73.05 11.59 74.56 10.40 75.15 8.71L74.05 8.71C73.57 9.84 72.56 10.57 71.04 10.57ZM84.55 1.68L83.50 1.68L83.50 11.48L84.55 11.48ZM93.37 11.48L94.42 11.48L94.42 4.48L93.37 4.48ZM93.32 1.93L93.32 3.30L94.46 3.30L94.46 1.93ZM106.39 2.56L106.39 1.57L106.30 1.57C104.69 1.57 103.71 2.34 103.71 3.86L103.71 4.48L102.51 4.48L102.51 5.40L103.71 5.40L103.71 11.48L104.76 11.48L104.76 5.40L106.39 5.40L106.39 4.48L104.76 4.48L104.76 3.95C104.76 2.98 105.27 2.56 106.25 2.56ZM117.68 2.56L117.68 1.57L117.60 1.57C115.99 1.57 115.01 2.34 115.01 3.86L115.01 4.48L113.81 4.48L113.81 5.40L115.01 5.40L115.01 11.48L116.06 11.48L116.06 5.40L117.68 5.40L117.68 4.48L116.06 4.48L116.06 3.95C116.06 2.98 116.56 2.56 117.54 2.56ZM141.88 6.75C142.53 6.45 143.12 5.85 143.12 4.66C143.12 3.54 142.38 2.21 140.20 2.21L136.04 2.21L136.04 11.48L140.43 11.48C142.55 11.48 143.60 10.43 143.60 9.04C143.60 7.66 142.66 7 141.88 6.75ZM137.09 3.21L140.31 3.21C141.58 3.21 142.07 3.98 142.07 4.75C142.07 5.88 141.16 6.36 140.20 6.36L137.09 6.36ZM140.55 10.49L137.09 10.49L137.09 7.31L140.43 7.31C141.90 7.31 142.55 8.09 142.55 8.96C142.55 9.93 141.82 10.49 140.55 10.49ZM155.04 4.37C152.99 4.37 151.65 5.98 151.65 7.98C151.65 9.98 152.99 11.59 155.04 11.59C156.20 11.59 157.02 11.12 157.54 10.36L157.54 11.48L158.59 11.48L158.59 4.48L157.54 4.48L157.54 5.61C157.02 4.86 156.20 4.37 155.04 4.37ZM155.18 10.64C153.62 10.64 152.70 9.42 152.70 7.98C152.70 6.54 153.62 5.32 155.18 5.32C156.73 5.32 157.60 6.54 157.60 7.98C157.60 9.42 156.73 10.64 155.18 10.64ZM173.31 4.48L171.84 4.48L168.46 7.95L168.46 1.68L167.41 1.68L167.41 11.48L168.46 11.48L168.46 9.27L169.78 7.97L172.23 11.48L173.52 11.48L170.49 7.24ZM184.21 10.64C182.80 10.64 181.89 9.65 181.73 8.40L187.60 8.40L187.60 7.98C187.60 5.98 186.27 4.37 184.13 4.37C181.99 4.37 180.66 5.98 180.66 7.98C180.66 9.98 182.06 11.59 184.20 11.59C185.86 11.59 186.90 10.72 187.39 9.46L186.24 9.46C185.86 10.16 185.19 10.64 184.21 10.64ZM184.13 5.32C185.47 5.32 186.31 6.23 186.51 7.42L181.75 7.42C181.94 6.23 182.78 5.32 184.13 5.32ZM199.51 4.37C197.78 4.37 197.08 5.73 196.94 6.20L196.94 4.48L195.89 4.48L195.89 11.48L196.94 11.48L196.94 8.40C196.94 6.86 197.89 5.42 199.46 5.42L199.58 5.42L199.58 4.37ZM213.72 4.48L212.58 4.48L210.28 10.22L208.03 4.48L206.86 4.48L209.72 11.38L208.45 14.25L209.58 14.25Z"></path></g></svg>