<?xml version="1.0" encoding="UTF-8" standalone="no"?>
<svg
   data-v-423bf9ae=""
   viewBox="0 0 700 125"
   class="iconLeft"
   version="1.1"
   id="svg3"
   sodipodi:docname="monochrome-white.svg"
   width="700"
   height="125"
   inkscape:version="1.3.1 (9b9bdc1480, 2023-11-25, custom)"
   xmlns:inkscape="http://www.inkscape.org/namespaces/inkscape"
   xmlns:sodipodi="http://sodipodi.sourceforge.net/DTD/sodipodi-0.dtd"
   xmlns="http://www.w3.org/2000/svg"
   xmlns:svg="http://www.w3.org/2000/svg">
  <defs
     id="defs3" />
  <sodipodi:namedview
     id="namedview3"
     pagecolor="#ffffff"
     bordercolor="#000000"
     borderopacity="0.25"
     inkscape:showpageshadow="2"
     inkscape:pageopacity="0.0"
     inkscape:pagecheckerboard="0"
     inkscape:deskcolor="#d1d1d1"
     inkscape:zoom="1.6048344"
     inkscape:cx="340.53358"
     inkscape:cy="7.477407"
     inkscape:window-width="1920"
     inkscape:window-height="1016"
     inkscape:window-x="0"
     inkscape:window-y="0"
     inkscape:window-maximized="1"
     inkscape:current-layer="svg3" />
  <!---->
  <!---->
  <!---->
  <g
     data-v-423bf9ae=""
     id="5427105b-7ddb-49e4-856a-a6608bca54af"
     fill="white"
     transform="matrix(6.1265866,0,0,6.1572854,170.84672,8.8456921)"
     style="fill:#ffffff;fill-opacity:1">
    <path
       d="M 0.7,5.57 V 3.72 H 7.41 Q 7.41,4.16 7.28,4.5 7.15,4.84 6.94,5.08 6.73,5.32 6.46,5.45 6.19,5.57 5.88,5.57 v 0 H 4.76 v 7.95 H 2.87 V 5.57 Z M 10.88,6.1 v 0 q 1.1,0 1.96,0.54 0.87,0.53 1.36,1.35 0.49,0.83 0.52,1.84 0.04,1.01 -0.51,1.97 v 0 q -0.46,0.8 -1.2,1.28 -0.75,0.47 -1.59,0.59 Q 10.58,13.79 9.74,13.53 8.89,13.27 8.22,12.6 v 0 Q 7.46,11.83 7.21,10.82 6.96,9.81 7.25,8.81 v 0 Q 7.38,8.4 7.67,8.13 7.95,7.87 8.32,7.74 8.68,7.62 9.07,7.63 9.46,7.64 9.8,7.79 q 0.34,0.15 0.57,0.42 0.23,0.27 0.27,0.67 v 0 Q 10.43,8.72 10.14,8.71 9.84,8.71 9.57,8.84 9.3,8.97 9.11,9.25 8.92,9.52 8.92,9.93 v 0 q 0,0.7 0.29,1.16 0.3,0.46 0.74,0.69 0.44,0.23 0.95,0.23 0.51,0 0.95,-0.24 0.44,-0.23 0.74,-0.7 0.29,-0.47 0.29,-1.17 v 0 q 0,-0.55 -0.2,-0.97 Q 12.49,8.51 12.16,8.24 11.83,7.97 11.4,7.86 10.96,7.76 10.47,7.85 v 0 Q 10.26,7.6 9.96,7.46 9.66,7.31 9.31,7.26 8.96,7.21 8.61,7.27 8.26,7.34 7.95,7.52 v 0 Q 8.51,6.85 9.25,6.48 10,6.1 10.88,6.1 Z m 10.37,7.42 v -0.79 q -0.53,0.51 -1.15,0.75 -0.63,0.24 -1.26,0.22 -0.63,-0.02 -1.22,-0.29 -0.6,-0.26 -1.05,-0.76 -0.46,-0.5 -0.73,-1.19 -0.27,-0.69 -0.27,-1.58 v 0 q 0,-0.84 0.29,-1.55 0.3,-0.71 0.79,-1.22 0.5,-0.5 1.14,-0.77 0.63,-0.28 1.32,-0.25 v 0 q 0.67,0.03 1.08,0.3 0.4,0.27 0.59,0.64 0.19,0.36 0.2,0.73 0.01,0.37 -0.12,0.6 v 0 Q 20.62,8.01 20.19,7.89 19.75,7.77 19.35,7.77 v 0 q -0.65,0 -1.08,0.32 -0.43,0.31 -0.66,0.79 -0.22,0.47 -0.23,1.03 -0.01,0.55 0.21,1.02 0.22,0.48 0.66,0.8 0.44,0.31 1.1,0.31 v 0 q 0.56,0 0.92,-0.25 0.37,-0.25 0.58,-0.65 0.22,-0.4 0.31,-0.9 0.09,-0.5 0.09,-0.99 v 0 -2.21 -0.77 h 1.82 v 7.25 z M 28.07,8.5 v 0 Q 27.96,8.23 27.76,8.07 27.57,7.91 27.33,7.83 27.1,7.74 26.89,7.74 26.67,7.73 26.53,7.78 v 0 q -0.25,0.09 -0.33,0.29 -0.08,0.2 0.08,0.39 v 0 q 0.12,0.14 0.4,0.27 0.27,0.13 0.61,0.29 0.33,0.16 0.69,0.37 0.36,0.2 0.65,0.48 0.29,0.28 0.48,0.66 0.19,0.38 0.19,0.89 v 0 q 0,0.61 -0.26,1.06 -0.27,0.46 -0.71,0.74 -0.44,0.28 -1,0.38 -0.55,0.11 -1.12,0.02 -0.56,-0.08 -1.09,-0.38 -0.54,-0.3 -0.93,-0.82 v 0 l 1.12,-1.21 q 0.35,0.42 0.74,0.61 0.38,0.18 0.71,0.2 0.33,0.02 0.55,-0.1 0.23,-0.12 0.28,-0.32 0.05,-0.2 -0.12,-0.45 -0.17,-0.24 -0.65,-0.48 v 0 Q 26.38,10.44 25.95,10.21 25.52,9.97 25.19,9.67 24.86,9.38 24.66,9.02 24.46,8.65 24.46,8.16 v 0 q 0,-0.5 0.21,-0.89 0.21,-0.4 0.56,-0.66 0.35,-0.27 0.8,-0.39 0.44,-0.13 0.92,-0.12 v 0 q 0.81,0.05 1.24,0.36 0.43,0.32 0.53,0.72 0.11,0.39 -0.07,0.77 -0.17,0.38 -0.58,0.55 z M 31.18,6.33 V 5.15 q 0,-0.39 0.14,-0.66 0.15,-0.28 0.4,-0.44 0.24,-0.17 0.56,-0.25 0.33,-0.08 0.66,-0.08 v 0 2.61 h 1.63 q 0,0.28 -0.05,0.54 -0.05,0.27 -0.19,0.49 -0.14,0.21 -0.38,0.35 -0.24,0.13 -0.62,0.13 v 0 h -0.39 v 3.96 q 0,0.23 0.17,0.32 0.17,0.09 0.39,0.08 0.23,-0.01 0.45,-0.1 0.22,-0.1 0.32,-0.27 v 0 q 0.18,0.46 0.02,0.82 -0.16,0.36 -0.5,0.57 -0.34,0.22 -0.8,0.28 -0.45,0.07 -0.85,-0.07 -0.4,-0.13 -0.68,-0.47 -0.28,-0.35 -0.28,-0.93 v 0 -4.19 h -0.9 V 6.33 Z m 9.45,4.39 v 0 q -0.76,0.2 -1.38,0.14 -0.62,-0.05 -1.02,-0.3 -0.4,-0.24 -0.53,-0.65 -0.14,-0.42 0.07,-0.94 v 0 q 0.44,0.37 1.01,0.4 0.57,0.04 1.11,-0.02 v 0 Q 40.33,9.31 40.56,9.16 40.8,9 40.85,8.8 40.91,8.6 40.81,8.37 40.71,8.15 40.49,7.97 40.28,7.78 39.96,7.67 39.65,7.56 39.27,7.57 v 0 q -0.41,0.03 -0.77,0.2 -0.36,0.17 -0.64,0.46 -0.28,0.3 -0.45,0.69 -0.17,0.39 -0.18,0.87 v 0 q -0.02,0.39 0.09,0.77 0.1,0.37 0.31,0.69 0.21,0.31 0.51,0.53 0.29,0.22 0.67,0.27 v 0 q 0.53,0.1 1.09,-0.07 0.56,-0.16 0.99,-0.61 v 0 l 1.47,0.71 q -0.57,0.86 -1.35,1.23 -0.79,0.37 -1.8,0.37 v 0 q -0.93,0 -1.64,-0.33 -0.71,-0.33 -1.18,-0.88 -0.47,-0.54 -0.7,-1.23 -0.23,-0.7 -0.21,-1.42 0.01,-0.72 0.28,-1.41 0.26,-0.7 0.77,-1.23 v 0 q 0.56,-0.6 1.3,-0.85 0.75,-0.25 1.54,-0.25 v 0 q 0.87,0 1.5,0.29 0.63,0.29 1.02,0.75 0.39,0.45 0.52,1.01 0.12,0.55 -0.03,1.07 -0.14,0.52 -0.58,0.93 -0.43,0.41 -1.17,0.59 z m 8.29,2.79 v -0.77 q -0.52,0.5 -1.13,0.74 -0.61,0.23 -1.23,0.21 -0.61,-0.03 -1.19,-0.28 -0.57,-0.26 -1.01,-0.75 -0.44,-0.48 -0.71,-1.15 -0.26,-0.67 -0.26,-1.53 v 0 q 0,-0.82 0.28,-1.51 0.29,-0.69 0.77,-1.18 0.49,-0.5 1.1,-0.77 0.62,-0.26 1.29,-0.23 v 0 q 0.7,0.02 1.1,0.29 0.4,0.27 0.57,0.62 0.18,0.35 0.17,0.7 -0.01,0.36 -0.13,0.58 v 0 Q 48.3,8.15 47.87,8.03 47.45,7.91 47.07,7.91 v 0 q -0.63,0 -1.06,0.31 -0.43,0.31 -0.64,0.77 -0.22,0.46 -0.22,1 0,0.54 0.21,1 0.21,0.46 0.63,0.77 0.42,0.31 1.06,0.31 v 0 q 0.55,0 0.91,-0.25 0.35,-0.24 0.56,-0.63 0.21,-0.4 0.3,-0.88 0.1,-0.48 0.1,-0.96 v 0 -5.61 q 0.82,0.03 1.29,0.45 0.47,0.42 0.47,0.98 v 0 8.34 z M 55.58,5.57 V 3.72 h 6.71 q 0,0.44 -0.13,0.78 -0.13,0.34 -0.34,0.58 -0.21,0.24 -0.48,0.37 -0.27,0.12 -0.58,0.12 v 0 h -1.12 v 7.95 H 57.75 V 5.57 Z M 65.76,6.1 v 0 q 1.1,0 1.96,0.54 0.87,0.53 1.36,1.35 0.49,0.83 0.52,1.84 0.04,1.01 -0.51,1.97 v 0 q -0.46,0.8 -1.2,1.28 -0.75,0.47 -1.59,0.59 -0.84,0.12 -1.68,-0.14 -0.85,-0.26 -1.52,-0.93 v 0 Q 62.34,11.83 62.09,10.82 61.84,9.81 62.13,8.81 v 0 q 0.13,-0.41 0.41,-0.68 0.29,-0.26 0.66,-0.39 0.36,-0.12 0.75,-0.11 0.39,0.01 0.73,0.16 0.34,0.15 0.57,0.42 0.23,0.27 0.27,0.67 v 0 q -0.21,-0.16 -0.5,-0.17 -0.3,0 -0.57,0.13 -0.27,0.13 -0.46,0.41 -0.19,0.27 -0.19,0.68 v 0 q 0,0.7 0.29,1.16 0.3,0.46 0.74,0.69 0.44,0.23 0.95,0.23 0.51,0 0.95,-0.24 0.44,-0.23 0.74,-0.7 0.29,-0.47 0.29,-1.17 v 0 q 0,-0.55 -0.2,-0.97 Q 67.37,8.51 67.04,8.24 66.71,7.97 66.28,7.86 65.84,7.76 65.35,7.85 v 0 Q 65.14,7.6 64.84,7.46 64.54,7.31 64.19,7.26 63.84,7.21 63.49,7.27 63.14,7.34 62.83,7.52 v 0 Q 63.39,6.85 64.13,6.48 64.88,6.1 65.76,6.1 Z m 10.37,7.42 v -0.79 q -0.53,0.51 -1.15,0.75 -0.63,0.24 -1.26,0.22 -0.63,-0.02 -1.22,-0.29 -0.6,-0.26 -1.05,-0.76 -0.46,-0.5 -0.73,-1.19 -0.27,-0.69 -0.27,-1.58 v 0 q 0,-0.84 0.29,-1.55 0.3,-0.71 0.79,-1.22 0.5,-0.5 1.14,-0.77 0.63,-0.28 1.32,-0.25 v 0 q 0.67,0.03 1.08,0.3 0.4,0.27 0.59,0.64 0.19,0.36 0.2,0.73 0.01,0.37 -0.12,0.6 v 0 Q 75.5,8.01 75.07,7.89 74.63,7.77 74.23,7.77 v 0 q -0.65,0 -1.08,0.32 -0.43,0.31 -0.66,0.79 -0.22,0.47 -0.23,1.03 -0.01,0.55 0.21,1.02 0.22,0.48 0.66,0.8 0.44,0.31 1.1,0.31 v 0 q 0.56,0 0.92,-0.25 0.37,-0.25 0.58,-0.65 0.22,-0.4 0.31,-0.9 0.09,-0.5 0.09,-0.99 v 0 -2.21 -0.77 h 1.82 v 7.25 z m 8.47,-0.01 v -0.77 q -0.52,0.5 -1.13,0.74 -0.6,0.23 -1.22,0.21 -0.62,-0.03 -1.19,-0.28 -0.57,-0.26 -1.02,-0.75 -0.44,-0.48 -0.7,-1.15 -0.27,-0.67 -0.27,-1.53 v 0 q 0,-0.82 0.29,-1.51 0.29,-0.69 0.77,-1.18 0.48,-0.5 1.1,-0.77 0.61,-0.26 1.29,-0.23 v 0 q 0.7,0.02 1.09,0.29 0.4,0.27 0.58,0.62 0.17,0.35 0.17,0.7 -0.01,0.36 -0.14,0.58 v 0 Q 83.99,8.15 83.56,8.03 83.13,7.91 82.75,7.91 v 0 q -0.63,0 -1.05,0.31 -0.43,0.31 -0.65,0.77 -0.21,0.46 -0.21,1 0,0.54 0.21,1 0.21,0.46 0.63,0.77 0.42,0.31 1.06,0.31 v 0 q 0.55,0 0.9,-0.25 0.36,-0.24 0.57,-0.63 0.21,-0.4 0.3,-0.88 0.09,-0.48 0.09,-0.96 v 0 -5.61 q 0.83,0.03 1.3,0.45 0.47,0.42 0.47,0.98 v 0 8.34 z"
       id="path1"
       style="fill:#ffffff;fill-opacity:1" />
  </g>
  <!---->
  <g
     data-v-423bf9ae=""
     id="8d2c4742-c6b8-4c2b-a1bf-ceaf14022f4c"
     transform="matrix(0.24177481,0,0,0.24298628,-11.336882,-24.122838)"
     stroke="none"
     fill="white"
     style="fill:#ffffff;fill-opacity:1">
    <path
       d="m 420,99.6 c -5.2,1 -12.7,3.8 -19,7 -5.8,2.9 -7.7,3.3 -17.5,3.9 -14.8,0.9 -27.3,3 -37.3,6.4 -7.6,2.6 -8.5,2.8 -12.1,1.5 -7.1,-2.4 -16.3,-3.5 -34.6,-4.1 l -18,-0.5 -5.5,-3.3 c -9.3,-5.6 -18.5,-7.8 -29.8,-7.3 -11.7,0.6 -19,3.1 -25.5,8.9 -6.8,6 -10.1,13.3 -10.3,23.3 -0.1,4.5 -0.9,10.8 -1.8,14.1 -0.8,3.3 -1.6,9 -1.6,12.8 0,5.7 -0.5,7.8 -3.4,13.5 -1.9,3.7 -4.4,9.7 -5.5,13.2 -1.2,3.6 -3.2,8.1 -4.5,10 -7.3,11.1 -11.9,24.6 -12,35 0,4.1 0.6,8.5 1.3,9.8 1,1.9 0.6,3.9 -2.4,13.5 -5.1,15.5 -10,35.3 -12.5,49.3 -1.1,6.6 -2.2,13.1 -2.6,14.5 -0.5,2.5 -1.1,2.8 -10.2,4.4 -38.9,7 -75.3,30.9 -89.4,58.9 -5.5,11 -6.1,14.2 -6,36.7 0,17.8 0.3,21.7 2.1,28.3 3.6,13 9.2,22.6 19.5,33.4 7.8,8.1 13.5,12.3 24.9,18.2 5.1,2.6 9.2,5.4 9.2,6.1 0,0.8 -2.4,2.2 -5.5,3.3 -4.5,1.5 -10,2 -29.5,2.6 -24.4,0.8 -27.8,1.3 -31.5,5 -4.9,4.9 -0.7,13.5 6.8,13.4 2,-0.1 8.4,-0.2 14.2,-0.3 9.4,-0.3 11.5,0 20.2,2.9 5.4,1.7 9.8,3.6 9.8,4.3 -0.1,1.8 -3.7,9.4 -6.1,12.8 -1.2,1.7 -3.9,4.1 -6,5.5 -3.3,2 -3.9,3 -3.9,5.8 0,5.7 4.5,8.5 11.6,7.1 2.7,-0.5 5.2,-2.3 10.2,-7.7 7.6,-7.9 10.7,-9.8 16.3,-10.1 5.3,-0.2 7.8,2.4 8.6,9 0.4,4.1 0.2,5.8 -1.3,8.2 -2.9,4.4 -14.1,12.9 -18.8,14.1 -8.5,2.2 -10.6,3.2 -12.7,5.8 -4.3,5.6 0.5,13.2 8.4,13.2 3.1,0 6.9,-1.3 14.2,-5 6,-3 12.3,-5.4 15.8,-6 9.2,-1.5 39.1,-2.3 52.9,-1.5 l 12.7,0.7 6.8,5.2 c 4.7,3.6 7.7,6.8 9.7,10.5 3.2,6 7.6,8.6 12.9,7.6 3.8,-0.8 6,-2.2 7.5,-5.2 1.9,-3.6 1.4,-5.1 -3.3,-10.2 -7.5,-8 -9.5,-15.8 -5.2,-19.9 2.7,-2.5 7.8,-4.8 14.1,-6.2 4.9,-1.1 21.5,0.7 33.1,3.5 7.9,1.9 22.8,1.9 29.3,0 8.7,-2.6 11.8,-9.2 6.5,-13.5 -2.5,-2 -3.6,-2.2 -10.5,-1.6 -6.8,0.5 -8.9,0.2 -17,-2.4 -5.1,-1.7 -13,-3.8 -17.6,-4.7 -10,-2.1 -10.3,-3.5 -1.8,-7.8 7.6,-3.9 10.2,-7.1 8.5,-10.8 -2.1,-4.7 -6.4,-5.2 -17.8,-2.3 -12.7,3.3 -26.2,3.6 -31.9,0.7 -3.3,-1.7 -14.2,-12.1 -14.2,-13.6 0,-0.3 1.8,-4 3.9,-8.3 l 3.9,-7.8 19.9,-3.7 c 10.9,-2.1 20.6,-3.7 21.6,-3.7 1.1,0 3.2,0.9 4.8,2.1 4.5,3.2 20.8,10.6 29.5,13.5 28,9.1 67.9,13.3 91.6,9.5 19,-3 40.7,-9.8 60.2,-18.9 l 9.8,-4.6 11,1.6 c 6,0.8 11,1.7 11.2,1.9 0.2,0.2 0.6,2.6 1,5.4 0.5,4.8 0.4,5.2 -3.2,9 -8.5,9.2 -10.3,10.2 -19.4,11 -7.1,0.6 -9.5,0.4 -15.2,-1.4 -12.5,-3.9 -19.6,-2.3 -19.6,4.1 0,2.4 4.8,7.8 6.9,7.8 0.5,0 2,0.9 3.5,2.1 3.7,2.9 2,4.5 -5.7,5.4 -3.4,0.4 -12,2.7 -19.2,5.1 -11.8,4 -13.8,4.4 -21.5,4.2 -9.6,-0.2 -12.6,0.9 -13.6,4.9 -0.9,3.5 1.2,7.2 5.6,9.7 5.5,3.3 21.2,2.7 41.4,-1.4 18.4,-3.7 26.7,-3.8 35.3,-0.1 7.6,3.3 9.7,6 8.9,11.1 -0.8,5.2 -3.7,10.9 -7.8,15.5 -4,4.7 -4.2,8.9 -0.4,12.2 3.2,2.8 9,3.1 12.5,0.7 1.3,-0.9 3.4,-4.1 4.7,-7 1.6,-3.6 4.8,-7.7 10,-12.8 6.8,-6.6 8.5,-7.7 14.3,-9.3 4.7,-1.3 10.1,-1.8 18.6,-1.8 11.4,0 12.4,0.2 19.7,3.3 6.6,2.9 8.8,4.5 14.5,10.8 9.8,10.8 17.3,12.8 21.9,5.9 2.4,-3.6 0.7,-8.6 -5,-15.3 -8.6,-10.1 -9.6,-20.7 -2.4,-26.7 6,-5.1 14.4,-2.2 22.3,7.8 5,6.2 8.9,8.7 13.8,8.7 4.2,0 8.7,-3.5 8.7,-6.8 0,-2.4 -3.5,-6.9 -5.9,-7.7 -1.9,-0.6 -6.6,-10 -7.7,-15.3 -0.7,-3.4 -1.8,-2.8 13.1,-6.7 9.2,-2.4 11,-2.6 22.7,-2 12.7,0.7 12.7,0.7 15.2,-1.8 5.2,-5.2 2.5,-12.4 -5.5,-14.7 -1.9,-0.6 -12.2,-1 -22.9,-1 -10.7,-0.1 -21.4,-0.5 -23.7,-0.9 -4.2,-0.8 -9.9,-3.8 -9,-4.7 0.3,-0.3 3.5,-1.2 7.1,-1.9 10.2,-2.2 17.9,-6.7 27.8,-16.6 7.2,-7.2 9.3,-10.1 13.1,-18 4.3,-9 7.7,-20.6 7.7,-26.6 0,-1.6 1.2,-5.1 2.7,-7.8 2.2,-4.2 2.7,-6.3 2.7,-13 0.1,-7.2 -0.2,-8.5 -2.9,-13 -1.7,-2.9 -3.6,-8.4 -4.6,-13 -3.1,-15.1 -9.2,-27.1 -19.4,-38.3 -10.9,-12 -27.6,-22.7 -44.8,-28.7 -7.3,-2.6 -8.2,-3.3 -16.1,-11.9 -7.8,-8.6 -8.4,-9.5 -9.5,-15.6 -6.5,-34.9 -18.3,-69.1 -33.4,-97 -12.1,-22.4 -29.4,-46 -38.3,-52.1 -2.4,-1.6 -5,-4.2 -5.8,-5.7 -2.9,-5.7 -6.3,-17.9 -6.3,-22.9 -0.1,-10.2 -9.3,-21.3 -20.8,-24.9 -5,-1.6 -19.7,-2.7 -24.5,-1.8 z m 21.7,8.9 c 6.1,1.8 12.2,6.1 14.6,10.4 l 1.9,3.2 -4.4,-2.3 c -3.5,-1.9 -5.9,-2.3 -12.9,-2.3 -7.8,0 -9.1,0.3 -16.1,3.7 -6.3,3.2 -9.2,5.5 -18.1,14.9 l -10.6,11.2 -5.6,-0.5 -5.6,-0.5 3.7,3.1 c 2,1.6 5.6,5.6 7.9,8.7 l 4.3,5.8 0.4,-5.2 c 0.3,-2.9 1.2,-6.8 2.1,-8.7 l 1.5,-3.5 0.1,6.2 c 0.1,6.6 2.8,15.2 5.7,18.4 2.3,2.6 1,3.5 -2.1,1.5 -3.8,-2.5 -3,-0.3 1.2,3.4 8.5,7.5 22.9,11.5 32.3,9 6.6,-1.7 13.5,-6.5 17,-11.7 3.3,-5.1 3.8,-5 1.6,0.1 -1.9,4.6 -8.2,11.4 -12.7,13.6 -9.1,4.7 -20.6,4.5 -29.6,-0.5 -5.2,-2.9 -5.5,-1.8 -0.8,2.4 5,4.3 9.3,5.9 20.9,7.6 13.4,2 18.4,3.8 25.6,9.1 3.3,2.4 6,4.1 6,3.8 0,-0.3 -2.2,-3.4 -4.9,-6.8 -7.5,-9.4 -7.9,-10.8 -4.8,-15.3 1.4,-2.1 3.7,-5.2 5.1,-6.8 l 2.5,-3 0.1,3.6 c 0,2 0.9,6.7 2.1,10.5 1.9,6 2.9,7.5 9.4,13.7 11,10.4 13.7,19.2 7.3,24 -9.4,7 -25.2,12 -43.9,13.7 -19.4,1.8 -44.4,-0.7 -87,-8.6 l -18.7,-3.4 -21.3,4.4 c -37.5,7.8 -59.4,10.3 -80.3,9.2 -20,-1 -33.2,-4.2 -36,-8.7 -1.6,-2.8 1.3,-7.7 7,-12 6.9,-5.3 10.3,-12.9 10.4,-23.2 0,-2 0.3,-3.7 0.8,-3.7 0.4,0.1 2.9,3 5.7,6.5 7.3,9.6 9.2,9.8 25.5,3.5 6.7,-2.6 9.6,-4.4 13.7,-8.6 2.9,-2.9 5.3,-5.8 5.3,-6.3 0,-0.6 -2.4,0.2 -5.2,1.8 -16.4,9.2 -33.2,7.3 -42.4,-4.8 -4.8,-6.2 -4.2,-7.5 1.1,-2.5 5.9,5.7 15.9,9 24.3,7.9 8.3,-1 15.4,-4 20.6,-8.7 5.2,-4.5 5.4,-5.8 0.7,-3.4 -4.4,2.3 -4.4,2.1 -0.6,-2.9 3.6,-4.8 4.9,-9.1 5,-16.8 0,-2.6 0.3,-4.7 0.6,-4.7 1.3,0 3.3,5.8 3.8,11.1 l 0.6,5.6 9.5,-9 c 5.2,-4.9 8.5,-8.4 7.3,-7.8 -1.2,0.6 -4.1,1.1 -6.4,1.1 -5.4,0 -10.3,-3.3 -16,-10.6 -6.4,-8.3 -17.1,-17.8 -23.5,-21 -7.3,-3.6 -19.7,-4.6 -25.7,-2 l -3.8,1.5 1.8,-3 c 7.6,-13 30.6,-17.4 47.8,-9.3 13.1,6.3 25.2,24.2 23.1,34.5 -0.6,3.1 -0.5,3.1 1.7,1.7 7.1,-4.7 10.6,-16.3 7.3,-24.2 -0.9,-2.1 -1.6,-4 -1.6,-4.2 0,-0.9 13.2,-0.3 21.1,1 9.9,1.6 12.5,2.7 15.6,6.4 1.7,2 2.6,2.4 3.6,1.7 0.8,-0.6 3.3,-2.4 5.6,-4.2 5.3,-4 18.8,-7.4 32.3,-8.1 l 9.7,-0.5 -1,3.7 c -0.9,3.3 -0.5,8.7 0.8,10.9 0.3,0.5 1.5,-1.3 2.8,-4 4,-8.6 15.9,-17.4 28.5,-20.9 6.3,-1.7 18.7,-1.7 24.7,0.1 z m 3.8,21.4 4,1.8 -4.6,0.7 c -8.4,1.3 -18.5,7 -26.5,15 l -7.4,7.4 v -3.7 c 0,-9 5.5,-17.6 13.5,-21.2 5.3,-2.5 15.6,-2.5 21,0 z m -195,6.8 c 8.5,4.3 12.9,9.8 14.5,18.3 1.1,5.8 0.4,8.5 -1.4,5.1 -2,-3.6 -10.7,-10.2 -18.6,-14 -6.7,-3.2 -8.3,-3.6 -15.7,-3.6 -7.9,0 -8.1,-0.1 -6.5,-1.9 5.5,-6 19.4,-8 27.7,-3.9 z m 199,2.3 c 1.7,0.7 1.7,0.9 0.3,0.9 -2.9,0.1 -12.7,4.9 -18.9,9.1 -3.2,2.2 -6.1,4 -6.5,4 -0.7,0 2.7,-5 7.3,-10.8 3.4,-4.1 3.5,-4.2 9.6,-4.1 3.4,0 7.1,0.4 8.2,0.9 z m -205.4,12.7 c 9,9.6 9,9.7 -0.7,4.8 -4.9,-2.4 -11.4,-5.1 -14.4,-5.9 -6.6,-1.7 -3.9,-3.2 6,-3.5 4.2,-0.1 4.9,0.3 9.1,4.6 z m 203.9,9.7 c -3.9,6.5 -5.1,7 -12.5,5.6 -3.6,-0.7 -6.4,-1.5 -6.1,-1.7 0.4,-0.5 18.4,-7 19.8,-7.2 0.4,0 -0.2,1.4 -1.2,3.3 z m -210,9.1 c 8.3,2.2 8.4,2.3 5.5,3.4 -1.6,0.7 -5.1,1.5 -7.6,1.8 -4.3,0.5 -4.7,0.4 -7.6,-3.3 -4.7,-6.1 -4.8,-6.6 -1.6,-5.3 1.5,0.6 6.6,2.2 11.3,3.4 z m 186.9,1.9 c 7.5,2.2 16.9,2 23.3,-0.4 2.8,-1.1 5.3,-1.8 5.5,-1.6 0.2,0.2 -1.4,1.9 -3.6,3.8 -6.4,5.4 -14.8,7.1 -23.4,4.7 -3.9,-1.1 -11,-6.7 -12.9,-10.2 -1,-2 -1,-2 2.3,0.1 1.9,1.1 5.8,2.7 8.8,3.6 z m 56.5,1.3 c 3.9,7.9 6.2,23.2 3.6,24.8 -5.4,3.4 -12.7,-14.5 -10.6,-25.9 1,-5.3 3.9,-4.9 7,1.1 z M 235,181.1 c 7.3,1.4 18.2,0.7 23.6,-1.6 l 3.9,-1.6 -3.8,3.9 c -3.8,3.9 -11.3,7.2 -16.1,7.2 -6.8,0 -19.1,-6.2 -21.6,-10.9 -1,-2 -1,-2 3.4,-0.1 2.5,1 7.2,2.4 10.6,3.1 z m -24.3,10.6 c 5.1,7.8 -1.1,28.8 -6.4,21.7 -2.1,-2.8 -1.4,-18.1 1,-21.7 2.2,-3.4 3.2,-3.4 5.4,0 z m 291.7,11.8 c 4.8,7.9 5.1,8.6 3.9,8.4 -2.2,-0.4 -3.3,0.3 -3.3,2 0,2.4 2.6,3.4 4.2,1.7 1,-1.1 1.9,-0.3 4.5,4.5 3.2,5.7 7.4,15.1 8.7,19.6 0.6,1.8 0.4,2.2 -0.8,1.7 -0.9,-0.3 -1.6,-0.2 -1.6,0.2 0.1,1.6 3,4.8 3.7,4.1 0.4,-0.4 1.5,1.4 2.5,4 2,5.2 2.3,7.8 0.7,5 -0.5,-0.9 -1.7,-1.7 -2.4,-1.7 -1.9,0 -1.9,0.4 0,4 1.7,3.3 3.5,4 3.5,1.3 0,-2.3 0.9,-1.2 1.9,2.5 0.8,2.6 0.7,3 -0.7,2.4 -1.5,-0.5 -1.5,-0.3 0.1,2.1 1.7,2.7 3,9.7 1.7,9.7 -0.4,0 -1.7,-2.3 -3,-5.1 -2.9,-6 -11.1,-13.9 -14.6,-13.9 -1.3,0 -2.4,0.4 -2.4,1 0,0.5 -0.4,1 -0.8,1 -1.2,0 -3.4,-7.4 -2.3,-7.8 0.5,-0.2 0.3,-1.5 -0.5,-3 -2.2,-4.2 -1.8,-6.9 1.1,-7.6 1.4,-0.4 2.8,-1.3 3.2,-2.1 0.7,-2 -1.4,-4.5 -3.8,-4.5 -2,0 -2.5,-1.2 -3.4,-9.5 -0.6,-5.4 -3.8,-21.4 -5.1,-25.8 -1,-3.4 0.5,-1.6 5,5.8 z m -301.5,14.3 c 0.1,4.2 -1.7,7.8 -6.3,12.1 -2.9,2.8 -3.6,4.2 -3.6,7.4 0,2.1 0.5,4.8 1.1,5.9 0.8,1.4 0.8,1.8 0,1.4 -1.7,-1.1 -3.2,-8.4 -2.5,-12.4 1,-5.4 4.3,-14.1 7.2,-18.7 2.6,-4 2.6,-4 3.3,-1.5 0.4,1.4 0.7,4 0.8,5.8 z M 356,241.5 c 20.3,3.5 31.7,5.2 45,6.5 6.3,0.6 15.1,1.5 19.5,1.9 4.6,0.5 -13.8,0.6 -43,0.3 -38.7,-0.3 -58.8,0 -83.2,1.2 -53.2,2.6 -67.1,2.1 -82.6,-3 -6.8,-2.2 -5.4,-2.7 2.9,-0.8 9.8,2.1 37.1,2.9 54.9,1.5 15.5,-1.2 37,-4.5 56,-8.6 6.1,-1.3 12.1,-2.1 13.5,-1.9 1.4,0.2 9,1.5 17,2.9 z m 125.5,4.5 c -14.2,14.5 -43.1,18.8 -103.5,15 -26.2,-1.6 -53,-0.9 -77.5,1.9 -25.1,2.8 -57.9,4.3 -69.1,3.1 C 211.3,263.7 196,254.6 196,244.8 v -2.9 l 5.7,4.1 c 3.2,2.3 8.6,4.9 12.3,6 12.7,3.7 38.6,4.9 62,2.9 6.3,-0.6 48.9,-1.4 94.5,-1.8 81.1,-0.8 83.2,-0.8 91.5,-3 4.7,-1.2 11.7,-3.7 15.5,-5.5 3.9,-1.8 7.2,-3.1 7.4,-2.9 0.3,0.2 -1.3,2.1 -3.4,4.3 z m -280.9,22.8 c 10.5,13.1 24.9,23.5 49.3,35.7 13,6.5 28,12.9 28.7,12.2 0.2,-0.2 -2,-1.7 -4.8,-3.2 -11.8,-6.4 -31.4,-20 -47,-32.7 -10.7,-8.7 -12.4,-10.5 -8.7,-9.4 6.8,2 29,5.6 40.6,6.6 13.3,1.1 26.3,0.6 55.8,-2.1 6.6,-0.6 21.9,-1.1 34,-1.2 l 22,-0.1 18.6,11.1 c 33.4,19.9 35.2,21.5 8.7,7.8 -18.3,-9.4 -29.8,-14.8 -29.8,-14.1 0,0.3 8.7,5.7 19.3,12.2 10.5,6.4 20,12.4 21,13.4 1,0.9 -7,-2.8 -17.8,-8.2 -10.7,-5.4 -19.5,-9.6 -19.5,-9.3 0,0.5 7.4,5.4 24,15.8 l 9.5,5.9 6.6,-0.6 c 33.8,-3.1 63.2,-15.4 81,-33.7 l 6.7,-6.8 4.6,5.6 c 2.6,3.1 4.5,5.7 4.3,5.9 -0.1,0.2 -2.1,-0.3 -4.2,-1 -5.4,-1.8 -11.2,-2.8 -10,-1.8 0.6,0.5 7.1,5.4 14.5,10.9 27.4,20.5 49.9,43.5 58.4,60 3.8,7.2 6.4,21.3 7.4,39.6 1.5,26 -0.4,49.8 -5.9,76.5 -2.2,10.2 -2.2,10.3 -6,12.3 -4.2,2.1 -6.9,6.2 -6.9,10.6 0,1.7 -0.8,3.3 -2,4.1 -1.1,0.7 -2,2.3 -2,3.7 0,2 0.6,2.7 3,3.1 1.7,0.4 3,0.8 3,1.1 0,0.5 -3.6,7.3 -4.9,9.2 -0.8,1.2 -1.2,1.2 -2.5,0.2 -2,-1.7 -6.6,-1 -8,1.1 -1.4,2.3 0.3,4 3.8,4 2.3,0 2.5,0.3 1.4,1.7 -3.7,4.7 -9.3,8 -13.6,8.1 -1.8,0 -4.6,0.9 -6.1,2.1 -4.2,3.1 -14.6,3.8 -20.8,1.4 -6.3,-2.4 -13.5,-9.4 -16.4,-15.8 -2.2,-4.7 -2.4,-6.5 -2.3,-19.7 0,-21.9 5.4,-47.9 15.5,-74.8 8.5,-22.6 19,-41.4 30.5,-54.1 2.5,-2.8 4.1,-5.1 3.6,-5.1 -1.8,0 -12.7,8.7 -18.4,14.7 -6.7,7.2 -13.6,17.5 -18.5,28.1 -2,4.2 -3.8,7.9 -4,8.1 -0.2,0.2 -4.2,-1.5 -8.9,-3.9 -15.8,-7.7 -26.1,-20.4 -31.3,-38 l -1.9,-6.5 -0.1,6.7 -0.1,6.8 h -3.5 c -1.9,0 -6.9,0.5 -11.1,1.1 -10,1.5 -7.8,2.8 6.1,3.6 5.8,0.3 10.5,1 10.5,1.5 0,2.2 5.7,15.1 10.8,24.1 5.4,9.7 5.5,9.9 5,16.5 -0.4,5.1 -1.4,8.5 -4.2,14 -2,4 -4.4,7.6 -5.4,7.9 -2.7,1.1 -4.2,3 -3.6,4.6 0.5,1.5 -9.2,12.9 -12.6,14.7 -1.2,0.7 -2.6,0.1 -5.3,-2.1 -4.5,-3.7 -4.7,-3.1 -0.7,1.5 l 3.1,3.4 -3.2,2.3 -3.1,2.2 1.1,-2.1 c 1,-1.9 0.9,-2.2 -0.9,-2.2 -2.4,0 -3.9,2.8 -2,4 0.9,0.5 0.6,1.2 -1.1,2.4 -3,2.1 -3.6,2 -4.4,-0.3 -0.4,-1.3 -1.7,-2 -4.1,-2.3 -2.6,-0.3 -3.3,-0.1 -2.9,1 0.3,0.7 0.5,2.2 0.5,3.3 0,1.3 0.7,1.9 2.3,1.9 2,0 2,0.2 -0.8,2 -3.9,2.6 -4.1,2.5 -5.4,-1 -0.6,-2 -1.7,-3 -3,-3 -1.1,0 -3.8,-2.1 -6.2,-4.8 -3.9,-4.3 -3.6,-3.1 0.8,3.3 0.7,1.1 1.3,3 1.3,4.2 0,1.8 0.7,2.5 3,2.9 1.7,0.4 3,1 3,1.4 0,1.1 -6,3.1 -7.1,2.4 -1.4,-0.8 -9.9,-13.1 -9.9,-14.2 0,-0.6 -0.7,-1.8 -1.6,-2.6 -1.2,-1.2 -2,-1.3 -3.5,-0.6 -3.6,2 -1.3,5.8 2.6,4.4 0.8,-0.4 1.5,-0.2 1.5,0.3 0,0.5 1.8,4 4.1,7.7 2.2,3.7 3.9,6.9 3.7,7.2 -0.3,0.2 -1.8,0.6 -3.4,1 -2.7,0.5 -3.3,-0.1 -9.5,-8.3 -3.6,-4.9 -7.2,-9.9 -7.8,-11.2 -0.7,-1.2 -1.5,-2 -1.8,-1.7 -0.3,0.3 1.6,4 4.2,8.2 3.8,6.1 4.5,7.8 3.4,8.5 -0.8,0.5 -1.8,0.9 -2.2,0.9 -0.5,0 -0.7,0.6 -0.5,1.2 0.3,0.7 2.1,1.5 4.2,1.8 4.3,0.6 4.7,2.2 0.9,3.2 -3.4,0.9 -4.2,0.2 -10.9,-9.9 -5.3,-7.9 -8,-11.1 -6.8,-8 0.3,0.8 0.1,1.8 -0.5,2.2 -2,1.2 -1.2,3.5 1.2,3.5 1.8,0 3,1.2 5.1,5 1.5,2.7 3.1,5.2 3.6,5.5 0.6,0.4 1,1.3 1,2.1 0,1.1 -0.9,1.4 -3.2,1.2 -2.6,-0.2 -3.7,-1 -5,-3.6 -0.9,-1.9 -2.3,-3.9 -3.1,-4.5 -0.8,-0.7 -2.9,-3.3 -4.6,-6 -4,-5.9 -5.1,-6.2 -1.7,-0.3 l 2.5,4.3 -2.3,-0.4 c -1.3,-0.3 -3,0.2 -4,1.2 -2,2 -2,2 -7.7,-6.8 -4.5,-6.8 -4.7,-5.8 -0.4,1.9 2,3.7 3.4,6.9 3.1,7.1 -0.3,0.3 0.3,1.3 1.3,2.2 1.1,0.9 2.7,2.8 3.6,4.3 l 1.7,2.8 h -3 c -2.7,0 -3.5,-0.7 -6.4,-5.6 -3.6,-6 -8.2,-11.9 -7.2,-9.3 0.3,1.1 -0.2,1.8 -1.5,2.2 -1.2,0.3 -2.1,1.2 -2.1,2.1 0,1.5 0.5,1.8 4.3,2 0.9,0.1 2.9,2 4.3,4.3 l 2.5,4.3 h -4 c -3.5,0 -4.4,-0.5 -7.3,-4.3 -1.9,-2.3 -4.2,-5.4 -5.1,-6.9 -1.6,-2.6 -1.6,-2.7 1,-3 3.1,-0.4 5.3,-3.2 3.7,-4.8 -0.6,-0.6 -3.1,-1.2 -5.5,-1.4 -2.5,-0.1 -5,-0.5 -5.6,-0.9 -1.3,-0.8 -3.7,1.8 -2.8,3.3 0.3,0.5 1.2,1 1.8,1 1,0 10.7,14 10.7,15.5 0,0.3 -1.1,0.5 -2.4,0.5 -3.2,0 -6.9,-4.6 -6.2,-7.6 0.4,-1.5 -0.3,-3.1 -2.4,-5.2 -1.6,-1.7 -3.8,-4.9 -5,-7.1 -1.1,-2.3 -2.2,-4.1 -2.5,-4.1 -0.7,0 1.6,6 2.6,6.6 2,1.2 0.7,2.4 -2.5,2.4 -4.1,0 -5.7,-1.8 -13.1,-14.8 -2.6,-4.5 -4.9,-8.2 -5.2,-8.2 -0.3,0 2.3,5.2 5.7,11.6 5.6,10.6 6,11.8 4.6,13.3 -0.9,1 -1.6,2.3 -1.6,3.1 0,1.8 -2.5,-0.4 -5.1,-4.6 -1.7,-2.7 -1.8,-3.8 -0.9,-4.9 1.6,-1.9 0.5,-3.3 -4,-5.1 -3.2,-1.3 -5,-3.3 -10,-11 -3.3,-5.2 -6,-9.8 -6,-10.2 0,-0.4 1,-0.8 2.1,-0.9 3.3,-0.3 4.5,-1.9 2.9,-3.9 -1.1,-1.2 -2.4,-1.4 -5.2,-1 -2.4,0.4 -3.8,0.2 -3.8,-0.4 0,-0.7 -0.6,-0.7 -2,0 -2.4,1.3 -1.6,3.4 1,2.7 1.1,-0.3 2.1,0.2 2.5,1.2 0.3,0.9 3.3,6.2 6.7,11.9 6.1,10.3 6.1,10.3 3.9,11.8 -4.2,3 -1.3,7.4 4.9,7.4 3.5,0 4.2,0.5 7,4.6 1.8,2.5 3,4.7 2.7,5 -0.8,0.8 -5.8,-1.6 -5.2,-2.5 0.9,-1.5 -1.4,-2.4 -2.9,-1.2 -0.7,0.6 -2,0.9 -2.8,0.6 -1.7,-0.7 -14.4,-21.9 -23.7,-39.5 -3.3,-6.3 -6.1,-11.1 -6.1,-10.6 0,1.5 12.6,26.9 18.8,37.6 3.3,5.8 5.9,10.6 5.8,10.8 -0.2,0.1 -2.4,-0.7 -5,-1.8 -5.7,-2.6 -7.3,-5 -18.3,-27 -4.5,-9.1 -8.3,-16.2 -8.3,-15.8 0,0.3 1.6,4.4 3.5,8.9 1.9,4.5 3.4,8.3 3.2,8.4 -0.1,0.1 -1.7,-0.4 -3.5,-1.2 -2.5,-1 -4,-2.8 -6.4,-7.7 -2.3,-4.6 -3.9,-6.6 -5.6,-7.1 -5.4,-1.3 -8.6,2.5 -3.8,4.6 1.7,0.8 2.9,0.8 4.5,0 1.9,-1.1 2.3,-0.7 4.6,4.1 2.9,6.1 2.9,5.8 1.1,5.8 -0.7,0 -2,0.7 -2.7,1.6 -1.1,1.4 -1,1.9 1,3.5 1.3,1.1 3.6,1.9 5.2,1.9 1.8,0 3.4,0.8 4.4,2.2 1.5,2.2 1.4,2.3 -0.9,2.6 -5.7,0.7 -18.9,-15 -22.2,-26.4 l -1.6,-5.5 4.5,-10.2 c 5.2,-11.7 6.7,-16.6 6.7,-22 0,-2.1 0.4,-4.6 1,-5.6 1.8,-3.4 10.5,-6.2 22.4,-7.1 6.1,-0.5 12.2,-1.3 13.6,-1.8 2.5,-0.9 2.5,-0.9 -1,-1.7 -1.9,-0.5 -9.6,-0.7 -17,-0.7 -12.6,0.2 -13.9,0.4 -19.1,2.9 l -5.6,2.8 -0.6,-8 c -0.3,-4.4 -1.5,-10.7 -2.6,-14 l -2.1,-6 0.5,6.1 c 0.7,8.1 -1,22.6 -3.5,30 -2.7,7.6 -7.9,15.5 -14.9,22.3 -5.4,5.1 -14.3,11.1 -16.8,11.1 -0.6,0 -4.1,-5.5 -7.8,-12.3 C 197.6,400.2 187.6,386 179.1,377 l -6.2,-6.5 3.9,6 c 6.3,9.6 15,24.1 17.8,29.8 l 2.6,5.2 -8.3,-8.3 c -4.5,-4.5 -8.6,-8.2 -9,-8.2 -0.5,0 2.1,4.2 5.7,9.2 7.7,10.9 16.4,26 19.4,33.8 6.7,17.1 9.5,38.2 7.1,52.5 -4.2,24.7 -25.2,40.5 -52.2,39.3 -15.1,-0.7 -23,-5.9 -26.5,-17.3 -3.9,-13 -4.6,-22.9 -4.1,-53 0.6,-30.2 1.4,-40.9 4.8,-61 3.2,-19.5 7.7,-31 16.9,-43.5 5.3,-7 23.3,-25.2 37.3,-37.5 4.8,-4.2 8.7,-7.8 8.7,-8.1 0,-0.7 -11.4,4.6 -15.2,7.2 -2.1,1.3 -3.8,2.2 -3.8,1.8 0,-0.3 2.5,-3.9 5.6,-8 3.4,-4.5 8.8,-10 13.5,-13.6 4.4,-3.4 7.8,-6.2 7.7,-6.3 -1.2,-1 -14,2.1 -18.8,4.5 -3.3,1.7 -6,2.8 -6,2.5 0,-0.3 0.7,-1.7 1.6,-3 1,-1.5 1.4,-3.6 1.1,-5.1 -0.4,-2.5 2.4,-15 5.9,-25.6 l 1.6,-4.8 3.3,2.6 c 1.9,1.4 5.1,4.6 7.1,7.2 z M 515.4,264 c 0.6,0 1.7,-0.5 2.2,-1 0.7,-0.7 1.7,1.1 3.2,5.2 1.1,3.4 2,6.4 1.8,6.6 -0.6,0.6 -14.6,-13.5 -14.6,-14.7 0,-0.7 1.4,-0.1 3.1,1.3 1.7,1.4 3.6,2.6 4.3,2.6 z m -117.5,19.9 c 8.6,4.8 17.1,9.6 18.9,10.5 1.9,1 3.2,2 2.9,2.2 -0.2,0.3 -10.5,-4.5 -22.7,-10.6 -19.3,-9.5 -21.8,-11 -18.5,-11 2.9,0 7.3,2 19.4,8.9 z m 12.8,-0.2 c 22.1,12.3 20.7,12.7 -2.7,0.7 -11.6,-6 -15.4,-8.3 -12.8,-7.9 2,0.3 9,3.5 15.5,7.2 z m -259.8,54.5 c -0.7,1.3 -3.1,4.5 -5.4,7.3 -5.7,6.8 -9.8,13.1 -12.3,18.8 -1.3,2.8 -2.6,4.6 -3.2,4.2 -1.5,-0.9 -4,1.3 -4,3.6 0,1 0.6,2.2 1.4,2.6 1.2,0.7 0.8,3.3 -2,15.8 -6.7,29.5 -12.7,53 -13.7,54.4 -0.9,1 -3,1.2 -8.8,0.8 -14.5,-1 -25.7,-8.6 -31.7,-21.5 -2.3,-5 -2.7,-6.9 -2.6,-15.2 0,-10.8 1.9,-16.8 8.3,-26.6 12,-18.7 36.3,-35.6 62.1,-43.4 12.1,-3.7 13.5,-3.8 11.9,-0.8 z m 433.6,9.9 c 13,4.8 26.1,16.1 35.4,30.4 8.5,13 11.1,25.2 9.6,44.8 -0.6,9.2 -0.8,9.7 -3.3,10.9 -3.1,1.5 -4.1,5.8 -1.8,7.7 1.3,1.1 1.3,1.8 -0.1,6.4 -0.8,2.9 -2.3,6.1 -3.3,7.2 -1,1.1 -2,2.8 -2.2,3.9 -0.2,1.1 -1.7,2.3 -3.8,3 -3.9,1.2 -4.9,3.6 -3,7.1 1.1,2 0.9,2.8 -1.6,6 -1.6,2 -4.1,4.3 -5.6,5.1 -2.9,1.5 -8.2,1.9 -7.4,0.5 0.3,-0.4 0,-2.1 -0.6,-3.8 -1.4,-3.8 -0.3,-8.7 1.8,-7.9 2.7,1 5.6,-1.3 5.2,-4.2 -0.3,-2.3 -0.7,-2.7 -3.2,-2.5 -2.6,0.2 -2.8,0 -2.2,-2.5 2.8,-12.8 3.1,-45.6 0.6,-61 -2.7,-16.3 -11.5,-39.4 -18.5,-48.6 -1.9,-2.5 -3.1,-4.6 -2.5,-4.6 0.5,0 3.4,0.9 6.5,2.1 z M 70.2,435.7 c 7.9,10.5 22.2,20.5 34.8,24.4 l 5.5,1.7 0.8,9.8 c 0.4,5.5 0.8,11.5 0.8,13.4 0.1,1.9 0.6,4.1 1.1,4.8 2.4,2.9 -0.7,2.3 -8.4,-1.6 -4.6,-2.3 -10.9,-6.2 -14,-8.6 C 84,474.2 77,465.7 77,462.8 c 0,-1.1 -0.8,-2.2 -1.9,-2.5 -2.3,-0.6 -6.4,-9.4 -8.5,-18.3 -1.5,-6.4 -2.1,-12 -1.1,-12 0.2,0 2.4,2.6 4.7,5.7 z m 213.7,35.5 c 0.1,0.4 -1.5,-0.2 -3.4,-1.3 -3.2,-1.9 -3.3,-2.2 -1.9,-3.7 1.5,-1.5 1.4,-1.8 -0.8,-3.6 -3.4,-2.8 -5.1,-6.2 -4.2,-8.8 0.6,-1.9 1.5,-0.6 5.5,7.2 2.6,5.2 4.8,9.8 4.8,10.2 z m 93.1,15.6 c 2.3,2.8 1.4,4.2 -2.7,4.2 -1.9,0 -8.3,-6.2 -8.3,-8.1 0,-0.3 1.3,-0.4 3,-0.1 2.2,0.3 3.2,0 3.7,-1.3 0.6,-1.6 0.7,-1.6 1.5,0.4 0.4,1.3 1.7,3.5 2.8,4.9 z m -53.5,-2.7 4,1.9 -3.5,-0.5 c -1.9,-0.3 -4.1,-1.2 -5,-2 -1.9,-2 -0.4,-1.8 4.5,0.6 z m 12.5,3 c 0,1 -3.1,1.2 -5.4,0.3 -2.3,-0.9 -2,-2.2 0.7,-2.6 2.3,-0.4 4.7,0.8 4.7,2.3 z m 154.1,33.8 c 13,10.1 36.5,13 53.3,6.5 1.7,-0.7 1.9,-0.4 1.2,3.2 -1.7,9.7 -2.3,22.9 -1.4,32.2 0.3,3.5 1,4.6 3.5,6.2 1.7,1 4.9,4.9 7.2,8.7 2.4,4.1 5.6,7.9 8.1,9.6 4.2,2.9 5.3,5.7 2.3,5.7 -3.1,0 -8.1,-3.7 -15.4,-11.4 -4.7,-4.9 -9,-8.4 -12.5,-10 -3.7,-1.8 -5.8,-3.5 -6.5,-5.3 -0.6,-1.6 -2,-4.7 -3,-7.1 -2.3,-5.1 -2.4,-9.6 -0.4,-18.1 0.9,-3.5 1.4,-6.6 1.1,-6.8 -0.8,-0.9 -5.7,8.5 -9.7,18.7 -2.2,5.8 -4.6,11.1 -5.3,11.7 -0.6,0.7 -6.3,2.2 -12.6,3.3 -10.8,1.9 -11.7,2.2 -14,5.3 -1.3,1.7 -5.2,5.9 -8.7,9.2 -3.9,3.7 -7.6,8.5 -9.7,12.5 -3.3,6.4 -5.7,8.3 -7.9,6.1 -0.7,-0.7 -0.6,-1.6 0.6,-2.9 1,-1 3.1,-4.7 4.8,-8.2 1.7,-3.5 4.5,-8.4 6.2,-10.9 1.7,-2.6 3.3,-6.1 3.4,-7.9 0.1,-1.8 1.2,-4.6 2.3,-6.3 2.2,-3 9.9,-9.1 15.5,-12.3 2.6,-1.5 2.7,-1.6 0.5,-1 -1.4,0.4 -6.3,1.8 -10.9,3 -4.7,1.3 -8.6,2.2 -8.9,2 -0.4,-0.4 2.7,-3.3 10.8,-10.3 1.9,-1.7 6.2,-4.9 9.5,-7.3 3.6,-2.5 5,-3.9 3.5,-3.5 -3.9,1.1 -14.6,7.1 -20.4,11.5 -2.8,2.2 -7.4,4.9 -10.1,6.1 -4.5,2 -5.8,2.1 -18.4,1.4 -13,-0.6 -13.8,-0.6 -16.4,1.5 -1.5,1.2 -7.9,3.5 -14.4,5.2 -9.7,2.5 -13.7,3 -22.3,3 -10.4,-0.1 -16,-1.2 -16,-3.2 0,-0.8 2.6,-0.9 8.3,-0.5 8.6,0.7 9.2,0.6 24.3,-4.9 3.9,-1.4 10.2,-3 14,-3.5 8.1,-1.2 20.5,-5.2 28.4,-9.1 6.6,-3.3 19.4,-12.4 26.9,-19.1 3,-2.7 5.8,-4.9 6.2,-4.9 0.3,0 1.7,0.8 3,1.9 z m -388.6,1.2 c 0.5,0.5 2.1,0.9 3.6,0.9 4.5,0 4.1,2.4 -0.7,4.4 -4.4,1.8 -4.5,1.8 -16.7,-0.9 C 76.8,524 74.3,523.8 64.3,524.4 54.6,525 53,524.9 53,523.6 c 0,-0.9 1,-1.8 2.3,-2 1.2,-0.3 3.1,-0.7 4.2,-1 3.4,-0.8 40.9,0.5 42,1.5 z m 539.3,0 c 1.2,0.5 2.2,1.5 2.2,2.4 0,1.3 -1.6,1.4 -11.8,0.9 -10,-0.6 -13.2,-0.4 -22,1.6 -5.7,1.2 -11.8,2 -13.5,1.6 -7.5,-1.3 -9.8,-1.9 -10.4,-2.9 -0.4,-0.6 0,-0.8 1,-0.4 1.1,0.4 2,0 2.6,-1.2 0.8,-1.4 2.4,-1.8 7.3,-2 3.5,-0.1 9.9,-0.6 14.3,-1 8.7,-1 26.6,-0.4 30.3,1 z m -198.1,10.1 11.3,3.1 -3.1,1.9 -3.1,1.9 -7.2,-3.4 c -3.9,-1.9 -7.9,-3.7 -8.8,-4 -1.8,-0.6 -2.5,-2.7 -1,-2.7 0.4,0 5.8,1.4 11.9,3.2 z m -323.3,1.9 c 1.2,5.9 0.7,7.4 -2.6,9.3 -1.8,1.1 -7.6,6.1 -12.9,11.2 -6.1,5.9 -10.4,9.4 -11.8,9.4 -2.9,0 -2.6,-1.2 0.8,-3.8 1.6,-1.2 5,-5.6 7.6,-9.9 4,-6.6 15.6,-19.2 17.6,-19.3 0.4,0 0.9,1.4 1.3,3.1 z m 84.3,-1.9 c 0.4,0.7 0.6,2.1 0.5,3.1 -0.4,2.2 2.5,3.3 5,1.8 1.6,-1 3.1,-0.4 10.3,3.9 17.4,10.5 38.7,19 47.6,19 1.5,0 7.4,1.6 13,3.5 8.9,3 11.6,3.5 19.6,3.5 5.1,0 9.3,0.4 9.3,0.9 0,1.5 -8.5,3.1 -16,3.1 -9.2,0 -27.7,-3.6 -31.2,-6.1 -5,-3.5 -7.2,-3.8 -17,-2.7 -7.9,0.9 -10.4,0.8 -15.7,-0.6 -6.1,-1.6 -8.2,-2.8 -26.1,-15.2 -11.1,-7.8 -10.9,-7 1.8,5.1 6.7,6.4 12.2,12 12.2,12.5 0,0.7 -15.2,-2.8 -19.2,-4.5 -3.3,-1.3 -1.8,0.2 3.7,3.9 8.2,5.4 13.3,10.9 14.1,15.1 0.7,4 11.8,21.3 15.6,24.5 2,1.7 2.1,2.1 0.8,3 -3.6,2.4 -5.4,1.3 -10.7,-6.5 -2.2,-3.3 -6.2,-7.5 -8.9,-9.4 -2.7,-1.9 -6.3,-4.7 -8.1,-6.4 -3,-2.8 -3.7,-3 -17.6,-4.1 -8.4,-0.7 -15.1,-1.7 -16,-2.4 -1.9,-1.6 -3.2,-7.1 -4.7,-19.2 -1.8,-15 -2.2,-15.5 -3.6,-4.8 -2.5,18.8 -4.5,22.2 -15.2,26.1 -3.7,1.4 -8.3,2.8 -10.2,3.1 -2,0.3 -6.5,2.3 -10.2,4.5 -7.8,4.5 -21,9.2 -22.8,8.1 -2.3,-1.4 -0.2,-3.9 3.7,-4.5 6.5,-1 10.5,-3 18.7,-8.9 4.4,-3.1 9.8,-6.2 12.1,-6.8 4,-1.1 4.1,-1.3 3.2,-3.7 -0.7,-2 -0.4,-5 1.2,-11.9 1.2,-5.1 2.5,-12.3 2.8,-15.8 0.6,-6.5 0.6,-6.6 3.2,-5.9 1.4,0.4 7.9,0.9 14.3,1.2 13,0.6 21.8,-0.9 31.8,-5.2 6.5,-2.7 7.6,-2.9 8.7,-1.3 z m 372.3,1.3 c 0.7,1.7 1.7,2.5 3.4,2.5 3.9,0 7.7,4.1 13.1,14 2.7,5.1 6,9.9 7.2,10.7 2.9,1.9 2.9,3.3 0.2,3.3 -1.4,0 -5.9,-3.6 -12.3,-9.9 -5.6,-5.4 -11.6,-10.6 -13.3,-11.5 -3.6,-1.8 -3.9,-3.2 -2.1,-8.3 1.4,-3.9 2.5,-4.2 3.8,-0.8 z m -317.9,8.6 c -10.1,4.9 -10.6,5.1 -14.3,3.8 -4.2,-1.4 -5,-2.9 -1.5,-3 1.2,0 6.3,-1.3 11.2,-2.9 5,-1.6 10.4,-2.9 12,-2.9 2.3,0 0.7,1.1 -7.4,5 z"
       id="path2"
       style="fill:#ffffff;fill-opacity:1" />
    <path
       d="m 424.5,109 c -0.3,0.5 0.1,1 0.9,1 0.9,0 1.6,-0.5 1.6,-1 0,-0.6 -0.4,-1 -0.9,-1 -0.6,0 -1.3,0.4 -1.6,1 z m -6,1.1 c -1,1.5 0.1,2.3 2,1.5 0.9,-0.3 1.3,-1 1,-1.6 -0.8,-1.3 -2.2,-1.3 -3,0.1 z m -6.5,4 c 0,0.5 0.5,0.7 1,0.4 0.6,-0.3 1,-0.8 1,-1.1 0,-0.2 -0.4,-0.4 -1,-0.4 -0.5,0 -1,0.5 -1,1.1 z M 256.5,115 c -0.3,0.5 -0.1,1 0.4,1 0.6,0 1.1,-0.5 1.1,-1 0,-0.6 -0.2,-1 -0.4,-1 -0.3,0 -0.8,0.4 -1.1,1 z m 152,0.9 c -0.6,1.1 0.9,2.3 1.9,1.4 0.9,-0.9 0.7,-2.3 -0.3,-2.3 -0.6,0 -1.2,0.4 -1.6,0.9 z M 263,121.4 c 0,1.4 2.9,3.1 3.8,2.1 0.6,-0.6 -1.8,-3.5 -2.9,-3.5 -0.5,0 -0.9,0.6 -0.9,1.4 z m 40.6,6.2 c -1,2.6 -0.7,3.4 1.2,3.4 2.6,0 3.3,-1 2.1,-3.1 -1.2,-2.3 -2.5,-2.4 -3.3,-0.3 z M 268,130 c 0,0.5 0.7,1 1.6,1 0.8,0 1.2,-0.5 0.9,-1 -0.3,-0.6 -1,-1 -1.6,-1 -0.5,0 -0.9,0.4 -0.9,1 z m 43,1 c 0,0.5 0.5,1 1,1 0.6,0 1,-0.5 1,-1 0,-0.6 -0.4,-1 -1,-1 -0.5,0 -1,0.4 -1,1 z m -39.8,2.2 c 0.6,1.8 2.8,2.1 2.8,0.4 0,-0.9 -0.7,-1.6 -1.6,-1.6 -0.9,0 -1.4,0.5 -1.2,1.2 z M 325,135 c 0,0.5 0.5,1 1,1 0.6,0 1,-0.5 1,-1 0,-0.6 -0.4,-1 -1,-1 -0.5,0 -1,0.4 -1,1 z m -14,3 c 0,0.5 0.5,1 1,1 0.6,0 1,-0.5 1,-1 0,-0.6 -0.4,-1 -1,-1 -0.5,0 -1,0.4 -1,1 z m 11.5,4 c 0.4,0.6 1.1,0.8 1.6,0.5 1.4,-0.9 1.1,-1.5 -0.7,-1.5 -0.8,0 -1.2,0.5 -0.9,1 z m 15.5,0 c 0,0.5 0.5,1 1.1,1 0.5,0 0.7,-0.5 0.4,-1 -0.3,-0.6 -0.8,-1 -1.1,-1 -0.2,0 -0.4,0.4 -0.4,1 z m 31.5,23.4 c -9.7,4.5 -16.6,15.1 -15,22.9 0.6,2.8 5.1,11.7 5.9,11.7 0.1,0 0.1,-2.4 -0.2,-5.3 -0.5,-6.8 2.1,-10 9.7,-11.6 2.9,-0.6 6.1,-1.6 7.2,-2.1 2.3,-1.3 2.5,-4.9 0.4,-7.6 -2,-2.6 -1.9,-4.7 0.6,-7.8 l 2,-2.6 h -2.8 c -1.5,0 -5,1.1 -7.8,2.4 z m 3.3,11.3 c 0.2,0.8 -0.5,1.3 -1.7,1.3 -1.2,0 -2.1,-0.6 -2.1,-1.6 0,-1.8 3.1,-1.5 3.8,0.3 z m -74.1,-7.1 c 1.6,2.5 1.6,2.8 0,5.6 -3.3,5.8 -2,8 5.7,9.8 2.6,0.6 6,1.7 7.6,2.5 3.2,1.7 5.4,6.4 4.5,9.7 -0.5,2.1 -0.4,2 1.9,-0.7 4.8,-5.6 2.8,-15.1 -4.6,-22.5 -3.8,-3.8 -10.1,-6.9 -14.1,-7 -2.7,0 -2.7,0 -1,2.6 z m 9,9 c 0.5,1.5 -2,2.4 -3.7,1.4 -0.7,-0.4 -0.9,-1.3 -0.5,-1.9 0.8,-1.4 3.7,-1.1 4.2,0.5 z m 98.5,27.1 c 0.4,2.1 3.3,2.5 3.3,0.3 0,-0.8 -0.8,-1.6 -1.8,-1.8 -1.4,-0.3 -1.8,0.1 -1.5,1.5 z m -15.9,4 c -2.1,0.7 -1.5,3.3 0.7,3.3 1.1,0 2,-0.6 2,-1.4 0,-1.8 -1.1,-2.5 -2.7,-1.9 z M 440,211 c 0,0.5 0.5,1 1,1 0.6,0 1,-0.5 1,-1 0,-0.6 -0.4,-1 -1,-1 -0.5,0 -1,0.4 -1,1 z m -23,1 c 0,0.5 0.9,1 2,1 1.1,0 2,-0.5 2,-1 0,-0.6 -0.9,-1 -2,-1 -1.1,0 -2,0.4 -2,1 z m -7.4,0.9 c -0.4,0.5 -0.2,1.2 0.3,1.5 0.5,0.4 1.2,0.2 1.5,-0.3 0.4,-0.5 0.2,-1.2 -0.3,-1.5 -0.5,-0.4 -1.2,-0.2 -1.5,0.3 z m -10.2,3.2 c -1,1.7 1.3,3.6 2.7,2.2 1.2,-1.2 0.4,-3.3 -1.1,-3.3 -0.5,0 -1.2,0.5 -1.6,1.1 z M 446,219 c 0,0.5 0.5,1 1,1 0.6,0 1,-0.5 1,-1 0,-0.6 -0.4,-1 -1,-1 -0.5,0 -1,0.4 -1,1 z m -169.5,1 c -0.8,1.3 0.4,3.2 1.6,2.5 1.2,-0.8 1.2,-3.5 0,-3.5 -0.6,0 -1.3,0.4 -1.6,1 z m 155.6,3 c -1.6,0.9 -0.6,3 1.5,3 1.5,0 2,-2.5 0.6,-3.4 -0.4,-0.2 -1.4,-0.1 -2.1,0.4 z M 234,224.5 c 0,0.8 0.7,1.5 1.5,1.5 0.8,0 1.5,-0.7 1.5,-1.5 0,-0.8 -0.7,-1.5 -1.5,-1.5 -0.8,0 -1.5,0.7 -1.5,1.5 z M 461,224 c 0,0.5 0.5,1 1,1 0.6,0 1,-0.5 1,-1 0,-0.6 -0.4,-1 -1,-1 -0.5,0 -1,0.4 -1,1 z m -204,1.5 c 0,0.9 0.5,1.5 1.1,1.3 0.6,-0.2 1.1,-0.8 1.1,-1.3 0,-0.5 -0.5,-1.1 -1.1,-1.3 -0.6,-0.2 -1.1,0.4 -1.1,1.3 z M 441,225 c 0,0.5 0.5,1 1,1 0.6,0 1,-0.5 1,-1 0,-0.6 -0.4,-1 -1,-1 -0.5,0 -1,0.4 -1,1 z m -21.3,0.6 c -0.9,1 0.2,2.4 1.9,2.4 0.8,0 1.4,-0.7 1.4,-1.5 0,-1.5 -2.1,-2.1 -3.3,-0.9 z m -156.1,2.1 c -1.2,1.2 -0.6,3.3 0.9,3.3 0.8,0 1.5,-0.6 1.5,-1.4 0,-1.7 -1.4,-2.8 -2.4,-1.9 z m 178,1 c -1.1,1.1 -0.6,2.3 0.9,2.3 0.8,0 1.5,-0.4 1.5,-0.9 0,-1.3 -1.6,-2.2 -2.4,-1.4 z m 10.9,2.3 c 0.3,0.5 0.8,1 1.1,1 0.2,0 0.4,-0.5 0.4,-1 0,-0.6 -0.5,-1 -1.1,-1 -0.5,0 -0.7,0.4 -0.4,1 z m 52.5,-5.4 c 0,1.8 2.4,4.4 4,4.4 3.1,0 2.4,-2.7 -1,-3.9 -1.6,-0.5 -3,-0.8 -3,-0.5 z m 8,7.7 c 0,2.2 2.6,5.1 3.9,4.3 0.7,-0.5 0.8,-1.3 0.1,-2.5 -1.2,-2.3 -4,-3.5 -4,-1.8 z m -5.1,11.3 c -1.1,1.4 -1,1.8 0.6,3 2.3,1.7 3.9,1.4 4.3,-0.9 0.5,-2.4 -3.3,-4 -4.9,-2.1 z m 7.1,1.7 c 0,1.9 2.1,3.7 4.2,3.7 2.1,0 2.4,-2 0.6,-3.8 -1.6,-1.6 -4.8,-1.5 -4.8,0.1 z m -318.3,32.3 c -0.9,1 0.4,3.4 1.9,3.4 0.8,0 1.4,-0.9 1.4,-2 0,-1.9 -1.9,-2.7 -3.3,-1.4 z m 108.4,10.6 c 2.1,1.8 7.3,2.4 10.3,1.2 3.4,-1.3 1.3,-2.2 -5.5,-2.6 -6.8,-0.3 -7,-0.3 -4.8,1.4 z m 67.4,5.6 c 2.7,2.8 22.3,14.2 24.5,14.2 1.4,0 2,-0.4 1.5,-0.8 -1.6,-1.4 -27.1,-14.5 -26,-13.4 z m 125.2,2.6 c -0.3,0.8 0.1,2 0.9,2.7 1.2,1 1.8,0.9 3.1,-0.3 0.8,-0.9 1.2,-2.1 0.9,-2.7 -1,-1.6 -4.3,-1.4 -4.9,0.3 z m -289,4.3 c -1.2,1.1 -0.8,2.3 0.8,2.3 0.8,0 1.5,-0.7 1.5,-1.5 0,-1.6 -1.2,-2 -2.3,-0.8 z m 115.4,3.6 c 3.1,2.5 6.5,3.1 9.9,1.7 6.2,-2.6 5.2,-3.5 -3.6,-3.5 -8.3,0 -8.4,0 -6.3,1.8 z m 52.9,-1.9 c 0,0.7 7.2,4.7 7.7,4.2 0.3,-0.2 -1.3,-1.4 -3.6,-2.6 -2.3,-1.1 -4.1,-1.9 -4.1,-1.6 z m 132.9,5.5 c -2.1,1.6 -2.2,2.2 -1.1,4.5 0.8,1.7 1.9,2.6 3.6,2.6 4.7,0 6.1,-5 2,-7.7 -1.9,-1.2 -2.4,-1.1 -4.5,0.6 z m -30.9,2.7 c -1.1,1.2 -1,1.8 0.4,3.2 1.6,1.6 1.8,1.6 3.1,-0.2 1.1,-1.4 1.2,-2.3 0.4,-3.3 -1.5,-1.7 -2.4,-1.6 -3.9,0.3 z m -244.7,5.1 c -1.6,0.6 -1.7,3.9 -0.3,4.8 1.3,0.8 4,-1.3 4,-3 0,-1.5 -1.9,-2.4 -3.7,-1.8 z m 296.2,7.4 c -1,1.5 0.3,2.5 1.6,1.2 0.7,-0.7 0.7,-1.3 0.1,-1.7 -0.6,-0.3 -1.4,-0.1 -1.7,0.5 z m -61.3,2 c 0.2,0.6 0.8,1 1.3,1 0.5,0 1.1,-0.4 1.3,-1 0.2,-0.6 -0.4,-1.1 -1.3,-1.1 -0.9,0 -1.5,0.5 -1.3,1.1 z m 16.9,2.4 c -6,6.9 -3,17.5 5,17.5 9.7,0 15.2,-11.8 8.7,-18.7 -1.6,-1.7 -3.3,-2.3 -6.4,-2.3 -3.6,0 -4.7,0.5 -7.3,3.5 z m -281.2,0.2 c -6.3,5.3 -7.2,13.1 -2.1,18.5 5,5.4 15.1,2.7 18.7,-4.8 5.3,-11.2 -7.2,-21.5 -16.6,-13.7 z m 44.8,1.7 c -0.7,1.9 1.8,4 3.9,3.2 0.8,-0.3 1.4,-1.4 1.2,-2.3 -0.4,-2.2 -4.3,-2.9 -5.1,-0.9 z m -67.2,2.6 c -0.7,1.2 0.2,3 1.6,3 0.5,0 0.9,-0.9 0.9,-2 0,-2.1 -1.5,-2.7 -2.5,-1 z m 354.2,1.1 c -2.9,1.7 -4.9,7.3 -3.7,10.4 2.1,5.4 9.8,5.8 12.5,0.5 2,-3.9 1.9,-6.2 -0.6,-9.4 -2.1,-2.7 -5.1,-3.3 -8.2,-1.5 z m -80.3,1.3 c -1,2.6 0.4,4.8 2.8,4.4 1.7,-0.2 2.3,-1 2.3,-2.8 0,-1.8 -0.6,-2.6 -2.3,-2.8 -1.3,-0.2 -2.5,0.3 -2.8,1.2 z M 242.5,340 c -0.3,0.5 -0.1,1 0.4,1 0.6,0 1.1,-0.5 1.1,-1 0,-0.6 -0.2,-1 -0.4,-1 -0.3,0 -0.8,0.4 -1.1,1 z m 104.6,1.2 c 2.7,2.3 6.8,2.3 9.7,0 2.1,-1.7 2,-1.7 -4.8,-1.7 -6.9,0 -7,0 -4.9,1.7 z m 171.3,1.3 c -0.4,0.9 -0.2,2.1 0.4,2.7 1.5,1.5 4.4,0.1 4,-1.9 -0.4,-2.3 -3.6,-2.9 -4.4,-0.8 z m -344.7,3.3 c -2.2,2.4 -2.1,5.5 0.1,7.5 2.4,2.2 4.5,2.1 6.5,-0.1 2.1,-2.3 2.2,-5.6 0.1,-7.6 -2.1,-2.1 -4.7,-2 -6.7,0.2 z m 293.9,3.9 c -1.1,1.1 -0.6,2.3 0.9,2.3 0.8,0 1.5,-0.4 1.5,-0.9 0,-1.3 -1.6,-2.2 -2.4,-1.4 z m 38.8,4.7 c -1.1,2.8 0.1,5.1 2.5,5.1 2.8,0 4.7,-2.5 3.8,-4.9 -0.8,-2 -5.6,-2.1 -6.3,-0.2 z m 54.1,1.6 c -0.8,2.6 0.6,4.3 3.1,3.8 1.3,-0.2 1.9,-1.2 1.9,-2.8 0,-3.4 -4,-4.1 -5,-1 z m -330.1,2.4 c -0.3,0.8 -0.4,2.5 -0.2,3.8 0.2,1.8 0.9,2.3 3.2,2.3 3.6,0 5.6,-2.7 4,-5.3 -1.4,-2.2 -6.2,-2.8 -7,-0.8 z m 241.2,5.2 c -1.9,1.8 -2,2.8 -0.6,5.5 1.9,3.5 8,1.8 8,-2.2 0,-2.1 -2.6,-4.9 -4.5,-4.9 -0.7,0 -2.1,0.7 -2.9,1.6 z m 64.4,3.3 c -1.2,2.3 -0.5,4.7 1.6,5.5 2.1,0.8 4.2,-0.3 4.9,-2.5 1.4,-4.2 -4.4,-6.8 -6.5,-3 z m 18.2,0.3 c -1.9,1.9 -1.5,6.6 0.7,7.8 1.1,0.5 2.4,1 3,1 1.8,0 4.1,-3.1 4.1,-5.5 0,-3.7 -5.2,-5.9 -7.8,-3.3 z M 493,372 c -1.1,1.1 -2,2.6 -2,3.3 0,2.4 3.1,5.7 5.5,5.7 5.2,0 7.4,-6.5 3.3,-9.4 -3,-2.1 -4.4,-2 -6.8,0.4 z m -304,2.5 c -1.5,1.9 -0.4,5.2 2.1,6 3.8,1.2 6.5,-3.5 3.7,-6.3 -1.6,-1.6 -4.3,-1.5 -5.8,0.3 z m 200.5,5.1 c -4.4,0.8 -9.5,1.6 -11.2,1.9 -4.7,0.8 -4,2.5 1,2.5 4.8,0 17.3,-3.2 19,-4.9 1.3,-1.3 1.6,-1.3 -8.8,0.5 z m -245.1,0.8 c -0.9,2.4 0.4,4.8 2.3,4.4 1.2,-0.2 1.8,-1.2 1.8,-2.8 0,-2.9 -3.2,-4.1 -4.1,-1.6 z m 61.6,-0.7 c -4.1,1.5 -5.4,7.8 -2.2,10.6 2.5,2.3 5.8,2.1 8.2,-0.3 4.7,-4.7 0.2,-12.5 -6,-10.3 z m 122,8.4 c 8.3,4 14.6,4.3 21.3,0.9 5.6,-2.8 6.1,-4.2 1,-2.8 -3.5,1 -20.2,0.5 -26.3,-0.7 -1.4,-0.3 0.4,0.9 4,2.6 z m 237.4,-2 c -0.3,0.6 -0.1,1.6 0.5,2.2 0.9,0.9 1.4,0.8 2.1,-0.3 0.9,-1.5 0.4,-3 -1,-3 -0.5,0 -1.2,0.5 -1.6,1.1 z m -411.3,3.5 c -2.4,3 -2.6,4.6 -1,7.7 1.6,2.9 2.8,3.7 6.2,3.7 5.6,0 8.6,-6.8 5.1,-11.8 -2.2,-3.2 -7.6,-3 -10.3,0.4 z m 18.4,-1.2 c -1.6,1.2 -1.8,1.8 -0.9,3.3 1.4,2.3 3.4,2.3 4.8,0.1 0.8,-1.4 0.7,-2.1 -0.5,-3.3 -1.3,-1.3 -1.7,-1.3 -3.4,-0.1 z m 358,2.1 c -5,4.9 -1.8,13.5 4.9,13.5 3.9,0 7.6,-4.1 7.6,-8.5 0,-7 -7.5,-10.1 -12.5,-5 z m -306,-0.5 c -1.1,1.7 0.5,3.2 2.1,1.9 0.7,-0.6 1.1,-1.5 0.8,-2 -0.7,-1.2 -2.1,-1.1 -2.9,0.1 z m 335.2,15.8 c -3.8,3.9 -4.5,8.4 -1.8,11.1 2.6,2.6 3.7,2.6 7.7,0.2 4.3,-2.6 6.2,-8.2 4,-11.6 -2.3,-3.4 -6.5,-3.3 -9.9,0.3 z M 139,406.1 c -1,1.7 -0.9,2.4 0.4,3.7 1.2,1.3 1.8,1.3 3.1,0.2 2,-1.7 1.6,-5.4 -0.7,-5.8 -0.9,-0.2 -2.2,0.6 -2.8,1.9 z m 374.2,6.2 c -5.8,6.2 1.3,14.1 7.9,8.9 2.5,-2.1 3,-7.1 0.9,-9.6 -1.9,-2.3 -6.3,-2 -8.8,0.7 z m -238.9,-0.1 c 0.2,0.7 1,1.3 1.7,1.3 0.7,0 1.5,-0.6 1.8,-1.3 0.2,-0.7 -0.5,-1.2 -1.8,-1.2 -1.3,0 -2,0.5 -1.7,1.2 z M 459.5,412 c -1.1,1.7 0.5,3.2 2.1,1.9 0.7,-0.6 1.1,-1.5 0.8,-2 -0.7,-1.2 -2.1,-1.1 -2.9,0.1 z m -304,2.7 c -1.8,1.8 -1.6,3.2 0.8,4.7 2.1,1.3 5.1,-1.3 4.2,-3.6 -1,-2.4 -3.2,-2.9 -5,-1.1 z m 386.5,4.8 c -1.4,1.6 -0.5,3.5 1.6,3.5 1.5,0 2,-3.5 0.5,-4.4 -0.5,-0.3 -1.4,0.1 -2.1,0.9 z m -262.7,2.2 c -2.2,0.8 -1.4,3.9 1.2,5.1 2.6,1.2 6.7,0.3 7.9,-1.7 1.4,-2.3 -5.5,-4.9 -9.1,-3.4 z m -105.7,2.2 c -3.2,3.6 0.3,8.3 4.5,6.1 2.1,-1.2 2.5,-5 0.7,-6.8 -1.7,-1.7 -3.2,-1.5 -5.2,0.7 z m 278.8,1.5 c -1.1,2.8 0.4,4.8 3.3,4.4 2.2,-0.2 2.8,-0.8 2.8,-2.8 0,-2 -0.6,-2.6 -2.8,-2.8 -1.8,-0.2 -2.9,0.2 -3.3,1.2 z m -201.7,2.1 c -0.4,0.8 -0.3,1.6 0.1,1.9 1.3,0.8 3.5,-1.1 2.8,-2.3 -1,-1.5 -2.3,-1.4 -2.9,0.4 z m 11.6,0.1 c -0.4,1.1 0.1,2.2 1.2,3 2.4,1.8 3.6,1.8 6,0 1.6,-1.2 1.7,-1.6 0.6,-3 -1.8,-2.1 -7,-2.1 -7.8,0 z m -130,3 c -0.7,1.9 1.1,3.9 2.6,3 1.6,-1 1.3,-3.3 -0.4,-4 -0.9,-0.3 -1.8,0.1 -2.2,1 z m 12.2,1.4 c -3.7,4.1 2.4,9.7 6.3,5.8 1.8,-1.8 1.4,-5.6 -0.7,-6.8 -2.7,-1.4 -3.5,-1.3 -5.6,1 z m 114.1,0.3 c 0.3,1 0.9,1.5 1.2,1.2 0.3,-0.3 0,-1.1 -0.7,-1.8 -1,-0.9 -1.1,-0.8 -0.5,0.6 z m 54.6,0.9 c 0.2,1.5 1,2.3 2.3,2.3 3,0 2.7,-3.9 -0.3,-4.3 -2,-0.3 -2.3,0 -2,2 z m 244.3,-1 c -4.4,2.5 -4.9,7.8 -0.9,10.5 2.4,1.5 2.9,1.5 5.3,0.2 1.4,-0.8 3,-2.7 3.6,-4.3 0.8,-2.5 0.6,-3.1 -1.8,-5.2 -3.2,-2.7 -3.4,-2.8 -6.2,-1.2 z m -50.1,2.3 c -0.8,2.1 0.2,4.5 1.9,4.5 2,0 4,-2.7 3.3,-4.5 -0.7,-1.9 -4.5,-2 -5.2,0 z m 25.7,1.5 c -1.9,1.1 -0.9,4.5 1.4,4.5 1.3,0 2.1,-0.8 2.3,-2.1 0.3,-2.3 -1.7,-3.7 -3.7,-2.4 z m -336.4,2.7 c -1.2,1.1 -0.8,5 0.7,6.2 3,2.5 7.1,-2.4 4.6,-5.4 -1.3,-1.6 -4.2,-2 -5.3,-0.8 z m -29.5,2.9 c -4.2,2.9 -1.8,10.4 3.5,10.4 4.9,0 7.2,-7.6 3.1,-10.4 -1.2,-0.9 -2.7,-1.6 -3.3,-1.6 -0.6,0 -2.1,0.7 -3.3,1.6 z m 147.8,0 c 0,0.8 0.5,1.2 1,0.9 0.6,-0.3 1,-1 1,-1.6 0,-0.5 -0.4,-0.9 -1,-0.9 -0.5,0 -1,0.7 -1,1.6 z m 133,-0.1 c -1.4,1.7 -0.5,3.5 1.9,3.5 2.6,0 4.4,-2.3 2.9,-3.8 -1.6,-1.6 -3.3,-1.5 -4.8,0.3 z m 92.5,5 c -5.7,5.6 -1.4,14.3 5.6,11.5 3.4,-1.5 6.3,-6.2 5.4,-9 -1.7,-5.3 -7,-6.6 -11,-2.5 z m -19,-0.5 c -0.3,0.5 -0.1,1 0.4,1 0.6,0 1.1,-0.5 1.1,-1 0,-0.6 -0.2,-1 -0.4,-1 -0.3,0 -0.8,0.4 -1.1,1 z m -187.2,1.6 c -0.6,1.7 1.4,3.6 3.2,3.1 0.6,-0.2 1.1,-1.3 1.3,-2.5 0.3,-1.7 -0.2,-2.2 -1.8,-2.2 -1.1,0 -2.3,0.7 -2.7,1.6 z M 504,447.5 c -2.6,3.2 1.3,8.1 4.8,5.9 3.4,-2.2 2.2,-7.4 -1.8,-7.4 -1,0 -2.3,0.7 -3,1.5 z m -66.5,2.5 c -0.3,0.5 -0.1,1 0.4,1 0.6,0 1.1,-0.5 1.1,-1 0,-0.6 -0.2,-1 -0.4,-1 -0.3,0 -0.8,0.4 -1.1,1 z m -29.5,1.5 c 0,0.8 0.7,1.5 1.5,1.5 0.8,0 1.5,-0.7 1.5,-1.5 0,-0.8 -0.7,-1.5 -1.5,-1.5 -0.8,0 -1.5,0.7 -1.5,1.5 z m 38,3 c -0.7,0.9 -1,1.8 -0.7,2.1 1,1 4.7,-0.7 4.7,-2.2 0,-1.9 -2.4,-1.8 -4,0.1 z m -261.5,2.1 c -2.6,2.6 -1.6,8.5 1.7,10.3 2.5,1.4 2.9,1.4 5.5,-0.5 3.4,-2.5 4.2,-6.8 1.7,-9.5 -2.1,-2.3 -6.7,-2.5 -8.9,-0.3 z m 237,-0.7 c -0.8,1.5 0.3,3.1 2.1,3.1 0.9,0 1.4,-0.7 1.2,-1.7 -0.4,-2 -2.4,-2.8 -3.3,-1.4 z m 140.1,0.7 c -0.4,1 -0.2,2.2 0.3,2.7 1.4,1.4 4.3,0 3.9,-2 -0.4,-2.4 -3.4,-2.8 -4.2,-0.7 z m -180.4,1.6 c 0.5,1.5 2.8,1.8 2.9,0.3 0,-0.6 -0.7,-1.2 -1.7,-1.3 -1,-0.3 -1.5,0.1 -1.2,1 z m 47.8,0.2 c 0,1 0.9,1.6 2.1,1.6 2.4,0 2.1,-2.3 -0.4,-2.8 -1,-0.2 -1.7,0.3 -1.7,1.2 z M 139,461 c -1.7,1.7 -1.8,2.4 -1,4.1 1.7,3.1 4.1,3.5 6.1,1 3.4,-4.2 -1.4,-8.8 -5.1,-5.1 z m 166.6,-1.1 c -0.4,0.5 -0.2,1.2 0.3,1.5 0.5,0.4 1.2,0.2 1.5,-0.3 0.4,-0.5 0.2,-1.2 -0.3,-1.5 -0.5,-0.4 -1.2,-0.2 -1.5,0.3 z M 352,461 c -1.2,0.7 -1.3,1.3 -0.4,2.7 1.2,1.9 4,1.9 6.2,0 1.1,-0.9 1.1,-1.3 -0.4,-2.4 -2.1,-1.5 -3.4,-1.6 -5.4,-0.3 z m 60.7,-0.4 c -1.4,1.4 -0.7,3.5 1.1,3.2 0.9,-0.2 1.7,-1 1.7,-1.7 0,-1.6 -1.8,-2.5 -2.8,-1.5 z m 101.8,1.8 c -3,4.6 1.7,10.2 6.5,7.6 2.5,-1.3 3.5,-5.2 2,-7.9 -1.5,-3 -6.5,-2.8 -8.5,0.3 z m -151.3,-0.1 c -1,1.1 -0.9,1.7 0.2,2.6 2.3,1.9 6.1,1 6.1,-1.4 0,-2.5 -4.6,-3.3 -6.3,-1.2 z m 184.5,1.8 c -2,2.7 -1.1,4.9 1.8,4.9 3.1,0 5.2,-2.7 3.8,-4.8 -1.5,-2.5 -3.9,-2.6 -5.6,-0.1 z m -392.1,3 c -1.7,1.3 -2.6,3 -2.6,4.9 0,2.9 3.8,7 6.5,7 2.1,0 5.4,-3.3 6.1,-6.2 0.4,-2.1 0,-3.3 -2,-5.2 -3.1,-3.1 -4.5,-3.2 -8,-0.5 z m 342.8,1.4 c -0.8,1.9 0.3,3.5 2.6,3.5 1.9,0 3,-1.7 2.3,-3.8 -0.6,-1.7 -4.2,-1.5 -4.9,0.3 z m 53.7,1.9 c -2.6,3.1 1.4,7.1 4.5,4.5 2.1,-1.7 1.4,-5.3 -1.2,-5.7 -1.1,-0.2 -2.6,0.4 -3.3,1.2 z m -352.7,6 c -0.9,2.4 0.4,4.8 2.3,4.4 2.4,-0.4 2.4,-5.2 0,-5.6 -0.9,-0.2 -2,0.4 -2.3,1.2 z m -62.7,0.2 c -1.4,1.4 -0.7,3.5 1.1,3.2 0.9,-0.2 1.7,-1 1.7,-1.7 0,-1.6 -1.8,-2.5 -2.8,-1.5 z M 540,481 c -1.1,1.1 -2,2.4 -2,2.9 0,1.4 3,4.1 4.5,4.1 1.8,0 4.5,-2.7 4.5,-4.5 0,-1.5 -2.7,-4.5 -4.1,-4.5 -0.5,0 -1.8,0.9 -2.9,2 z m -365.8,0.9 c -0.8,0.5 -1.2,2.1 -1,3.7 0.2,2.4 0.8,2.9 3.5,3.2 2.8,0.3 3.3,-0.1 3.9,-2.3 1,-4.2 -2.7,-7 -6.4,-4.6 z M 510,487 c 0,0.5 0.5,1 1,1 0.6,0 1,-0.5 1,-1 0,-0.6 -0.4,-1 -1,-1 -0.5,0 -1,0.4 -1,1 z m -366.8,7.6 c -4.2,2.9 -1.7,10.4 3.5,10.4 2,0 5.3,-3.8 5.3,-6 0,-2.2 -3.3,-6 -5.3,-6 -0.7,0 -2.3,0.7 -3.5,1.6 z m 54.5,1.2 c -2.1,2.3 -2.2,6.5 -0.3,8.1 2.4,2 6.9,0.9 8.5,-2.1 3.3,-5.8 -3.8,-10.9 -8.2,-6 z m -13.6,3.1 c -1.6,2.8 1.4,5.1 3.6,2.8 1.3,-1.3 1.4,-1.9 0.3,-3.1 -1.7,-2.1 -2.7,-2 -3.9,0.3 z m 334.8,-0.1 c -2.5,2.1 -3,7.1 -0.9,9.6 1.7,2.2 7.3,2 9.3,-0.2 2.5,-2.7 2.2,-7.8 -0.5,-9.6 -2.9,-2.1 -5.1,-2 -7.9,0.2 z m -16.7,0.5 c -0.7,0.8 -0.7,1.8 -0.2,2.7 0.8,1.3 1.1,1.3 2.6,-0.2 0.9,-0.9 1.3,-2.1 1,-2.7 -0.9,-1.5 -2.1,-1.4 -3.4,0.2 z m 41.2,2.2 c -0.7,1.8 0.3,3.5 2.1,3.5 1.5,0 2.8,-2.7 1.9,-4.1 -0.8,-1.4 -3.4,-1.1 -4,0.6 z m -349.1,6.2 c -1.7,0.6 -1.6,4 0.1,4.6 1.7,0.7 2.6,-0.1 2.6,-2.4 0,-2.1 -1,-2.8 -2.7,-2.2 z m -52.6,6 c -0.4,0.3 -0.7,1.5 -0.7,2.5 0,2.8 3.4,1.9 3.8,-1 0.3,-2.1 -1.6,-3.1 -3.1,-1.5 z m 47,-0.1 c -1.4,1.4 -0.7,3.5 1.1,3.2 0.9,-0.2 1.7,-1 1.7,-1.7 0,-1.6 -1.8,-2.5 -2.8,-1.5 z m -22.1,1.7 c -3.8,2.7 0.2,9.5 4.2,7.1 2.1,-1.4 2.8,-5 1.2,-7 -1.5,-1.7 -3.1,-1.8 -5.4,-0.1 z m 343.9,0.7 c -0.3,0.5 -0.1,1 0.4,1 0.6,0 1.1,-0.5 1.1,-1 0,-0.6 -0.2,-1 -0.4,-1 -0.3,0 -0.8,0.4 -1.1,1 z m 23.5,0 c 0,0.5 0.5,1 1,1 0.6,0 1,-0.5 1,-1 0,-0.6 -0.4,-1 -1,-1 -0.5,0 -1,0.4 -1,1 z M 516.2,266.1 c 0.2,0.7 1,1.5 1.7,1.7 0.8,0.3 1.2,-0.1 0.9,-0.9 -0.2,-0.7 -1,-1.5 -1.7,-1.7 -0.8,-0.3 -1.2,0.1 -0.9,0.9 z M 125,363 c 0,2.3 2.5,2.7 3.3,0.6 0.7,-1.6 -0.1,-2.6 -2,-2.6 -0.7,0 -1.3,0.9 -1.3,2 z m -28.3,5.6 c -1.6,1.6 -0.6,3.5 1.6,3.2 1.2,-0.2 2.2,-1 2.2,-1.8 0,-1.6 -2.6,-2.5 -3.8,-1.4 z m 16.8,9.3 c -1.1,3.6 1.7,6.7 4.9,5.5 3.8,-1.4 2.2,-7.4 -1.9,-7.4 -1.4,0 -2.6,0.7 -3,1.9 z m -5.9,5.7 c -1,0.9 -1.5,2.3 -1.2,3.1 0.3,0.8 0.6,1.7 0.6,1.9 0,0.2 1.1,0.4 2.5,0.4 2.9,0 4.3,-2.5 2.8,-4.8 -1.4,-2.3 -2.9,-2.5 -4.7,-0.6 z m -31.4,12.9 c -5.2,4.4 -4.8,11.5 0.7,11.5 5.8,0 9.9,-10.4 5.2,-13 -2.6,-1.3 -2.5,-1.4 -5.9,1.5 z m 16.1,-0.9 c -0.8,2.1 1.3,4.2 2.8,2.7 1.3,-1.3 0.5,-4.3 -1.1,-4.3 -0.6,0 -1.3,0.7 -1.7,1.6 z m 14.4,3 c -1.3,1.3 -0.7,4.2 1,4.8 2.1,0.8 3.6,-0.6 3.1,-3 -0.3,-1.9 -2.9,-3 -4.1,-1.8 z m -21.3,13.9 c -0.9,2.3 0.3,4.5 2.5,4.5 2.3,0 3.5,-2.8 2,-4.6 -1.5,-1.8 -3.8,-1.8 -4.5,0.1 z m 3.6,9 c -3.1,3.3 -3.1,8.2 -0.1,10.7 3,2.4 4.4,2.3 7.7,-0.6 3.1,-2.6 3.8,-8.2 1.5,-11 -2,-2.4 -6.4,-2 -9.1,0.9 z m 19.9,0.6 c -2.8,2.8 -2.3,8.3 0.9,8.7 4.6,0.7 7.8,-5.4 4.6,-8.9 -2.2,-2.4 -2.9,-2.4 -5.5,0.2 z m 505.5,-29.8 c -0.6,1.7 0.2,3.7 1.6,3.7 1.5,0 1.9,-2.9 0.5,-4 -1.2,-1 -1.6,-0.9 -2.1,0.3 z m -0.2,19.9 c -2,2 -1.4,5.6 0.9,6.3 3.2,1.1 6.5,-2.5 5,-5.4 -1.3,-2.3 -4,-2.8 -5.9,-0.9 z m 4.4,13.7 c -1,1.6 0.6,4.2 2.3,3.9 0.9,-0.2 1.7,-1.3 1.9,-2.6 0.3,-1.6 -0.2,-2.2 -1.7,-2.2 -1.1,0 -2.2,0.4 -2.5,0.9 z m -9.4,8.3 c -2.9,2.9 0.3,8.2 3.6,6.1 2.5,-1.5 2.2,-6.7 -0.3,-7.1 -1.1,-0.1 -2.6,0.3 -3.3,1 z m 5.5,14.1 c -3.7,2.1 -5.5,5.5 -4.2,7.6 1.3,2.1 6,1.1 9.3,-2 3.4,-3.2 3.9,-4.8 2,-6.7 -1.6,-1.6 -2.7,-1.5 -7.1,1.1 z M 602,473 c -2.5,2.5 -1.6,5 2,5 3.3,0 4.9,-3.2 3,-5.5 -1.6,-2 -2.6,-1.9 -5,0.5 z M 71.2,443.2 c 0.2,1.2 1,2.3 1.8,2.3 2.2,0 1.9,-3.9 -0.3,-4.3 -1.5,-0.3 -1.8,0.1 -1.5,2 z m 9.5,9.5 c -1.1,1 -0.8,4.1 0.4,4.9 0.6,0.3 1.8,-0.1 2.7,-0.9 1.3,-1.3 1.3,-1.9 0.2,-3.1 -1.4,-1.7 -2.3,-2 -3.3,-0.9 z m 0.3,12.8 c 0,1.8 2.4,3 3.9,2.1 1.6,-1 0.1,-3.6 -2,-3.6 -1,0 -1.9,0.7 -1.9,1.5 z m 10.7,1.2 c -1.5,1.5 -0.5,4.1 2.4,6.2 3.5,2.6 5.8,1.7 4.1,-1.5 -0.6,-1.1 -1.3,-2.7 -1.6,-3.7 -0.5,-1.7 -3.6,-2.3 -4.9,-1 z m 12.6,9.9 c -0.3,0.8 0.2,2.3 1.1,3.2 1.4,1.5 1.8,1.5 3.1,0.1 0.9,-0.9 1.3,-2.3 0.9,-3.2 -0.8,-2.1 -4.3,-2.2 -5.1,-0.1 z m 398.2,71.2 c -2.8,2.7 -6.3,7.3 -7.9,10.3 l -2.8,5.4 3.7,-3.5 c 4.1,-4 13.9,-17 12.7,-17 -0.4,0 -3,2.2 -5.7,4.8 z m -324,-6.9 c -0.7,1.2 1.2,2.4 2.5,1.6 1.1,-0.7 0.4,-2.5 -1,-2.5 -0.5,0 -1.1,0.4 -1.5,0.9 z m 3.6,13.6 c 5,9.3 13.8,20.5 16.1,20.5 1.6,0 -9.6,-16.8 -14.4,-21.5 l -5,-5 z"
       id="path3"
       style="fill:#ffffff;fill-opacity:1" />
  </g>
  <!---->
</svg>
